<svg width="20" height="14" viewBox="0 0 20 14" fill="none" xmlns="http://www.w3.org/2000/svg">
<path d="M12.998 8.34294e-07C14.8343 -0.000895094 16.5974 0.719828 17.9073 2.0068C19.2172 3.29378 19.9689 5.04393 20.0003 6.87998C20.0318 8.71603 19.3406 10.4909 18.0756 11.8221C16.8106 13.1532 15.0732 13.9339 13.238 13.996L12.998 14H7.00195C5.16563 14.0009 3.40249 13.2802 2.09262 11.9932C0.78275 10.7062 0.0310495 8.95607 -0.000434657 7.12002C-0.0319188 5.28397 0.659335 3.50907 1.92431 2.17794C3.18929 0.846814 4.92668 0.0660646 6.76195 0.00400102L7.00095 8.34294e-07H12.998ZM12.998 1.5H7.00195C5.5604 1.49696 4.17527 2.06001 3.14468 3.06797C2.11409 4.07592 1.52043 5.4482 1.49147 6.88947C1.4625 8.33074 2.00054 9.72577 2.9898 10.7743C3.97906 11.8229 5.34044 12.4411 6.78095 12.496L7.00195 12.5H12.998C14.4395 12.503 15.8246 11.94 16.8552 10.932C17.8858 9.92408 18.4795 8.5518 18.5084 7.11053C18.5374 5.66926 17.9994 4.27424 17.0101 3.22568C16.0208 2.17713 14.6595 1.55889 13.219 1.504L12.998 1.5ZM5.99995 4C6.19886 4 6.38963 4.07902 6.53028 4.21967C6.67093 4.36032 6.74995 4.55109 6.74995 4.75V6.248H8.24995C8.44886 6.248 8.63963 6.32702 8.78028 6.46767C8.92093 6.60832 8.99995 6.79909 8.99995 6.998C8.99995 7.19691 8.92093 7.38768 8.78028 7.52833C8.63963 7.66898 8.44886 7.748 8.24995 7.748H6.74995V9.25C6.74995 9.44891 6.67093 9.63968 6.53028 9.78033C6.38963 9.92098 6.19886 10 5.99995 10C5.80104 10 5.61027 9.92098 5.46962 9.78033C5.32897 9.63968 5.24995 9.44891 5.24995 9.25V7.748H3.74995C3.65146 7.748 3.55393 7.7286 3.46294 7.69091C3.37194 7.65322 3.28927 7.59797 3.21962 7.52833C3.14998 7.45869 3.09473 7.37601 3.05704 7.28501C3.01935 7.19402 2.99995 7.09649 2.99995 6.998C2.99995 6.89951 3.01935 6.80198 3.05704 6.71099C3.09473 6.61999 3.14998 6.53731 3.21962 6.46767C3.28927 6.39803 3.37194 6.34278 3.46294 6.30509C3.55393 6.2674 3.65146 6.248 3.74995 6.248H5.24995V4.75C5.24995 4.55109 5.32897 4.36032 5.46962 4.21967C5.61027 4.07902 5.80104 4 5.99995 4ZM12.75 7.5C13.0815 7.5 13.3994 7.6317 13.6338 7.86612C13.8683 8.10054 14 8.41848 14 8.75C14 9.08152 13.8683 9.39946 13.6338 9.63388C13.3994 9.86831 13.0815 10 12.75 10C12.4184 10 12.1005 9.86831 11.8661 9.63388C11.6316 9.39946 11.5 9.08152 11.5 8.75C11.5 8.41848 11.6316 8.10054 11.8661 7.86612C12.1005 7.6317 12.4184 7.5 12.75 7.5ZM14.75 4C15.0815 4 15.3994 4.1317 15.6338 4.36612C15.8683 4.60054 16 4.91848 16 5.25C16 5.58152 15.8683 5.89946 15.6338 6.13388C15.3994 6.3683 15.0815 6.5 14.75 6.5C14.4184 6.5 14.1005 6.3683 13.8661 6.13388C13.6316 5.89946 13.5 5.58152 13.5 5.25C13.5 4.91848 13.6316 4.60054 13.8661 4.36612C14.1005 4.1317 14.4184 4 14.75 4Z" fill="white"/>
</svg>
