<svg width="56" height="56" viewBox="0 0 56 56" fill="none" xmlns="http://www.w3.org/2000/svg">
<g filter="url(#filter0_d_150_99)">
<rect x="12" y="12" width="32" height="32" rx="8" fill="#6D49FF"/>
</g>
<path d="M30.998 21C32.8343 20.9991 34.5974 21.7198 35.9073 23.0068C37.2172 24.2938 37.9689 26.0439 38.0003 27.88C38.0318 29.716 37.3406 31.4909 36.0756 32.8221C34.8106 34.1532 33.0732 34.9339 31.238 34.996L30.998 35H25.002C23.1656 35.0009 21.4025 34.2802 20.0926 32.9932C18.7828 31.7062 18.031 29.9561 17.9996 28.12C17.9681 26.284 18.6593 24.5091 19.9243 23.1779C21.1893 21.8468 22.9267 21.0661 24.762 21.004L25.001 21H30.998ZM30.998 22.5H25.002C23.5604 22.497 22.1753 23.06 21.1447 24.068C20.1141 25.0759 19.5204 26.4482 19.4915 27.8895C19.4625 29.3307 20.0005 30.7258 20.9898 31.7743C21.9791 32.8229 23.3404 33.4411 24.781 33.496L25.002 33.5H30.998C32.4395 33.503 33.8246 32.94 34.8552 31.932C35.8858 30.9241 36.4795 29.5518 36.5084 28.1105C36.5374 26.6693 35.9994 25.2742 35.0101 24.2257C34.0208 23.1771 32.6595 22.5589 31.219 22.504L30.998 22.5ZM24 25C24.1989 25 24.3896 25.079 24.5303 25.2197C24.6709 25.3603 24.75 25.5511 24.75 25.75V27.248H26.25C26.4489 27.248 26.6396 27.327 26.7803 27.4677C26.9209 27.6083 27 27.7991 27 27.998C27 28.1969 26.9209 28.3877 26.7803 28.5283C26.6396 28.669 26.4489 28.748 26.25 28.748H24.75V30.25C24.75 30.4489 24.6709 30.6397 24.5303 30.7803C24.3896 30.921 24.1989 31 24 31C23.801 31 23.6103 30.921 23.4696 30.7803C23.329 30.6397 23.25 30.4489 23.25 30.25V28.748H21.75C21.6515 28.748 21.5539 28.7286 21.4629 28.6909C21.3719 28.6532 21.2893 28.598 21.2196 28.5283C21.15 28.4587 21.0947 28.376 21.057 28.285C21.0194 28.194 21 28.0965 21 27.998C21 27.8995 21.0194 27.802 21.057 27.711C21.0947 27.62 21.15 27.5373 21.2196 27.4677C21.2893 27.398 21.3719 27.3428 21.4629 27.3051C21.5539 27.2674 21.6515 27.248 21.75 27.248H23.25V25.75C23.25 25.5511 23.329 25.3603 23.4696 25.2197C23.6103 25.079 23.801 25 24 25ZM30.75 28.5C31.0815 28.5 31.3994 28.6317 31.6338 28.8661C31.8683 29.1005 32 29.4185 32 29.75C32 30.0815 31.8683 30.3995 31.6338 30.6339C31.3994 30.8683 31.0815 31 30.75 31C30.4184 31 30.1005 30.8683 29.8661 30.6339C29.6316 30.3995 29.5 30.0815 29.5 29.75C29.5 29.4185 29.6316 29.1005 29.8661 28.8661C30.1005 28.6317 30.4184 28.5 30.75 28.5ZM32.75 25C33.0815 25 33.3994 25.1317 33.6338 25.3661C33.8683 25.6005 34 25.9185 34 26.25C34 26.5815 33.8683 26.8995 33.6338 27.1339C33.3994 27.3683 33.0815 27.5 32.75 27.5C32.4184 27.5 32.1005 27.3683 31.8661 27.1339C31.6316 26.8995 31.5 26.5815 31.5 26.25C31.5 25.9185 31.6316 25.6005 31.8661 25.3661C32.1005 25.1317 32.4184 25 32.75 25Z" fill="white"/>
<defs>
<filter id="filter0_d_150_99" x="0" y="0" width="56" height="56" filterUnits="userSpaceOnUse" color-interpolation-filters="sRGB">
<feFlood flood-opacity="0" result="BackgroundImageFix"/>
<feColorMatrix in="SourceAlpha" type="matrix" values="0 0 0 0 0 0 0 0 0 0 0 0 0 0 0 0 0 0 127 0" result="hardAlpha"/>
<feOffset/>
<feGaussianBlur stdDeviation="6"/>
<feColorMatrix type="matrix" values="0 0 0 0 0.435294 0 0 0 0 0.431373 0 0 0 0 1 0 0 0 0.5 0"/>
<feBlend mode="normal" in2="BackgroundImageFix" result="effect1_dropShadow_150_99"/>
<feBlend mode="normal" in="SourceGraphic" in2="effect1_dropShadow_150_99" result="shape"/>
</filter>
</defs>
</svg>
