<?xml version="1.0" encoding="utf-8"?>
<!-- Generator: Adobe Illustrator 25.0.0, SVG Export Plug-In . SVG Version: 6.00 Build 0)  -->
<svg version="1.1" id="Слой_1" xmlns="http://www.w3.org/2000/svg" xmlns:xlink="http://www.w3.org/1999/xlink" x="0px" y="0px"
	 viewBox="0 0 33 33" style="enable-background:new 0 0 33 33;" xml:space="preserve">
<style type="text/css">
	.st0{fill:#6D49FF;}
	.st1{fill:#FFFFFF;}
</style>
<g>
	<path class="st0" d="M8.6,0.6h16c4.4,0,8,3.6,8,8v16c0,4.4-3.6,8-8,8h-16c-4.4,0-8-3.6-8-8v-16C0.6,4.2,4.2,0.6,8.6,0.6z"/>
</g>
<path class="st1" d="M19.6,9.6c1.8,0,3.6,0.7,4.9,2c1.3,1.3,2.1,3,2.1,4.9c0,1.8-0.7,3.6-1.9,4.9c-1.3,1.3-3,2.1-4.8,2.2l-0.2,0h-6
	c-1.8,0-3.6-0.7-4.9-2c-1.3-1.3-2.1-3-2.1-4.9c0-1.8,0.7-3.6,1.9-4.9c1.3-1.3,3-2.1,4.8-2.2l0.2,0H19.6z M19.6,11.1h-6
	c-1.4,0-2.8,0.6-3.9,1.6c-1,1-1.6,2.4-1.7,3.8c0,1.4,0.5,2.8,1.5,3.9c1,1,2.4,1.7,3.8,1.7l0.2,0h6c1.4,0,2.8-0.6,3.9-1.6
	c1-1,1.6-2.4,1.7-3.8c0-1.4-0.5-2.8-1.5-3.9c-1-1-2.4-1.7-3.8-1.7L19.6,11.1z M12.6,13.6c0.2,0,0.4,0.1,0.5,0.2
	c0.1,0.1,0.2,0.3,0.2,0.5v1.5h1.5c0.2,0,0.4,0.1,0.5,0.2c0.1,0.1,0.2,0.3,0.2,0.5c0,0.2-0.1,0.4-0.2,0.5c-0.1,0.1-0.3,0.2-0.5,0.2
	h-1.5v1.5c0,0.2-0.1,0.4-0.2,0.5c-0.1,0.1-0.3,0.2-0.5,0.2c-0.2,0-0.4-0.1-0.5-0.2c-0.1-0.1-0.2-0.3-0.2-0.5v-1.5h-1.5
	c-0.1,0-0.2,0-0.3-0.1c-0.1,0-0.2-0.1-0.2-0.2c-0.1-0.1-0.1-0.2-0.2-0.2c0-0.1-0.1-0.2-0.1-0.3c0-0.1,0-0.2,0.1-0.3
	c0-0.1,0.1-0.2,0.2-0.2C9.9,16,10,16,10.1,15.9c0.1,0,0.2-0.1,0.3-0.1h1.5v-1.5c0-0.2,0.1-0.4,0.2-0.5
	C12.3,13.7,12.4,13.6,12.6,13.6z M19.4,17.1c0.3,0,0.6,0.1,0.9,0.4c0.2,0.2,0.4,0.6,0.4,0.9s-0.1,0.6-0.4,0.9
	c-0.2,0.2-0.6,0.4-0.9,0.4c-0.3,0-0.6-0.1-0.9-0.4c-0.2-0.2-0.4-0.6-0.4-0.9s0.1-0.6,0.4-0.9C18.7,17.3,19.1,17.1,19.4,17.1z
	 M21.4,13.6c0.3,0,0.6,0.1,0.9,0.4c0.2,0.2,0.4,0.6,0.4,0.9s-0.1,0.6-0.4,0.9c-0.2,0.2-0.6,0.4-0.9,0.4c-0.3,0-0.6-0.1-0.9-0.4
	c-0.2-0.2-0.4-0.6-0.4-0.9s0.1-0.6,0.4-0.9C20.7,13.8,21.1,13.6,21.4,13.6z"/>
</svg>
