<svg width="56" height="56" viewBox="0 0 56 56" xmlns="http://www.w3.org/2000/svg">
	<path class="st0" d="M14.1,0l28,0.1c7.7,0,14,6.3,14,14l-0.1,28c0,7.7-6.3,14-14,14l-28-0.1c-7.7,0-14-6.3-14-14l0.1-28
                            C0.1,6.2,6.4,0,14.1,0z" fill="#6D49FF" />
	<path class="st1"
		d="M33.2,16c3.2,0,6.3,1.2,8.6,3.4c2.3,2.2,3.6,5.2,3.7,8.4c0.1,3.1-1.2,6.2-3.4,8.5c-2.2,2.3-5.3,3.6-8.5,3.7
                        l-0.4,0H22.8c-3.2,0-6.3-1.2-8.6-3.4c-2.3-2.2-3.6-5.2-3.7-8.4c-0.1-3.1,1.2-6.2,3.4-8.5c2.2-2.3,5.3-3.6,8.5-3.7l0.4,0H33.2z
                         M33.2,18.6H22.8c-2.5,0-4.9,1-6.7,2.7c-1.8,1.7-2.8,4.1-2.9,6.6c-0.1,2.5,0.9,4.9,2.6,6.7c1.7,1.8,4.1,2.9,6.6,3l0.4,0h10.5
                        c2.5,0,4.9-1,6.7-2.7c1.8-1.7,2.8-4.1,2.9-6.6c0.1-2.5-0.9-4.9-2.6-6.7c-1.7-1.8-4.1-2.9-6.6-3L33.2,18.6z M21,22.9
                        c0.3,0,0.7,0.1,0.9,0.4c0.2,0.2,0.4,0.6,0.4,0.9v2.6h2.6c0.3,0,0.7,0.1,0.9,0.4c0.2,0.2,0.4,0.6,0.4,0.9c0,0.3-0.1,0.7-0.4,0.9
                        c-0.2,0.2-0.6,0.4-0.9,0.4h-2.6v2.6c0,0.3-0.1,0.7-0.4,0.9c-0.2,0.2-0.6,0.4-0.9,0.4c-0.3,0-0.7-0.1-0.9-0.4
                        c-0.2-0.2-0.4-0.6-0.4-0.9v-2.6h-2.6c-0.2,0-0.3,0-0.5-0.1c-0.2-0.1-0.3-0.2-0.4-0.3c-0.1-0.1-0.2-0.3-0.3-0.4
                        c-0.1-0.2-0.1-0.3-0.1-0.5c0-0.2,0-0.3,0.1-0.5c0.1-0.2,0.2-0.3,0.3-0.4c0.1-0.1,0.3-0.2,0.4-0.3c0.2-0.1,0.3-0.1,0.5-0.1h2.6v-2.6
                        c0-0.3,0.1-0.7,0.4-0.9C20.3,23,20.7,22.9,21,22.9z M32.8,28.9c0.6,0,1.1,0.2,1.5,0.6c0.4,0.4,0.6,0.9,0.6,1.5
                        c0,0.6-0.2,1.1-0.6,1.5c-0.4,0.4-1,0.6-1.5,0.6c-0.6,0-1.1-0.2-1.5-0.6c-0.4-0.4-0.6-0.9-0.6-1.5c0-0.6,0.2-1.1,0.6-1.5
                        C31.7,29.1,32.2,28.9,32.8,28.9z M36.3,22.9c0.6,0,1.1,0.2,1.5,0.6c0.4,0.4,0.6,0.9,0.6,1.5c0,0.6-0.2,1.1-0.6,1.5
                        c-0.4,0.4-1,0.6-1.5,0.6c-0.6,0-1.1-0.2-1.5-0.6c-0.4-0.4-0.6-0.9-0.6-1.5c0-0.6,0.2-1.1,0.6-1.5C35.2,23.1,35.7,22.9,36.3,22.9z"
		fill="white" />
</svg>