<svg width="24" height="24" viewBox="0 0 24 24" fill="none" xmlns="http://www.w3.org/2000/svg">
<g clip-path="url(#clip0_20_1745)">
<path d="M3.15752 5.25187C1.32752 3.42187 0.665649 0.665619 0.665649 0.665619L18.03 18.03L16.9819 19.0781C16.9819 19.0762 4.98752 7.08187 3.15752 5.25187Z" fill="#82AEC0"/>
<path d="M5.2519 3.15749C3.4219 1.32749 0.665649 0.665619 0.665649 0.665619L18.03 18.03L19.0781 16.9819L5.2519 3.15749Z" fill="#C9E3E6"/>
<path d="M18.3919 18.39L19.2131 17.5688L22.0125 20.79L21.7144 21.7144L20.79 22.0125L17.5687 19.2131L18.3919 18.39Z" fill="#874D36"/>
<path d="M18.3919 18.39L19.215 17.5669L22.0144 20.7881C22.0144 20.7881 22.2825 21.1444 21.7162 21.7106C21.15 22.2769 20.7937 22.0087 20.7937 22.0087L17.5687 19.2131L18.3919 18.39Z" fill="#693928"/>
<path d="M20.8894 21.3056C20.8444 21.3338 20.6738 21.4163 20.4638 21.2363C20.3457 21.135 20.3326 21.0225 20.4657 20.9419C20.7582 20.7638 21.1332 20.2969 21.2944 19.9725L21.6863 20.4244C21.4819 20.7694 21.2251 21.1013 20.8894 21.3056ZM20.0738 20.325C20.0288 20.3531 19.8207 20.4619 19.6632 20.3681C19.4401 20.235 19.4794 20.0663 19.6126 19.9856C19.9051 19.8075 20.3232 19.3706 20.5069 19.0631L20.8913 19.5056C20.6551 19.8431 20.4001 20.1263 20.0738 20.325ZM19.0613 19.6106C19.0163 19.6388 18.8382 19.6856 18.6582 19.56C18.5419 19.4775 18.5026 19.2919 18.6357 19.2113C18.9713 19.0088 19.4626 18.4931 19.6894 18.1275L20.0719 18.5681C19.7907 18.9769 19.3763 19.4175 19.0613 19.6106Z" fill="#A65F3E"/>
<path d="M20.7151 22.5937L20.7901 22.0125C20.7901 22.0125 21.0807 22.0144 21.5476 21.5475C22.0144 21.0806 22.0126 20.79 22.0126 20.79L22.5938 20.715C23.0213 20.64 23.3888 21.0225 23.3288 21.4481C23.2707 21.8475 23.0476 22.2994 22.6744 22.6744C22.3013 23.0475 21.8494 23.2706 21.4482 23.3287C21.0244 23.3887 20.6607 23.0194 20.7151 22.5937ZM14.6944 21.045L16.6632 18.6375L17.6513 17.6494L18.6394 16.6612L21.0469 14.6925C21.1632 14.595 21.3338 14.6025 21.4426 14.7094C21.5513 14.8181 21.5569 14.9944 21.4538 15.1106C20.9326 15.6919 19.8826 16.9087 19.4119 17.4094C19.0819 17.7619 18.7369 18.1125 18.4257 18.4219C18.1163 18.7312 17.7638 19.0762 17.4132 19.4081C16.9126 19.8787 15.6957 20.9288 15.1144 21.45C14.9982 21.5531 14.8238 21.5475 14.7132 21.4387C14.6026 21.3319 14.5969 21.1612 14.6944 21.045Z" fill="#9E740B"/>
<path d="M20.8425 5.25187C22.6725 3.42187 23.3343 0.665619 23.3343 0.665619L5.96997 18.03L7.0181 19.0781C7.0181 19.0762 19.0125 7.08187 20.8425 5.25187Z" fill="#82AEC0"/>
<path d="M18.7481 3.15749C20.5781 1.32749 23.3344 0.665619 23.3344 0.665619L5.97 18.03L4.92188 16.9819L18.7481 3.15749Z" fill="#C9E3E6"/>
<path d="M5.60817 18.39L4.78692 17.5688L1.98755 20.79L2.28567 21.7144L3.21005 22.0125L6.4313 19.2131L5.60817 18.39Z" fill="#874D36"/>
<path d="M5.60816 18.39L4.78503 17.5669L1.98753 20.79C1.98753 20.79 1.69878 21.1256 2.28566 21.7125C2.87253 22.2994 3.20816 22.0106 3.20816 22.0106L6.42941 19.2112L5.60816 18.39Z" fill="#693928"/>
<path d="M3.28497 22.5937L3.20997 22.0125C3.20997 22.0125 2.91934 22.0144 2.45247 21.5475C1.98559 21.0806 1.98747 20.79 1.98747 20.79L1.40622 20.715C0.980592 20.6606 0.611217 21.0225 0.671217 21.4481C0.729342 21.8475 0.952467 22.2994 1.32559 22.6744C1.69872 23.0475 2.15059 23.2706 2.55184 23.3287C2.97559 23.3887 3.33934 23.0194 3.28497 22.5937ZM9.30559 21.045L7.33684 18.6375L6.34872 17.6494L5.36059 16.6612L2.95309 14.6925C2.83684 14.595 2.66622 14.6025 2.55747 14.7094C2.44872 14.8181 2.44309 14.9944 2.54622 15.1106C3.06747 15.6919 4.11747 16.9087 4.58809 17.4094C4.91809 17.7619 5.26309 18.1125 5.57434 18.4219C5.88372 18.7312 6.23622 19.0762 6.58684 19.4081C7.08747 19.8787 8.30434 20.9288 8.88559 21.45C9.00184 21.5531 9.17622 21.5475 9.28684 21.4387C9.39747 21.3319 9.40309 21.1612 9.30559 21.045Z" fill="#9E740B"/>
<path d="M0.956225 21.3488C1.03998 21.6729 1.2285 21.9603 1.49248 22.1663C1.86748 22.4625 2.08498 22.2375 1.91623 21.8963C1.77935 21.6225 1.67623 21.4856 1.47185 21.1219C1.27873 20.7788 0.86435 20.9813 0.956225 21.3488ZM3.2756 15.5025C3.11435 15.3131 3.36748 15.2475 3.74623 15.57C4.12498 15.8925 5.71873 17.2538 5.71873 17.2538C6.2306 17.7188 5.97185 18.1988 5.97185 18.1988C5.55748 17.8706 3.43685 15.6919 3.2756 15.5025Z" fill="#E2A610"/>
<path d="M3.10315 21.3056C3.14815 21.3338 3.31877 21.4163 3.52877 21.2363C3.6469 21.135 3.66002 21.0225 3.5269 20.9419C3.2344 20.7638 2.8594 20.2969 2.69815 19.9725L2.30627 20.4244C2.51252 20.7694 2.76752 21.1013 3.10315 21.3056ZM3.92065 20.325C3.96565 20.3531 4.17377 20.4619 4.33127 20.3681C4.5544 20.235 4.51502 20.0663 4.3819 19.9856C4.0894 19.8075 3.67127 19.3706 3.48752 19.0631L3.10315 19.5056C3.33752 19.8431 3.5944 20.1263 3.92065 20.325ZM4.93127 19.6106C4.97627 19.6388 5.1544 19.6856 5.3344 19.56C5.45065 19.4775 5.49002 19.2919 5.3569 19.2113C5.02127 19.0088 4.53002 18.4931 4.30315 18.1275L3.92065 18.5681C4.2019 18.9769 4.61627 19.4175 4.93127 19.6106Z" fill="#A65F3E"/>
<path d="M12 14.0944L13.0444 15.1406L14.7994 12.705L14.0944 12L12 14.0944Z" fill="#2F7889"/>
<path d="M19.1738 16.4681C18.8213 16.7606 19.4494 16.8563 19.8882 16.4138L20.7694 15.5381C20.9888 15.315 20.9888 14.9325 20.5819 15.2513L19.1738 16.4681ZM22.2657 21.5513C22.14 21.7463 22.1944 21.9394 22.3988 21.9413C22.545 21.9431 22.7025 21.8344 22.7757 21.7613C22.8825 21.6544 22.9594 21.5681 23.0119 21.3488C23.0813 21.0544 22.7625 20.7581 22.575 21.0413C22.4082 21.2925 22.3913 21.3581 22.2657 21.5513Z" fill="#E2A610"/>
</g>
<defs>
<clipPath id="clip0_20_1745">
<rect width="24" height="24" fill="white"/>
</clipPath>
</defs>
</svg>
