<svg width="24" height="24" viewBox="0 0 24 24" fill="none" xmlns="http://www.w3.org/2000/svg">
<g clip-path="url(#clip0_20_1776)">
<path d="M22.5506 1.44187C22.1044 0.995625 21.51 0.75 20.88 0.75C20.25 0.75 19.6556 0.995625 19.2094 1.44187C18.2888 2.36437 18.2888 3.86438 19.2094 4.78688C19.6556 5.23313 20.25 5.47875 20.88 5.47875C21.5119 5.47875 22.1044 5.23313 22.5525 4.78688C23.4731 3.86438 23.4731 2.36437 22.5506 1.44187ZM19.9463 2.18062C20.1956 1.93125 20.5275 1.79437 20.8781 1.79437C21.2288 1.79437 21.5625 1.93125 21.8119 2.18062C22.3275 2.69625 22.3275 3.53437 21.8119 4.04813C21.6895 4.17101 21.5439 4.26841 21.3837 4.33471C21.2234 4.40101 21.0516 4.43488 20.8781 4.43437C20.5256 4.43437 20.1938 4.2975 19.9463 4.04813C19.4325 3.53437 19.4325 2.69625 19.9463 2.18062Z" fill="#E2A610"/>
<path d="M19.7831 5.80312L18.1949 4.21312L19.3274 3.07875C19.4484 2.95807 19.6122 2.89029 19.7831 2.89029C19.9539 2.89029 20.1178 2.95807 20.2387 3.07875L20.9174 3.7575C21.038 3.8781 21.1057 4.04165 21.1057 4.21218C21.1057 4.38272 21.038 4.54627 20.9174 4.66687L19.7831 5.80312Z" fill="#FFCA28"/>
<path d="M20.1918 5.3925C20.1918 5.3925 20.4412 4.89188 19.7718 4.2225C19.1024 3.55313 18.5962 3.81 18.5962 3.81L18.1949 4.21313L19.7831 5.80313L20.1918 5.3925Z" fill="#E2A610"/>
<path d="M11.6943 23.25C17.7346 23.25 22.6312 18.35 22.6312 12.3056C22.6312 6.2612 17.7346 1.36124 11.6943 1.36124C5.65405 1.36124 0.757446 6.2612 0.757446 12.3056C0.757446 18.35 5.65405 23.25 11.6943 23.25Z" fill="#FFCA28"/>
<path d="M11.6944 21.1781C16.5914 21.1781 20.5613 17.2058 20.5613 12.3056C20.5613 7.40549 16.5914 3.43314 11.6944 3.43314C6.79735 3.43314 2.82751 7.40549 2.82751 12.3056C2.82751 17.2058 6.79735 21.1781 11.6944 21.1781Z" fill="white"/>
<path d="M12.8962 13.5094L11.6943 18.705L10.4925 13.5094L5.29871 12.3056L10.4925 11.1038L11.6943 5.90625L12.8962 11.1038L18.09 12.3056L12.8962 13.5094Z" fill="#E0C3AB"/>
<path d="M13.3931 12.3056L16.2169 16.8319L11.6944 14.0062L7.17188 16.8319L9.99563 12.3056L7.17188 7.78125L11.6944 10.605L16.2169 7.78125L13.3931 12.3056Z" fill="#B2947C"/>
<path opacity="0.32" d="M9.45943 16.3012C9.45943 16.3012 11.8632 14.5969 12.7744 13.6856C13.6876 12.7762 15.6113 10.1006 15.6113 10.1006C16.1269 9.52874 16.7063 8.08312 16.8676 7.66312C16.8844 7.61812 16.8413 7.57312 16.7963 7.58999C16.4288 7.73062 15.2644 8.18999 14.4526 8.70749C13.4382 9.35624 11.6232 10.8394 10.7776 11.685C9.93193 12.5306 8.83318 14.16 8.2088 15.0469C7.68755 15.7894 7.03505 17.1694 6.83818 17.5987C6.81568 17.6456 6.86443 17.6944 6.9113 17.6737C7.3538 17.4881 8.78818 16.8562 9.45943 16.3012Z" fill="#212121"/>
<path d="M15.4988 9.83624C16.0351 9.15187 16.5432 7.80374 16.6932 7.38562C16.7119 7.33499 16.6632 7.28624 16.6107 7.30312C16.1926 7.45312 14.8463 7.96312 14.1619 8.49937C13.3463 9.13874 10.6332 11.3681 10.6332 11.3681L12.6301 13.3669C12.6319 13.3669 14.8594 10.6519 15.4988 9.83624Z" fill="#F44336"/>
<path d="M7.76439 14.9025C7.22814 15.5869 6.72001 16.935 6.57001 17.3531C6.55126 17.4038 6.60001 17.4525 6.65251 17.4356C7.07064 17.2856 8.41689 16.7756 9.10126 16.2394C9.91689 15.6 12.63 13.3706 12.63 13.3706L10.6313 11.3719C10.6313 11.3719 8.40376 14.085 7.76439 14.9025Z" fill="#2F7889"/>
<path d="M11.6306 13.7906C12.4135 13.7906 13.0481 13.1551 13.0481 12.3712C13.0481 11.5874 12.4135 10.9519 11.6306 10.9519C10.8478 10.9519 10.2131 11.5874 10.2131 12.3712C10.2131 13.1551 10.8478 13.7906 11.6306 13.7906Z" fill="#94D1E0"/>
<path d="M16.9613 7.03499C16.8406 6.91406 16.7728 6.7502 16.7728 6.57936C16.7728 6.40852 16.8406 6.24466 16.9613 6.12374L17.6288 5.45624L18.54 6.36749L17.8744 7.03499C17.8146 7.09516 17.7434 7.14291 17.6651 7.17549C17.5867 7.20808 17.5027 7.22485 17.4178 7.22485C17.333 7.22485 17.249 7.20808 17.1706 7.17549C17.0923 7.14291 17.0211 7.09516 16.9613 7.03499Z" fill="#F44336"/>
<path d="M6.4275 17.5763C6.54818 17.6972 6.61596 17.861 6.61596 18.0319C6.61596 18.2027 6.54818 18.3666 6.4275 18.4875L5.76 19.155L4.84875 18.2438L5.51438 17.5763C5.63562 17.4555 5.79979 17.3876 5.97094 17.3876C6.14209 17.3876 6.30626 17.4555 6.4275 17.5763Z" fill="#B2947C"/>
<path d="M19.1438 12.3056C19.1438 11.9494 19.4325 11.6606 19.7888 11.6606H20.73V12.9506H19.7888C19.6177 12.9506 19.4536 12.8827 19.3327 12.7617C19.2117 12.6407 19.1438 12.4767 19.1438 12.3056ZM4.24689 12.3056C4.24689 12.6619 3.95814 12.9506 3.60189 12.9506H2.66064V11.6606H3.60189C3.95814 11.6606 4.24689 11.9494 4.24689 12.3056Z" fill="#E0C3AB"/>
<path d="M16.9612 17.5762C17.0821 17.4556 17.246 17.3878 17.4168 17.3878C17.5877 17.3878 17.7515 17.4556 17.8725 17.5762L18.5381 18.2437L17.6268 19.155L16.9593 18.4875C16.8394 18.3661 16.7722 18.2022 16.7726 18.0315C16.7729 17.8608 16.8407 17.6972 16.9612 17.5762ZM6.42746 7.03499C6.30654 7.15567 6.14268 7.22345 5.97184 7.22345C5.801 7.22345 5.63713 7.15567 5.51621 7.03499L4.85059 6.36749L5.76184 5.45624L6.42934 6.12374C6.54931 6.24515 6.61644 6.40906 6.61609 6.57975C6.61574 6.75044 6.54793 6.91407 6.42746 7.03499Z" fill="#B2947C"/>
<path d="M11.6943 19.7587C12.0506 19.7587 12.3393 20.0475 12.3393 20.4037V21.3469H11.0512V20.4037C11.0508 20.3191 11.0672 20.2352 11.0994 20.1569C11.1315 20.0786 11.1788 20.0074 11.2386 19.9475C11.2984 19.8876 11.3694 19.84 11.4476 19.8076C11.5258 19.7752 11.6097 19.7586 11.6943 19.7587ZM11.6943 4.8525C11.5233 4.8525 11.3592 4.78454 11.2382 4.66358C11.1173 4.54262 11.0493 4.37856 11.0493 4.2075V3.26437H12.3374V4.2075C12.3393 4.56375 12.0506 4.8525 11.6943 4.8525Z" fill="#E0C3AB"/>
<path d="M11.6944 21.1781C16.5914 21.1781 20.5613 17.2058 20.5613 12.3056C20.5613 7.40549 16.5914 3.43314 11.6944 3.43314C6.79735 3.43314 2.82751 7.40549 2.82751 12.3056C2.82751 17.2058 6.79735 21.1781 11.6944 21.1781Z" stroke="#E2A610" stroke-width="0.5625" stroke-miterlimit="10"/>
<path d="M1.63495 12.1725C1.63495 12.1725 1.23745 10.1587 2.29682 7.66499C3.86057 3.98624 7.23745 1.96124 10.8693 1.80374C13.5937 1.68561 15.1649 2.58374 15.1649 2.58374C15.1649 2.58374 12.9487 2.40186 11.4206 2.46936C7.73432 2.63249 5.17307 4.31436 3.41807 7.19061C1.97432 9.56061 1.63495 12.1725 1.63495 12.1725Z" fill="#FFF59D"/>
</g>
<defs>
<clipPath id="clip0_20_1776">
<rect width="24" height="24" fill="white"/>
</clipPath>
</defs>
</svg>
