<svg width="24" height="24" viewBox="0 0 24 24" fill="none" xmlns="http://www.w3.org/2000/svg">
<g clip-path="url(#clip0_20_1795)">
<path d="M4.18311 20.2913C4.18311 20.2913 7.78686 24.0825 13.9687 23.1206C20.1506 22.1606 22.6294 16.74 23.1394 13.65C23.7881 9.71439 21.99 7.00876 21.8944 6.86064C21.8231 6.75189 4.18311 20.2913 4.18311 20.2913Z" fill="#DC5819"/>
<path d="M3.90186 4.03313C0.19873 7.93125 -0.429394 13.6256 2.35498 18.0263C3.65061 20.0738 4.44373 20.49 4.44373 20.49C4.44373 20.49 10.5019 24.375 17.31 18.4856C23.1412 13.4419 21.9056 6.87375 21.9056 6.87375C21.9056 6.87375 21.1781 5.28375 19.6481 3.77438C16.2525 0.421877 8.66248 -0.980623 3.90186 4.03313Z" fill="#EF6C32"/>
<path d="M18.7444 3.0075C18.69 3.01125 13.2731 3.40125 7.54312 11.1038C3.92437 15.9675 4.10249 19.4006 4.24312 20.3419C4.24312 20.3419 3.96749 20.115 3.77249 19.905C3.57749 19.6969 3.42562 19.5112 3.42562 19.5112C3.41062 17.8631 3.90374 14.7394 6.94312 10.6556C11.5687 4.4325 15.9919 2.81063 17.8462 2.39062C17.8462 2.39062 18.0731 2.52375 18.2925 2.66062C18.4537 2.76187 18.7444 3.0075 18.7444 3.0075Z" fill="#2D3130"/>
<path d="M2.91938 5.20874C3.52126 6.19687 4.97438 8.33249 7.49063 10.5619C10.6575 13.3706 13.95 15.6544 17.2725 17.3475C18.8419 18.1481 20.0475 18.6169 20.9006 18.8925C20.9006 18.8925 20.7769 19.0819 20.6606 19.2375C20.5444 19.3931 20.4169 19.5244 20.4169 19.5244C19.5488 19.23 18.39 18.7612 16.9294 18.015C13.5506 16.2919 10.2056 13.9725 6.99188 11.1225C4.61063 9.01124 3.16688 7.01249 2.45813 5.89312C2.45813 5.89312 2.5575 5.69624 2.68875 5.52187C2.82 5.34749 2.91938 5.20874 2.91938 5.20874Z" fill="#2D3130"/>
<path d="M9.97127 0.894379C9.70315 1.2 9.32065 1.69688 8.8744 2.44875C8.46565 3.135 8.25565 3.8175 8.0119 4.60875C7.61252 5.90625 7.16065 7.37625 5.68127 9.255C3.62627 11.865 1.6069 12.7369 0.665648 13.0163C0.665648 13.0163 0.639398 12.7725 0.630023 12.6019C0.620648 12.4313 0.624398 12.2381 0.624398 12.2381C1.51877 11.9325 3.28877 11.0775 5.09065 8.79188C6.48377 7.02188 6.91315 5.62313 7.29377 4.38938C7.54127 3.58688 7.77377 2.82938 8.2294 2.06625C8.44502 1.70438 8.64752 1.395 8.83315 1.13625C8.83315 1.13625 9.04127 1.06688 9.32627 1.00313C9.54752 0.950629 9.97127 0.894379 9.97127 0.894379ZM12.885 23.2519C12.2569 22.6838 10.9594 21.3863 10.0125 19.5806C8.9644 17.5838 8.47315 14.58 9.8719 12.7031C11.4694 10.5619 14.4525 10.2713 17.1638 10.2713H17.175C20.6269 10.2731 23.2238 10.995 23.2538 11.0044C23.2538 11.0044 23.2331 10.7513 23.205 10.5356C23.1806 10.35 23.1544 10.1775 23.1544 10.1775C23.0231 10.1438 20.7281 9.52313 17.175 9.52125H17.1638C14.2669 9.52125 11.0644 9.8475 9.27002 12.255C8.11502 13.8038 7.69127 16.7775 9.34877 19.9294C10.1288 21.4144 11.1113 22.56 11.8294 23.2819C11.8294 23.2819 12.0394 23.2894 12.3075 23.2856C12.5719 23.2819 12.885 23.2519 12.885 23.2519Z" fill="#2D3130"/>
</g>
<defs>
<clipPath id="clip0_20_1795">
<rect width="24" height="24" fill="white"/>
</clipPath>
</defs>
</svg>
