<svg width="24" height="24" viewBox="0 0 24 24" fill="none" xmlns="http://www.w3.org/2000/svg">
<path d="M10.6519 15.9919L14.7506 16.0238C14.7506 16.0238 14.4244 17.0831 14.1544 17.4994C13.7137 18.1744 13.4944 18.5194 13.3069 19.2113C13.0162 20.2763 13.0406 21.0956 13.0406 21.0956C13.0406 21.0956 13.2675 21.0169 13.5431 21.0956C13.8787 21.1913 14.0606 21.4144 14.0306 21.5513C14.0025 21.6731 13.6294 21.5906 13.3706 21.8494C13.1662 22.0538 13.0875 22.4156 13.0556 22.65C13.0237 22.8863 12.9919 23.1844 12.5531 23.2463C12.1125 23.31 11.4544 23.3569 11.3119 23.1356C11.1712 22.9163 11.2481 19.0838 11.2481 19.0838L10.6519 15.9919Z" fill="#307D31"/>
<path d="M10.605 15.1425C10.5262 15.2831 8.66998 15.6169 8.66998 15.6169C8.66998 15.6169 8.04935 15.9487 7.81498 17.0325C7.68748 17.6194 7.7156 18.8081 7.60498 19.2244C7.44748 19.8206 6.78748 20.1675 6.81935 20.3081C6.85123 20.4487 7.42685 20.4394 7.87123 20.2444C8.87623 19.8037 9.05248 18.8925 9.37873 18.1087C9.69373 17.355 10.29 16.9594 10.29 16.9594C10.29 16.9594 10.1494 17.5069 10.2094 18.1106C10.26 18.63 10.4231 19.2919 10.2094 19.935C10.005 20.5481 9.7181 20.9175 9.83248 20.9737C9.91873 21.015 10.9425 20.9119 11.3512 20.0156C11.8031 19.0256 11.835 18.2137 12.105 17.6325C12.4031 16.9894 12.9712 16.7156 12.9712 16.7156C12.9712 16.7156 13.3744 16.9519 13.8675 17.6419C14.4169 18.4106 14.8762 19.0575 15.1725 19.455C15.8662 20.3887 16.8281 20.6831 16.8581 20.5256C16.905 20.2744 16.395 19.8712 16.2919 19.38C16.0387 18.1706 16.3856 17.5912 16.0987 16.6631C15.6862 15.3225 14.7131 15.2981 14.3756 15.2344C14.2969 15.2231 10.605 15.1425 10.605 15.1425Z" fill="#5C9823"/>
<path d="M8.87061 8.31374C8.65874 8.12437 5.51999 5.83687 5.51999 5.83687L5.47311 4.44562C5.47311 4.44562 4.70436 2.99249 5.58936 1.91062C6.35811 0.971243 7.38374 1.23749 7.38374 1.23749C7.38374 1.23749 7.89749 0.590618 8.79374 0.545618C9.93936 0.487493 10.4981 1.45124 10.4981 1.45124L15.6637 2.30062L18.5644 4.18687C18.5644 4.18687 18.9937 4.04812 19.35 4.29937C19.7212 4.55999 19.5994 5.10749 19.5581 5.35312C19.5187 5.58749 15.6862 8.64562 15.6862 8.64562L16.0875 14.6381L14.7487 16.1325C14.7487 16.1325 14.5612 16.3162 14.1769 16.365C13.9537 16.3931 13.6669 16.3031 13.6669 16.3031L12.8325 13.9069L8.87061 8.31374Z" fill="#96010C"/>
<path d="M15.5906 1.28624L14.8931 1.33874L14.4037 1.74937L14.5781 2.53874C14.5781 2.53874 14.6006 3.12937 14.1356 3.4125C13.6706 3.69562 12.7575 4.16062 12.7575 4.16062L12.1275 5.20312C12.1275 5.20312 11.7225 5.06999 11.0625 4.73062C10.4456 4.41187 9.65623 3.68437 9.65623 3.68437L8.24435 3.58874C8.24435 3.58874 7.97435 3.56437 7.74748 3.80437C7.42123 4.15312 7.53748 4.89187 8.17685 5.56875C8.79185 6.21937 10.1231 7.0125 10.4194 7.23187C10.7156 7.45124 11.1675 7.73249 11.4244 7.87687C11.6719 8.01562 11.9681 8.21437 12.0975 8.19C12.2269 8.16375 12.4181 7.72312 13.0237 7.29749C13.6294 6.87187 14.2219 6.51187 15.1894 6.17624C16.1569 5.84062 17.085 5.45437 17.3681 5.27437C17.6512 5.09437 17.265 3.86999 16.9162 3.12187C16.5675 2.37374 15.615 1.20937 15.5906 1.28624Z" fill="#AF0C1B"/>
<path d="M12.2007 4.49626C11.9625 4.81126 12.0075 5.17876 12.0075 5.17876C12.0075 5.17876 12.5269 5.49001 13.0388 5.66813C13.9669 5.99063 16.0557 5.90063 17.0607 5.44876C18.0657 4.99688 18.5569 4.60688 18.7107 4.13438C18.8907 3.57938 19.0407 2.45813 17.9607 1.59376C16.7232 0.601882 14.8557 1.14376 14.8557 1.40251C14.8557 1.66126 15.6038 1.45501 15.6038 2.39438C15.6038 3.33376 14.7788 3.90188 13.9407 4.01813C13.1025 4.13438 12.5607 4.01813 12.2007 4.49626Z" fill="#DB132C"/>
<path d="M7.92002 3.68438C7.92002 3.68438 7.82439 3.30563 8.13939 3.00188C8.61564 2.53688 9.22314 2.29313 9.57002 1.91813C9.91689 1.54313 10.41 0.832508 11.6194 0.667508C13.4119 0.421883 14.5706 1.09313 14.8294 1.91813C15.0881 2.74313 14.5969 3.02626 14.0944 3.03938C13.5919 3.05251 13.3125 2.81626 12.3919 2.97563C10.8319 3.24563 10.29 4.08376 10.1494 4.16251C10.0069 4.23938 9.54377 3.96938 8.91189 3.80063C8.45627 3.67876 8.12627 3.70876 7.92002 3.68438Z" fill="#F71538"/>
<path d="M13.0537 9.07125C13.0537 9.07125 13.3725 8.01187 14.4131 7.34062C15.4556 6.66937 16.215 6.6525 17.5406 6.05062C18.8662 5.44875 19.3237 5.05312 19.5356 4.91437C19.7531 4.77187 19.95 4.6425 20.1018 4.89187C20.1993 5.05312 20.0306 5.71312 19.5825 6.35437C19.125 7.00875 18.675 7.36875 18.3337 8.49562C17.8818 9.9825 18.75 11.3344 17.8237 13.7231C17.5237 14.4956 16.8206 15.2025 16.1662 15.6619C15.5118 16.1212 14.5687 16.2244 14.5687 16.2244C14.5687 16.2244 14.9043 15.99 15.0881 15.1275C15.1781 14.7037 15.3131 13.9519 15.21 13.1512C14.9156 10.8619 13.0537 9.07125 13.0537 9.07125Z" fill="#CD0E1F"/>
<path d="M5.95126 8.7525C5.97376 9.255 5.73751 11.0831 6.04313 12.5512C6.28313 13.7062 7.47188 15.7481 9.69751 16.3481C11.745 16.9012 13.9369 16.3312 13.9369 16.3312C13.9369 16.3312 14.7638 14.9344 14.3456 12.8981C13.89 10.6781 11.6719 9.02812 9.11438 7.76437C6.04126 6.24562 5.48438 4.41562 5.48438 4.41562C5.48438 4.41562 4.47376 4.15125 4.22063 5.06062C3.83251 6.45562 5.91751 7.99312 5.95126 8.7525Z" fill="#E2122D"/>
</svg>
