<svg width="24" height="24" viewBox="0 0 24 24" fill="none" xmlns="http://www.w3.org/2000/svg">
<path d="M18.465 18.4819L13.5637 17.4169L13.6331 17.0906L18.5531 18.1181L18.465 18.4819ZM13.5 20.3081L13.4531 19.9838L18.7313 18.8981L18.8081 19.2656L13.5 20.3081Z" fill="#B9BABA"/>
<path d="M13.1943 17.0831C12.2043 17.0362 11.4787 18.0525 11.5612 18.8719C11.6475 19.7231 12.27 20.3494 13.2281 20.3306C14.1318 20.3137 14.7562 19.6875 14.7731 18.7331C14.79 17.7787 14.2875 17.1356 13.1943 17.0831ZM13.6631 19.4812C13.2281 19.7062 12.6975 19.56 12.4481 19.0987C12.2231 18.6825 12.4818 18.0506 12.9337 17.9006C13.35 17.7619 13.7737 17.9362 13.9931 18.2831C14.235 18.6637 14.1318 19.2375 13.6631 19.4812Z" fill="#858587"/>
<path d="M18.9547 18.0881L19.6667 14.91L19.8497 14.9509L19.1377 18.129L18.9547 18.0881ZM19.0106 18.4556L21.2137 15.6881L21.36 15.8044L19.6387 17.97L22.2206 16.8094L22.2975 16.98L19.0106 18.4556ZM22.4587 20.0325L19.0462 18.7256L22.6237 18.1444L22.6537 18.33L19.7625 18.7987L22.5244 19.8581L22.4587 20.0325ZM18.6375 18L18.0675 14.9194L18.2531 14.8912L18.8231 17.9719L18.6375 18ZM16.1488 15.9802L16.2907 15.8578L18.3645 18.261L18.2227 18.3836L16.1488 15.9802ZM15.9712 21.2887L15.8587 21.1387L15.915 21.2137L15.855 21.1425C15.9281 21.0769 17.6362 19.3369 18.2887 18.6731L18.4219 18.8044C17.7019 19.5375 16.02 21.2512 15.9712 21.2887ZM18.4455 19.1287L18.6311 19.1036L19.1062 22.5812L18.9206 22.6067L18.4455 19.1287Z" fill="#B9BABA"/>
<path d="M17.3999 22.3931L17.2368 22.3031L18.9599 19.1456L21.7312 21.225L21.6187 21.375L19.0199 19.4269L17.3999 22.3931Z" fill="#B9BABA"/>
<path d="M19.2313 19.0288L19.4061 18.9609L20.6509 22.1584L20.4761 22.2264L19.2313 19.0288Z" fill="#B9BABA"/>
<path d="M18.8738 19.395C19.2963 19.395 19.6388 19.0625 19.6388 18.6525C19.6388 18.2424 19.2963 17.91 18.8738 17.91C18.4513 17.91 18.1088 18.2424 18.1088 18.6525C18.1088 19.0625 18.4513 19.395 18.8738 19.395Z" fill="#C9C8C8"/>
<path d="M18.7819 14.0812C16.1812 14.1094 14.28 16.0519 14.205 18.615C14.1319 21.0712 16.08 23.2125 18.6806 23.295C21.4594 23.3831 23.5087 21.2306 23.4487 18.6656C23.3887 16.1719 21.4444 14.0512 18.7819 14.0812ZM18.6862 22.605C16.4569 22.5337 14.7862 20.7 14.85 18.5925C14.9156 16.395 16.545 14.73 18.7744 14.7056C21.0562 14.6812 22.7231 16.4981 22.7737 18.6356C22.8244 20.835 21.0694 22.68 18.6862 22.605Z" fill="#484D50"/>
<path d="M18.8026 14.6063C16.4982 14.6325 14.8144 16.3519 14.7469 18.6206C14.6813 20.7956 16.4082 22.6913 18.7107 22.7644C21.1726 22.8413 22.9876 20.9363 22.9332 18.6656C22.8826 16.4588 21.1594 14.5819 18.8026 14.6063ZM18.6957 22.425C16.5844 22.3594 15.0863 20.625 15.1463 18.6488C15.2082 16.5863 16.6463 15.0769 18.7594 15.0544C20.9213 15.03 22.5769 16.7363 22.5488 18.7444C22.5188 20.7413 20.9532 22.4963 18.6957 22.425Z" fill="#C9C9C9"/>
<path d="M4.48743 22.5694L5.29424 18.8687L5.4958 18.9126L4.68899 22.6132L4.48743 22.5694ZM5.44743 18.5814L8.72436 17.3231L8.79824 17.5157L5.52168 18.774L5.44743 18.5814Z" fill="#B9BABA"/>
<path d="M7.72496 21.5644L5.25371 18.4838L4.36121 14.9044L4.56183 14.8557L5.44308 18.39L7.88621 21.435L7.72496 21.5644Z" fill="#B9BABA"/>
<path d="M5.0644 18.4819L4.88627 18.4012L6.05627 14.9644L6.25315 15.0262L5.0644 18.4819ZM5.21627 18.5276L7.93221 15.9802L8.0734 16.1306L5.35727 18.678L5.21627 18.5276ZM1.74659 16.6451L1.8484 16.4659L4.94215 18.225L4.84015 18.4042L1.74659 16.6451ZM3.19502 22.0912L3.01127 22.0012L4.6069 18.765L1.22815 17.9756L1.27502 17.775L4.9069 18.6225L3.19502 22.0912Z" fill="#B9BABA"/>
<path d="M1.28062 19.7344L1.22437 19.5356L4.86749 18.4988L2.96249 15.4613L3.13687 15.3506L5.18812 18.6206L1.28062 19.7344ZM2.02124 21.2381L1.90874 21.0638L5.08686 19.0088L8.72437 19.9144L8.67562 20.1131L5.12437 19.23L2.02124 21.2381Z" fill="#B9BABA"/>
<path d="M4.82849 19.1299L5.01787 19.0481L6.4588 22.3858L6.26943 22.4676L4.82849 19.1299ZM5.71687 18.462L5.73805 18.2569L8.9533 18.5905L8.93193 18.7956L5.71687 18.462Z" fill="#B9BABA"/>
<path d="M5.11122 14.0944C2.51059 14.1225 0.611216 16.065 0.534341 18.6281C0.461216 21.0844 2.40934 23.2256 5.00997 23.3081C7.78872 23.3962 9.83809 21.2437 9.77809 18.6787C9.71997 16.185 7.77372 14.0644 5.11122 14.0944ZM5.01559 22.6181C2.78622 22.5469 1.11559 20.7131 1.17934 18.6056C1.24497 16.4081 2.87434 14.7431 5.10372 14.7187C7.38559 14.6944 9.05247 16.5112 9.10309 18.6487C9.15559 20.8481 7.39872 22.6931 5.01559 22.6181Z" fill="#484D50"/>
<path d="M5.13185 14.6194C2.82748 14.6456 1.1456 16.365 1.0781 18.6356C1.01248 20.8106 2.73935 22.7063 5.04185 22.7794C7.50373 22.8563 9.31873 20.9513 9.26435 18.6806C9.21185 16.4719 7.4906 14.595 5.13185 14.6194ZM5.02685 22.4381C2.9156 22.3725 1.41748 20.6381 1.47748 18.6619C1.53935 16.5994 2.97748 15.09 5.0906 15.0675C7.25248 15.0431 8.9081 16.7494 8.87998 18.7575C8.8481 20.7544 7.28248 22.5094 5.02685 22.4381ZM9.01873 9.97688C9.01873 9.97688 9.28685 9.34688 9.2981 9.19313C9.30935 9.03751 9.2531 8.86126 8.99435 8.85188C8.7356 8.84063 8.20123 8.82188 8.20123 8.82188L7.67623 7.77188L7.31623 7.20188C7.31623 7.20188 7.0481 7.10813 6.87185 7.26376C6.6956 7.41938 6.65435 7.59376 6.7781 7.83188C6.90185 8.07001 7.5206 9.38063 7.66498 9.42188C7.80935 9.46313 8.40748 9.43313 8.44873 9.45376C8.48998 9.47438 8.2631 9.92813 8.2631 9.92813L9.01873 9.97688Z" fill="#C9C9C9"/>
<path d="M16.9031 10.3275L15.9994 10.8825L15.3431 10.5075C15.3431 10.5075 15.0131 10.2525 14.7731 10.1643C14.4788 10.0556 14.0756 10.11 13.8806 9.8306C13.7288 9.61497 16.5713 9.53247 16.5713 9.53247L16.9031 10.3275Z" fill="#B3B3B3"/>
<path d="M14.3531 9.1669C13.8675 9.20065 13.65 9.21752 13.5994 9.41815C13.545 9.63377 13.965 9.9394 14.1469 10.0275C14.3363 10.1194 15.2531 9.84377 15.3844 9.8719C15.7669 9.9544 16.3444 10.4494 16.6425 10.4606C16.9425 10.4719 17.8313 9.77065 17.9119 9.7069C18.0563 9.59252 18.1088 9.19127 17.6531 9.15002C17.2013 9.11065 14.7356 9.14065 14.3531 9.1669ZM7.38001 7.01815C7.11564 7.03315 7.16626 7.56002 7.25439 7.70627C7.37814 7.91252 7.55439 8.07752 7.86376 8.08877C8.17314 8.10002 10.7531 7.95377 10.95 7.92377C11.1469 7.8919 11.145 7.62752 11.0719 7.35565C11.025 7.18502 10.8675 6.88502 10.6725 6.87002C10.395 6.8494 7.68189 7.00127 7.38001 7.01815Z" fill="#5E6268"/>
<path d="M18.9863 18.3244L15.8382 11.9681L16.0444 10.8638L15.1688 10.7813C15.1688 10.7813 15.0113 11.6306 14.9701 11.6606C14.9288 11.6925 8.78068 11.5556 8.78068 11.5556L9.10505 10.4588L8.20318 10.3481C8.10943 10.6369 6.48943 16.2413 6.09755 16.9313C5.70568 17.6231 5.28193 18.2588 5.28193 18.2588C5.28193 18.2588 5.11505 18.1725 4.9238 18.24C4.77568 18.2925 4.51693 18.4706 4.5938 18.8419C4.65568 19.1419 4.98755 19.3275 5.25943 19.2356C5.67193 19.095 5.63068 18.705 5.63068 18.705C5.63068 18.705 6.60755 17.7731 6.94505 17.22C7.2788 16.6706 8.0138 14.0231 8.03255 14.025C8.1038 14.0325 12.8869 19.3031 13.0444 19.3538C13.1682 19.395 18.7932 18.9713 18.7932 18.9713L19.1138 18.7238L18.9863 18.3244ZM12.9338 17.9006C12.9338 17.9006 8.33068 13.0556 8.36255 12.96C8.3663 12.9488 8.4788 12.54 8.49193 12.5213C8.52943 12.4669 14.6532 12.66 14.6532 12.66L12.9338 17.9006ZM13.6613 18.51L15.4463 12.9375L18.2438 18.3038L13.6613 18.51Z" fill="#67A6AD"/>
<path d="M5.06628 18.4163C5.01753 18.4238 4.76253 18.675 4.76816 18.7781C4.77191 18.8831 5.04378 19.0763 5.12628 19.0819C5.20691 19.0856 5.43003 18.8006 5.43003 18.7331C5.42816 18.6656 5.12816 18.4069 5.06628 18.4163ZM18.7725 18.2925C18.72 18.3225 18.5475 18.5663 18.5419 18.6394C18.5363 18.7125 18.6657 18.9863 18.7107 19.0031C18.7557 19.02 19.0125 19.0256 19.08 19.0088C19.1475 18.9919 19.305 18.7463 19.305 18.6788C19.305 18.6113 19.2094 18.405 19.17 18.3544C19.1307 18.3038 18.8119 18.27 18.7725 18.2925Z" fill="#626168"/>
<path d="M14.9606 10.4888C14.895 10.5431 14.8125 11.0288 14.97 11.0381C15.1275 11.0475 16.0387 11.0681 16.0987 11.0381C16.1587 11.0081 16.1681 10.5863 16.1175 10.5281C16.0669 10.47 15.0187 10.4381 14.9606 10.4888Z" fill="#C9C9C9"/>
<path d="M8.12067 9.73312C8.01192 9.7725 7.78692 10.4494 7.83567 10.5281C7.88442 10.6069 9.26817 10.7644 9.33755 10.7531C9.40692 10.7437 9.58317 9.98812 9.53442 9.92812C9.48567 9.86812 8.22005 9.69562 8.12067 9.73312ZM11.235 19.9875C11.235 19.9875 12.5063 18.7425 12.6525 18.6075C12.7725 18.4969 12.8925 18.3412 13.1082 18.3675C13.3238 18.3937 13.3875 18.5325 13.3875 18.5325L13.1513 19.1156L11.7169 20.3419L11.5388 21.0881L10.2544 20.7919C10.2544 20.7919 10.2525 20.3606 10.2544 20.2537C10.2563 20.1356 10.23 20.0081 10.5019 20.0081C10.7738 20.0081 11.235 19.9875 11.235 19.9875Z" fill="#B3B3B3"/>
<path d="M11.505 20.2687C11.475 20.3137 11.4975 20.6793 11.475 20.745C11.4525 20.8125 11.1188 20.7825 10.9444 20.79C10.7325 20.7993 10.2544 20.79 10.2544 20.79C10.2544 20.79 10.2544 21.0937 10.2619 21.1612C10.2694 21.2287 10.3219 21.3356 10.5506 21.3356C10.7794 21.3356 11.5294 21.3056 11.6513 21.2981C11.7731 21.2906 11.9025 21.1875 11.9006 20.9793C11.8988 20.82 11.9025 20.4975 11.9025 20.4975C11.9025 20.4975 13.1681 19.2806 13.305 19.1606C13.4419 19.0387 13.5281 18.9712 13.5169 18.7893C13.5094 18.6675 13.3894 18.5325 13.3894 18.5325L11.505 20.2687Z" fill="#858587"/>
</svg>
