<svg width="24" height="24" viewBox="0 0 24 24" fill="none" xmlns="http://www.w3.org/2000/svg">
<path d="M3.90938 18.1875C3.8325 18.2138 0.628129 19.1944 0.628129 19.1944C0.628129 19.1944 0.412504 18.1988 0.609379 17.1863C0.817504 16.1138 1.08938 15.4763 1.08938 15.4763C1.08938 15.4763 1.38563 14.7544 2.3025 14.1619C3.07313 13.6631 4.83938 13.1344 5.24625 12.8756C5.51625 12.705 5.97188 12.3975 6.66375 11.6363C7.35563 10.875 7.90313 10.0781 9.12563 9.5119C10.3481 8.94565 10.9856 9.03377 12.3131 8.94564C13.6406 8.85752 15.075 8.89314 16.1569 8.94564C17.2388 8.99814 18.0863 9.49502 18.3713 9.67127C18.6544 9.84752 19.3631 10.4513 19.7344 10.8394C20.1056 11.2294 20.5481 11.8125 20.8856 12.0975C21.2213 12.3806 21.7538 12.7181 22.2131 12.9825C22.6744 13.2488 22.9575 13.4775 23.0456 13.7081C23.1338 13.9388 23.1319 13.95 23.1319 13.95L22.815 17.2313L3.90938 18.1875Z" fill="#F92612"/>
<path d="M0.628174 19.1944C0.628174 19.1944 1.1138 18.3169 2.26317 17.3981C3.24192 16.6162 4.12317 16.1812 5.49192 15.9806C6.69755 15.8044 9.11442 15.8606 13.1438 15.8794C17.1732 15.8962 20.04 15.9019 20.4075 15.885C20.775 15.8681 21.2625 15.5531 21.8419 15.1856C22.4194 14.8181 22.65 15.3581 22.65 15.3581L23.2988 17.2669C23.2988 17.2669 23.3232 19.4681 23.2819 20.0006C23.2538 20.3531 22.7738 20.9644 22.5282 21.0694C22.2825 21.1744 17.85 21.2437 16.5375 21.2437C15.2232 21.2437 4.02005 21.21 2.8913 21.1219C2.3663 21.0806 1.66505 20.8069 1.3313 20.4731C0.716299 19.86 0.628174 19.1944 0.628174 19.1944Z" fill="#D70617"/>
<path d="M1.37249 15.4725C1.37249 15.4725 2.87061 15.285 2.97749 15.36C3.11061 15.4537 2.52186 16.4681 2.36624 16.6725C2.28936 16.7737 0.96936 17.4112 0.96936 17.4112L0.97311 16.4944L1.37249 15.4725Z" fill="#FFFEFF"/>
<path d="M0.545655 17.6362L1.12691 17.3325C1.12691 17.3325 1.23003 16.7531 1.29378 16.4775C1.39691 16.0219 1.65003 15.435 1.65003 15.435L1.08191 15.4875C1.08191 15.4875 0.89628 15.8044 0.725655 16.515C0.54378 17.2819 0.545655 17.6362 0.545655 17.6362Z" fill="#D5CCC2"/>
<path d="M6.00003 14.3606C6.04128 14.7656 6.48941 14.7563 7.77003 14.7563C8.79191 14.7563 19.095 14.8519 19.3407 14.7431C19.4607 14.6906 19.6257 14.4675 19.83 14.1713C20.1375 13.7288 20.28 13.5188 20.2519 13.3538C20.1975 13.0313 18.5232 10.9181 17.475 10.2919C16.7494 9.85877 15.1875 9.85689 13.8957 9.84189C12.7257 9.82877 10.5057 9.80064 9.44441 10.4813C7.86378 11.4956 5.94566 13.83 6.00003 14.3606Z" fill="#546D81"/>
<path d="M7.38937 13.9537C7.47187 14.0569 9.10125 14.0269 10.6162 14.0212C12.1669 14.0156 13.6256 14.0906 13.6744 14.0212C13.6969 13.9894 13.7737 10.7044 13.71 10.6462C13.6631 10.6031 13.2619 10.6331 12.7519 10.6387C11.9006 10.6481 10.6612 10.7812 9.88125 11.2181C8.54062 11.9662 7.22625 13.7494 7.38937 13.9537ZM14.6437 10.7062C14.6306 10.7306 14.6062 14.0475 14.6269 14.0606C14.7356 14.1281 18.8887 14.0756 18.93 14.0212C18.9712 13.9669 19.4194 13.5319 19.4062 13.4231C19.3931 13.3144 17.9925 11.5837 17.0306 10.9969C16.6087 10.7362 14.6662 10.6687 14.6437 10.7062Z" fill="#AFE3FB"/>
<path d="M6.98439 15.1894C7.10627 15.5119 7.75314 15.6525 8.16939 15.615C8.78439 15.5588 9.15377 15.2006 9.21939 14.4638C9.29627 13.6181 8.91002 13.23 8.64189 13.1794C8.35689 13.125 6.97314 14.5969 6.97314 14.5969C6.97314 14.5969 6.88314 14.9213 6.98439 15.1894Z" fill="#AF0F21"/>
<path d="M7.86746 15.0093C8.32308 14.9606 8.64933 14.5406 8.80683 14.205C8.96246 13.8693 9.07871 13.3631 8.72808 13.2093C8.29308 13.02 7.90121 13.2431 7.63308 13.545C7.39683 13.8112 6.93933 14.4168 6.97308 14.595C7.00683 14.775 7.24121 15.0768 7.86746 15.0093Z" fill="#F92612"/>
<path d="M3.33934 20.6944C3.35622 21.7294 4.18122 23.2181 5.97747 23.2294C7.77372 23.2406 8.70559 21.8644 8.64934 20.4544C8.59122 19.0219 7.47747 18.0094 5.87434 18.0544C4.37434 18.0994 3.31684 19.2619 3.33934 20.6944Z" fill="#4E433D"/>
<path d="M4.58994 20.6082C4.59932 21.1538 5.04182 21.9394 6.00744 21.945C6.97307 21.9507 7.43994 21.2663 7.40994 20.5238C7.37807 19.7682 6.76119 19.2057 5.95119 19.2169C5.14494 19.23 4.57682 19.8525 4.58994 20.6082Z" fill="#C8C8C8"/>
<path d="M16.5994 20.7806C16.6162 21.8081 17.4225 23.2856 19.1812 23.2969C20.94 23.3081 21.8512 21.9431 21.7969 20.5444C21.7406 19.1213 20.6512 18.1181 19.0819 18.1631C17.6137 18.2063 16.5769 19.3594 16.5994 20.7806Z" fill="#4E433D"/>
<path d="M17.7731 20.7C17.7825 21.2456 18.225 22.0313 19.1906 22.0369C20.1562 22.0425 20.6231 21.3581 20.5931 20.6156C20.5612 19.86 19.9444 19.2975 19.1344 19.3088C18.33 19.3219 17.7619 19.9444 17.7731 20.7Z" fill="#C8C8C8"/>
<path d="M22.7362 14.2819C22.6819 14.3587 21.7406 15.135 21.7406 15.255C21.7406 15.375 22.8131 16.9256 22.8131 16.9256L23.0644 17.0775C23.0644 17.0775 23.1844 15.1125 23.1844 15.0694C23.1844 15.03 22.7362 14.2819 22.7362 14.2819Z" fill="#FFFEFF"/>
<path d="M23.3007 17.5556C23.3007 17.5556 23.3888 16.1437 23.3775 15.3806C23.3663 14.55 23.13 13.9406 23.13 13.9406L22.7325 14.2875C22.7325 14.2875 22.8675 15.0225 22.8675 15.5044C22.8675 15.9862 22.8132 16.9256 22.8132 16.9256L23.3007 17.5556Z" fill="#D5CCC2"/>
</svg>
