<svg width="24" height="24" viewBox="0 0 24 24" fill="none" xmlns="http://www.w3.org/2000/svg">
<path d="M19.1794 23.5181L4.92567 23.4488C4.2788 23.4488 3.7538 22.9238 3.7538 22.2769L3.72192 1.93689C3.72192 1.29001 4.24692 0.765015 4.8938 0.765015L19.2057 0.847515C19.8525 0.847515 20.4207 1.32189 20.4207 1.96876L20.3513 22.3481C20.3513 22.995 19.8263 23.5181 19.1794 23.5181Z" fill="#5E6367"/>
<path d="M4.56934 17.1243C4.56934 17.1243 4.58996 3.01497 4.60684 2.52935C4.62371 2.04372 4.96309 1.68747 5.43184 1.67247C5.90059 1.65747 18.1856 1.68747 18.5568 1.68747C18.9281 1.68747 19.4793 1.79997 19.5112 2.46372C19.5431 3.12747 19.3987 15.6206 19.3987 15.6206C19.3987 15.6206 16.9593 14.145 13.9125 14.1318C9.21933 14.1112 4.56934 17.1243 4.56934 17.1243Z" fill="#EE534E"/>
<path d="M10.0049 3.56622C7.41182 3.56622 5.8012 5.33435 5.84245 7.88622C5.88182 10.3612 7.58245 11.9325 9.9187 11.9325C12.1574 11.9325 13.9912 10.3218 14.0306 7.78872C14.07 5.2556 12.2643 3.56622 10.0049 3.56622Z" fill="#F5F5F5"/>
</svg>
