<svg width="24" height="24" viewBox="0 0 24 24" fill="none" xmlns="http://www.w3.org/2000/svg">
<path d="M11.9681 9.86626C11.0231 9.92626 9.37309 10.8113 7.07809 11.7788C4.78309 12.7463 2.71122 13.6294 2.36997 13.7906C2.02872 13.9519 1.74559 14.0475 1.72684 14.6119C1.70809 15.1763 8.96997 19.7869 8.96997 19.7869L16.1137 19.9069L22.1231 14.5181C22.1231 14.5181 22.1137 14.1225 21.7275 13.8094C21.3637 13.515 18.1875 12.2813 16.9387 11.7788C15.6918 11.2744 12.3956 9.84001 11.9681 9.86626Z" fill="#858585"/>
<path d="M12.6263 18.9188C13.9144 18.9 15.4856 17.8782 17.8969 16.6088C19.755 15.63 21.6281 14.6063 21.7088 14.5744C22.0125 14.4544 21.9825 14.0925 21.9825 14.0925C21.9825 14.0925 22.2563 14.4919 22.2919 15.3C22.3238 16.0257 22.3125 17.655 22.2919 17.8557C22.2713 18.0563 22.3313 18.3788 21.87 18.6413C21.4088 18.9038 14.6306 22.6332 14.2238 22.8469C13.8 23.07 13.3594 23.3344 12.8325 23.3344C12.3581 23.3363 11.8181 23.1019 11.0269 22.8357C10.6481 22.7082 8.49002 21.7988 6.38252 20.7769C4.97439 20.0944 3.45377 19.3463 2.57439 18.8438C2.07002 18.555 1.90877 18.345 1.84877 18.1988C1.66502 17.7544 1.71564 15.0544 1.71377 14.8125C1.71002 14.4563 1.79252 14.25 1.79252 14.25C1.79252 14.25 2.02877 14.4357 2.73564 14.7732C3.35814 15.0694 5.31002 16.1044 7.00127 16.8525C11.145 18.6825 12.0244 18.9282 12.6263 18.9188Z" fill="#5E6367"/>
<path d="M11.9775 10.7888C10.6519 10.7944 9.85876 11.2406 9.36751 11.8031C8.72064 12.5456 8.72626 13.4963 8.77689 13.9088C8.86314 14.6306 9.75189 15.5963 12.1463 15.5963C14.7525 15.5963 15.2663 14.46 15.3506 14.1225C15.4388 13.7681 15.5063 12.4988 14.6438 11.6606C14.1581 11.19 13.1963 10.7831 11.9775 10.7888Z" fill="#282828"/>
<path d="M10.8394 8.02312V11.8462C10.8394 11.8462 11.0306 12.4237 11.9981 12.4294C12.99 12.435 13.1737 11.9662 13.1737 11.9662L13.1775 7.995L10.8394 8.02312Z" fill="#6DA3AC"/>
<path d="M11.9925 0.667516C9.48192 0.652516 7.9388 2.38502 7.9238 4.59189C7.9088 6.79877 9.75567 8.58189 11.9775 8.55939C14.5557 8.53127 16.0294 6.86252 16.005 4.38002C15.9844 2.01189 14.07 0.678766 11.9925 0.667516Z" fill="#FF4F28"/>
<path d="M11.1862 1.51312C10.7193 1.26374 9.91871 1.47937 9.20808 2.36812C8.49933 3.25124 8.39246 4.63124 9.17433 4.74374C9.86621 4.84312 9.94496 4.08937 9.97496 3.87749C10.0425 3.40312 10.4006 2.84437 10.8412 2.69437C10.9875 2.64562 11.3456 2.58374 11.4506 2.34374C11.61 1.97437 11.4675 1.66312 11.1862 1.51312Z" fill="#FDFFFC"/>
<path d="M4.47932 14.2987C4.50557 15.0131 5.53307 15.315 6.36932 15.315C7.52994 15.315 8.19932 14.8444 8.18619 14.2219C8.17119 13.5319 7.16619 13.1981 6.32994 13.1869C5.36057 13.1775 4.45307 13.5694 4.47932 14.2987Z" fill="#DD0C22"/>
<path d="M5.13559 13.9706C5.12247 14.3944 5.70559 14.5669 6.31497 14.5669C6.92434 14.5669 7.42872 14.355 7.44184 13.9444C7.45497 13.5338 6.71247 13.3481 6.23434 13.3744C5.75809 13.4006 5.14872 13.5206 5.13559 13.9706Z" fill="#FF4C2A"/>
</svg>
