<svg width="24" height="24" viewBox="0 0 24 24" fill="none" xmlns="http://www.w3.org/2000/svg">
<path d="M19.3256 7.06312C19.3256 3.02062 16.0406 0.75 11.9999 0.75C7.95932 0.75 4.67432 3.02062 4.67432 7.06312V15.9263C4.67432 19.9669 7.95932 23.25 11.9999 23.25C16.0406 23.25 19.3256 19.9669 19.3256 15.9244V7.06312Z" fill="#E0E0E0"/>
<path opacity="0.51" d="M18.3319 8.16188C18.3319 6.50251 17.9044 4.38376 16.2938 2.96626C15.5944 2.35126 14.7488 1.81501 14.0119 1.96126C12.8344 2.19563 13.1832 3.49501 13.6632 4.24876C14.0082 4.79063 14.6082 5.40188 14.6832 7.80001C14.7113 8.73188 14.715 9.60563 14.4432 10.4963C13.7307 12.8306 11.7844 12.4031 11.4675 12.5775C10.8994 12.8906 10.8132 13.6594 10.8113 14.3081C10.8057 15.8588 10.7382 17.5369 10.9013 19.0781C11.0138 20.1413 11.6475 21.5306 12.9394 21.4781C13.9707 21.4369 14.6907 21.0881 15.5307 20.5106C17.22 19.3519 18.2532 17.3981 18.2532 15.3506C18.255 15.3488 18.3319 8.16563 18.3319 8.16188Z" fill="white"/>
<path d="M12.4912 0.763141C12.3281 0.755641 12.1575 0.705016 11.9043 0.939391C11.6512 1.17564 11.5725 1.40252 11.5331 2.02877L11.5068 8.18627H12.4912V0.763141Z" fill="#B5B5B5"/>
<path d="M18.0131 9.00188C17.1038 8.47313 15.8569 7.99501 14.1769 7.76626C14.0601 7.74999 13.9531 7.69209 13.8756 7.60321C13.7981 7.51433 13.7552 7.40044 13.755 7.28251V6.42563C13.7025 4.94251 12.9375 4.30688 11.9288 4.30688C10.92 4.30688 10.0388 4.71564 9.95252 6.60001L9.94127 7.24126C9.9383 7.38229 9.88604 7.51782 9.79356 7.62434C9.70109 7.73086 9.57423 7.80164 9.43502 7.82438C7.95564 8.06813 6.83439 8.51063 5.99814 8.99626C5.17689 9.47063 4.67627 10.35 4.67627 11.2969V11.5219C4.83002 11.2444 5.93627 9.48563 9.32439 8.84438C9.63002 8.78626 9.90939 9.02813 9.90377 9.33751L9.90002 9.51188C10.0219 11.4131 10.9181 11.8969 11.9269 11.8969C12.9356 11.8969 13.7719 11.2744 13.7531 9.89626V9.19876C13.7531 8.93439 13.9894 8.73001 14.25 8.76938C17.9775 9.33376 19.155 11.2144 19.3238 11.5219V11.2969C19.3256 10.3538 18.8288 9.47626 18.0131 9.00188Z" fill="#B5B5B5"/>
<path d="M12 11.3794C11.2388 11.3794 10.6294 10.7213 10.6294 9.90003V6.30378C10.6294 5.48253 11.2388 4.8244 12 4.8244C12.7613 4.8244 13.3706 5.48253 13.3706 6.30378V9.90003C13.3706 10.7213 12.7613 11.3794 12 11.3794Z" fill="#504F4F"/>
<path d="M12.9525 6.05998C13.1662 7.30873 13.0706 8.81623 12.9862 9.82685C12.9019 10.8375 12.4144 11.0381 12.1519 11.0962C11.7956 11.175 11.3906 11.0569 11.235 10.6762C11.235 10.6762 11.6156 10.2469 11.6775 9.6431C11.7806 8.63623 11.8444 7.61435 11.715 6.61123C11.6569 6.16498 11.6475 5.75998 11.235 5.6306C11.235 5.6306 11.3175 5.34373 11.6456 5.2181C12.66 4.82435 12.9037 5.77685 12.9525 6.05998Z" fill="#757575"/>
<path opacity="0.51" d="M9.7087 1.87688C10.6237 1.52063 10.8956 2.33438 10.9031 2.5125C10.9125 2.805 11.1318 3.90938 10.6331 4.2C9.4612 4.88063 9.73495 5.76375 9.10495 6.02438C8.32308 6.34688 7.9537 5.45625 7.9687 4.87313C8.03245 2.41125 9.26433 2.05125 9.7087 1.87688Z" fill="white"/>
</svg>
