<svg width="24" height="24" viewBox="0 0 24 24" fill="none" xmlns="http://www.w3.org/2000/svg">
<path d="M16.8206 12.8513C15.7163 10.3838 14.6475 8.80876 14.6475 8.80876V8.80688H8.63438C8.27625 9.50813 7.67625 10.6463 6.81375 12.2344C5.76563 14.1656 3.39563 20.3813 3.39563 20.3813C3.39563 20.3813 3.53438 21.2025 5.55188 21.5719C6.89063 21.8175 7.29375 21.6075 8.41313 22.215C9.40125 22.7513 10.0856 23.2519 11.76 23.2519C13.4344 23.2519 13.8563 22.8375 15.2194 22.215C16.38 21.6844 17.0063 21.9431 18.3394 21.6694C21.165 21.09 21.3506 19.0238 21.3506 19.0238C21.3506 19.0238 19.1906 18.1444 16.8206 12.8513Z" fill="#1565C0"/>
<path d="M15.4762 1.27501C15.48 1.12314 15.3806 0.988137 15.2362 0.946887L14.5875 0.763137C14.3962 0.708762 14.2031 0.832512 14.1712 1.02939L13.8506 3.00751C13.8506 3.00751 12.8568 3.17814 11.7562 4.07439L11.6831 4.07251C10.5825 3.17626 9.5662 3.00751 9.5662 3.00751L9.2437 1.02751C9.2361 0.981546 9.21892 0.937692 9.19328 0.898794C9.16763 0.859896 9.1341 0.826822 9.09485 0.801718C9.05561 0.776613 9.01152 0.760039 8.96545 0.753069C8.91939 0.7461 8.87237 0.748891 8.82745 0.761262L8.1787 0.945012C8.03245 0.986262 7.93308 1.12126 7.9387 1.27314C7.95558 1.87876 8.0137 3.46314 8.18808 5.06814C8.3662 6.71064 8.75058 8.38689 8.69808 8.97751C8.69808 8.97751 10.2056 9.18376 11.6625 9.19876V9.20064H11.76V9.19876C13.215 9.18564 14.7243 8.97751 14.7243 8.97751C14.6718 8.38689 15.0562 6.71064 15.2343 5.06814C15.4012 3.46314 15.4593 1.88064 15.4762 1.27501Z" fill="#1565C0"/>
<path d="M11.8499 9.40499C10.1437 9.40499 8.97557 9.26624 8.57807 9.22124C8.55898 9.21892 8.54053 9.21286 8.52379 9.2034C8.50704 9.19394 8.49233 9.18127 8.48048 9.16612C8.46864 9.15097 8.4599 9.13363 8.45477 9.1151C8.44964 9.09657 8.44821 9.0772 8.45057 9.05812L8.56307 8.25562C8.56776 8.21792 8.58713 8.18359 8.61696 8.16008C8.64679 8.13656 8.68469 8.12575 8.72244 8.12999C9.10307 8.17124 10.2393 8.27812 11.8499 8.27812C13.3987 8.27812 14.3306 8.17874 14.6624 8.13749C14.7393 8.12812 14.8106 8.18062 14.8237 8.25749L14.9099 9.05437C14.9231 9.13499 14.8687 9.21187 14.7862 9.22312C14.4318 9.26812 13.5149 9.40499 11.8499 9.40499Z" fill="url(#paint0_linear_20_1918)"/>
<path d="M13.8412 3.01689C13.6837 2.99251 13.2356 3.16876 13.1194 3.21376C12.6075 3.41064 12.1837 3.68251 11.7769 4.04814C11.775 4.05001 11.7506 4.06501 11.7206 4.06501C11.6906 4.06501 11.67 4.04814 11.6681 4.04626C11.2612 3.68064 10.8337 3.41251 10.3219 3.21564C10.2037 3.17064 9.75562 2.99439 9.6 3.01876C9.4125 3.04689 9.63937 3.25501 9.97875 3.55126C10.32 3.84751 10.8019 4.26376 11.2106 4.63126C11.3512 4.75689 11.5387 4.81314 11.7206 4.82814C11.9025 4.81314 12.09 4.75689 12.2306 4.63126C12.6394 4.26376 13.1212 3.84751 13.4625 3.55126C13.8037 3.25501 14.0287 3.04501 13.8412 3.01689Z" fill="#0D47A1"/>
<path d="M7.42505 21.7612C8.12442 16.4681 9.9638 11.8519 9.9638 11.8519C9.9638 11.8519 9.3488 17.2931 9.21192 22.65C9.21192 22.65 8.67755 22.3125 8.18817 22.0969C7.6988 21.8812 7.42505 21.7612 7.42505 21.7612Z" fill="url(#paint1_linear_20_1918)"/>
<path d="M14.5219 22.5488C14.0625 19.7157 13.7869 16.8957 13.92 14.6082C13.92 14.6082 14.9607 18.9188 16.455 21.87C16.455 21.87 15.9469 21.9432 15.4613 22.1119C15.1219 22.23 14.5219 22.5488 14.5219 22.5488Z" fill="url(#paint2_linear_20_1918)"/>
<defs>
<linearGradient id="paint0_linear_20_1918" x1="7.05313" y1="8.76562" x2="16.1546" y2="8.76562" gradientUnits="userSpaceOnUse">
<stop stop-color="#03A9F4"/>
<stop offset="0.061" stop-color="#20B4F7"/>
<stop offset="0.147" stop-color="#42C1FA"/>
<stop offset="0.235" stop-color="#5DCBFC"/>
<stop offset="0.323" stop-color="#71D2FE"/>
<stop offset="0.414" stop-color="#7CD7FF"/>
<stop offset="0.509" stop-color="#80D8FF"/>
<stop offset="0.609" stop-color="#7DD7FF"/>
<stop offset="0.696" stop-color="#72D3FE"/>
<stop offset="0.777" stop-color="#60CCFC"/>
<stop offset="0.856" stop-color="#47C3FA"/>
<stop offset="0.931" stop-color="#27B7F7"/>
<stop offset="1" stop-color="#03A9F4"/>
</linearGradient>
<linearGradient id="paint1_linear_20_1918" x1="8.33011" y1="22.1175" x2="9.66286" y2="12.177" gradientUnits="userSpaceOnUse">
<stop offset="0.297" stop-color="#0D47A1"/>
<stop offset="1" stop-color="#0D47A1" stop-opacity="0.2"/>
</linearGradient>
<linearGradient id="paint2_linear_20_1918" x1="15.5211" y1="22.5235" x2="14.4368" y2="14.6082" gradientUnits="userSpaceOnUse">
<stop offset="0.297" stop-color="#0D47A1"/>
<stop offset="1" stop-color="#0D47A1" stop-opacity="0.2"/>
</linearGradient>
</defs>
</svg>
