<svg width="24" height="24" viewBox="0 0 24 24" fill="none" xmlns="http://www.w3.org/2000/svg">
<path d="M15.3132 14.1356V13.7006C15.3132 13.7006 14.7769 13.665 14.5463 13.5769C14.4225 13.53 14.2707 13.2731 14.3082 13.0331C14.3438 12.795 14.5032 12.6712 14.7863 12.6787C15.075 12.6862 15.4163 12.7106 15.7275 12.765C16.2563 12.8587 16.5657 12.9919 16.6463 13.0256C16.77 13.0762 16.8563 13.5244 16.6313 13.6331C16.5 13.6969 16.1607 13.7119 16.1607 13.7119L16.1682 14.1469L15.3132 14.1356Z" fill="#B50D22"/>
<path d="M0.995641 21.4556C0.995641 21.4556 0.855016 20.7975 1.31627 20.3719C1.85064 19.8787 2.47877 19.6875 3.20627 19.4044C3.84189 19.1569 4.80189 18.8663 4.80189 18.8663L6.76314 17.6119C6.76314 17.6119 7.63877 17.4037 9.19314 17.4338C10.5413 17.46 12.7725 17.6531 12.7725 17.6531C12.7725 17.6531 13.2469 17.1487 13.965 17.0625C14.6831 16.9762 15.0019 17.0419 15.0019 17.0419L15.0675 13.995C15.0675 13.995 16.2844 13.995 16.6744 14.0325C17.2613 14.0906 17.9925 14.6981 18.1988 14.9081C18.2531 14.9644 19.3519 16.1475 19.3519 16.1475L20.0475 16.4737C20.0475 16.4737 21.0244 12.6356 21.1631 12.5906C21.165 12.5906 21.8063 12.5381 22.3838 12.5194C23.145 12.495 23.6813 12.5194 23.745 12.5569C23.7919 12.585 23.2406 15.2025 23.2406 15.2025L18.0469 21.9975C18.0469 21.9975 10.6744 21.8025 10.6294 21.7369C10.5863 21.6712 8.49752 20.6719 8.49752 20.6719C8.49752 20.6719 3.36377 21.2587 3.27752 21.3019C3.19127 21.3469 0.995641 21.4556 0.995641 21.4556Z" fill="#FF2A23"/>
<path d="M19.6162 19.0069L22.7306 18.3694L23.2481 15.1969C23.2481 15.1969 21.855 15.1838 20.7431 16.4794C19.6818 17.7188 19.6162 19.0069 19.6162 19.0069ZM10.2262 17.2482C10.2225 17.535 10.77 17.9325 11.3456 17.9494C12.0056 17.9682 12.2006 17.8425 12.2081 17.6119C12.2156 17.3813 12.2006 16.905 12.2006 16.905L10.6256 16.5769C10.6237 16.5769 10.2318 16.8432 10.2262 17.2482Z" fill="#B50D22"/>
<path d="M10.5806 16.6144C10.5806 16.6144 10.9518 16.2675 11.3981 16.1756C11.8012 16.0931 12.1931 16.1082 12.1931 16.2394C12.1931 16.4625 12.2006 16.9032 12.2006 16.9032C12.2006 16.9032 11.9531 17.1244 11.2837 17.0606C10.8599 17.0213 10.6387 16.7044 10.5806 16.6144Z" fill="#FF2A23"/>
<path d="M9.41248 20.7112C9.41248 20.7112 10.635 20.82 11.5631 20.4412C12.3244 20.13 12.6337 19.7081 13.1231 19.455C13.3687 19.3275 13.8656 19.3462 13.8656 19.3462L14.085 21.5569L9.89248 21.8512L9.45373 21.1931L9.41248 20.7112Z" fill="#CF1A35"/>
<path d="M21.1631 12.5925L20.475 16.8319L17.7525 16.1963C17.7525 16.1963 18.0319 15.8663 18.1238 15.5775C18.2213 15.2682 18.2006 14.9082 18.2006 14.9082L19.6988 16.1082C19.6988 16.1082 20.1938 13.3388 20.2388 13.17C20.2838 13.0013 20.4225 12.8213 20.6813 12.6825C20.8425 12.5982 21.1631 12.5925 21.1631 12.5925ZM21.1313 18.3488L22.7288 18.3713C22.7288 18.3713 22.6481 19.6313 22.53 19.9594C22.3256 20.5257 21.8925 20.4807 21.8925 20.4807C21.8925 20.4807 21.1238 18.33 21.1313 18.3488ZM0.403129 21.2419C0.345004 21.2794 0.320629 22.5507 0.361879 22.5788C0.403129 22.6069 1.85625 22.6069 1.85625 22.6069C1.85625 22.6069 1.89375 21.2419 1.71375 21.2419C1.53375 21.2419 0.444379 21.2138 0.403129 21.2419Z" fill="#636866"/>
<path d="M3.375 21.27C3.375 21.27 3.42937 22.6837 3.34125 22.725C3.25125 22.7662 1.75687 22.7662 1.70062 22.7325C1.64625 22.6987 1.6875 21.2569 1.69312 21.2362C1.69875 21.2137 3.40875 21.2212 3.375 21.27Z" fill="#B50D22"/>
<path d="M8.70374 21.4069H9.48374C9.48374 21.4069 8.98124 22.2056 8.92874 22.2844C8.87624 22.3631 8.89499 22.5019 9.15374 22.5094C9.41061 22.5169 17.4919 22.5094 17.4919 22.5094L16.6069 21.3431H9.64124C9.64124 21.3431 9.59624 20.9531 9.46686 20.6363C9.33749 20.3194 9.04124 20.0831 9.04124 20.0831L8.70374 21.4069Z" fill="#636866"/>
<path d="M13.4981 19.2806C13.4719 19.3162 13.4475 21.2981 13.4869 21.3375C13.5262 21.3769 14.4169 21.3712 14.445 21.3487C14.4731 21.3262 14.4787 19.3425 14.4619 19.3087C14.445 19.275 13.5262 19.2412 13.4981 19.2806Z" fill="#8C1D0B"/>
<path d="M9.05998 20.3138C9.05998 21.9206 7.74935 23.2238 6.13498 23.2238C4.5206 23.2238 3.2156 22.1438 3.20998 20.3138C3.20435 18.7069 4.4531 17.415 6.13498 17.4038C7.80935 17.3925 9.05998 18.7069 9.05998 20.3138Z" fill="#4C4038"/>
<path d="M6.13502 17.8557C4.76064 17.8557 3.64502 18.96 3.64502 20.3213C3.64502 21.6825 4.76064 22.7869 6.13502 22.7869C7.50939 22.7869 8.62502 21.6825 8.62502 20.3213C8.62502 18.96 7.51127 17.8557 6.13502 17.8557ZM6.11814 22.4325C4.96689 22.4325 4.03314 21.4894 4.03314 20.3269C4.03314 19.1644 4.96689 18.2213 6.11814 18.2213C7.26939 18.2213 8.20314 19.1644 8.20314 20.3269C8.20314 21.4913 7.26939 22.4325 6.11814 22.4325Z" fill="#F8A128"/>
<path d="M6.10124 18.765C5.24624 18.765 4.55249 19.4438 4.55249 20.2819C4.55249 21.12 5.24624 21.7988 6.10124 21.7988C6.95624 21.7988 7.64999 21.12 7.64999 20.2819C7.64999 19.4438 6.95624 18.765 6.10124 18.765ZM6.09561 21.1369C5.61374 21.1369 5.22187 20.7525 5.22187 20.28C5.22187 19.8075 5.61374 19.4231 6.09561 19.4231C6.57749 19.4231 6.96936 19.8075 6.96936 20.28C6.96936 20.7525 6.57749 21.1369 6.09561 21.1369Z" fill="#858583"/>
<path d="M22.0874 20.3213C22.0874 21.9281 20.7768 23.2313 19.1624 23.2313C17.5481 23.2313 16.2431 22.1513 16.2374 20.3213C16.2318 18.7144 17.4806 17.4225 19.1624 17.4113C20.8349 17.4 22.0874 18.7144 22.0874 20.3213Z" fill="#4C4038"/>
<path d="M19.1625 17.8631C17.7881 17.8631 16.6725 18.9675 16.6725 20.3287C16.6725 21.69 17.7881 22.7943 19.1625 22.7943C20.5369 22.7943 21.6525 21.69 21.6525 20.3287C21.6525 18.9675 20.5369 17.8631 19.1625 17.8631ZM19.1456 22.44C17.9944 22.44 17.0606 21.4968 17.0606 20.3343C17.0606 19.1718 17.9944 18.2287 19.1456 18.2287C20.2969 18.2287 21.2306 19.1718 21.2306 20.3343C21.2287 21.4987 20.2969 22.44 19.1456 22.44Z" fill="#F8A128"/>
<path d="M19.1287 18.7725C18.2737 18.7725 17.58 19.4513 17.58 20.2894C17.58 21.1275 18.2737 21.8063 19.1287 21.8063C19.9837 21.8063 20.6775 21.1275 20.6775 20.2894C20.6775 19.4513 19.9837 18.7725 19.1287 18.7725ZM19.1231 21.1444C18.6412 21.1444 18.2493 20.76 18.2493 20.2875C18.2493 19.815 18.6412 19.4306 19.1231 19.4306C19.605 19.4306 19.9968 19.815 19.9968 20.2875C19.9968 20.76 19.605 21.1444 19.1231 21.1444Z" fill="#858583"/>
</svg>
