<svg width="24" height="24" viewBox="0 0 24 24" fill="none" xmlns="http://www.w3.org/2000/svg">
<path d="M6.23997 23.2256L17.7581 23.25C17.9868 23.25 18.1706 23.0831 18.1706 22.8769V1.1475C18.1706 0.94125 17.9868 0.774375 17.76 0.774375L6.24185 0.75C6.0131 0.75 5.82935 0.916875 5.82935 1.12312V22.8506C5.82935 23.0569 6.0131 23.2256 6.23997 23.2256Z" fill="#B06542"/>
<path d="M14.76 3.88501V9.57001H9.23996V3.88501H14.76ZM15.6806 2.94751H8.31934V10.5075H15.6806V2.94751Z" fill="#874D36"/>
<path d="M15.6806 2.98126L14.7243 3.88501H14.76V9.57001H9.30934L8.31934 10.5075H15.6806V2.98126Z" fill="#C87D5E"/>
<path d="M14.76 14.805V20.115H9.23996V14.805H14.76ZM15.6806 13.8675H8.31934V21.0525H15.6806V13.8675Z" fill="#874D36"/>
<path d="M15.6806 13.9012L14.7243 14.805H14.76V20.115H9.30934L8.31934 21.0525H15.6806V13.9012Z" fill="#C87D5E"/>
<path d="M8.28369 13.3594C8.82735 13.3594 9.26807 12.9187 9.26807 12.375C9.26807 11.8313 8.82735 11.3906 8.28369 11.3906C7.74004 11.3906 7.29932 11.8313 7.29932 12.375C7.29932 12.9187 7.74004 13.3594 8.28369 13.3594Z" fill="#874D36"/>
<path d="M7.90125 13.0687C8.4449 13.0687 8.88562 12.628 8.88562 12.0843C8.88562 11.5407 8.4449 11.1 7.90125 11.1C7.35759 11.1 6.91687 11.5407 6.91687 12.0843C6.91687 12.628 7.35759 13.0687 7.90125 13.0687Z" fill="#BDBDBD"/>
<path d="M8.13377 11.4581C8.15814 11.58 8.08689 11.64 7.98564 11.7131C7.88439 11.7863 7.75877 11.8444 7.66689 12C7.60127 12.1106 7.58064 12.2569 7.47377 12.33C7.36877 12.4013 7.24877 12.3881 7.19252 12.2625C7.11189 12.0844 7.11002 11.775 7.33689 11.5219C7.55439 11.28 8.07377 11.1506 8.13377 11.4581Z" fill="#EEEEEE"/>
</svg>
