<svg width="24" height="24" viewBox="0 0 24 24" fill="none" xmlns="http://www.w3.org/2000/svg">
<path d="M21.75 22.6875C21.75 19.5562 16.8187 18 12.0187 18H12C7.21875 18 2.25 19.3687 2.25 22.7062V23.2687H21.4688V23.25H21.75V22.6875Z" fill="url(#paint0_linear_20_1934)"/>
<path d="M13.7062 16.8938H10.2938V18.7688C10.2938 19.6125 10.9875 20.3063 11.85 20.3063H12.1688C13.0312 20.3063 13.725 19.6125 13.725 18.7688L13.7062 16.8938ZM17.1188 9.45001H6.88125C5.775 9.45001 4.875 10.4063 4.875 11.5875C4.875 12.7688 5.775 13.725 6.88125 13.725H17.1375C18.2438 13.725 19.1437 12.7688 19.1437 11.5875C19.125 10.425 18.225 9.45001 17.1188 9.45001Z" fill="#709921"/>
<path d="M12 2.08124C8.7375 2.08124 5.71875 5.56874 5.71875 10.5937C5.71875 15.5812 8.83125 18.0562 12 18.0562C15.1687 18.0562 18.2812 15.5812 18.2812 10.5937C18.2812 5.56874 15.2625 2.08124 12 2.08124Z" fill="#82CC2B"/>
<path d="M19.2 6.91876C19.0875 6.82501 18.9562 6.71251 18.8062 6.63751C18.7687 6.43126 18.75 6.24376 18.6937 6.03751C19.1062 5.62501 19.5 5.19376 19.8562 4.72501C19.65 4.98751 19.275 5.13751 18.8625 5.13751C18.7312 5.13751 18.5812 5.11876 18.4312 5.08126H18.4125C18.0937 4.10626 17.5875 3.15001 16.7812 2.40001C17.0062 2.32501 17.2312 2.25001 17.4562 2.15626C17.4 2.17501 16.0687 1.81876 16.0312 1.80001C16.2937 1.50001 16.4812 1.12501 16.5375 0.731262C16.3687 1.12501 15.9375 1.33126 15.5437 1.48126C15.525 1.48126 15.5062 1.50001 15.5062 1.50001C14.6062 1.05001 13.4437 0.768762 12 0.750012C9.61873 0.768762 8.04373 1.53751 7.01248 2.62501C6.97498 2.60626 6.09373 2.17501 5.73748 1.89376C5.84998 2.34376 5.93998 2.78064 6.44998 3.05626C5.36248 3.33751 5.04373 3.76876 4.85623 4.08751C5.24998 3.93751 5.66248 3.90001 6.07498 3.90001C5.60623 4.76251 5.34373 5.70001 5.21248 6.58126C4.72498 6.86251 4.36873 7.36876 4.25623 7.91251C4.49998 7.70626 4.79998 7.53751 5.09998 7.44376C4.96873 9.15001 5.21248 10.5 5.21248 10.5C5.21248 10.5 5.81435 12.15 5.8331 12.15C5.7956 10.8 6.67498 8.38126 7.06873 7.36876C7.23748 6.91876 7.66873 6.63751 8.13748 6.63751C8.21248 6.63751 8.26873 6.63751 8.34373 6.65626C9.16873 6.80626 10.5 6.99376 11.9812 6.99376H12.0187C13.4812 6.99376 14.8125 6.80626 15.6562 6.65626C15.7312 6.63751 15.7875 6.63751 15.8625 6.63751C16.3312 6.63751 16.7625 6.91876 16.9312 7.36876C17.325 8.40001 18.21 10.8 18.1725 12.15C18.1912 12.15 18.7875 10.5 18.7875 10.5C18.7875 10.5 19.0125 9.28126 18.9187 7.70626C19.1437 7.76251 19.425 7.85626 19.7437 8.06251C19.725 7.74376 19.65 7.31251 19.2 6.91876Z" fill="url(#paint1_radial_20_1934)"/>
<path d="M14.7375 14.9438C14.6625 14.8688 14.5875 14.7563 14.5875 14.6438C14.6062 14.4563 14.775 14.3438 14.9437 14.2688C15.2625 14.1188 15.5812 13.95 15.9375 13.9125C16.0687 13.8938 16.2187 13.8938 16.3312 13.9688C16.4625 14.0625 16.5375 14.2313 16.5187 14.4C16.5 14.5688 16.425 14.7188 16.3125 14.8313C15.8625 15.375 15.2437 15.4313 14.7375 14.9438ZM15.2625 15.75C15.3187 15.8063 15.3375 15.9 15.3187 15.9938C15.3 16.1063 15.2062 16.1813 15.1125 16.275C15.0375 16.3313 14.9812 16.3875 14.8875 16.425C14.7937 16.4625 14.7 16.425 14.6437 16.35C14.625 16.2938 14.625 16.2375 14.625 16.2C14.6062 15.9375 14.6812 15.5625 15.0187 15.6C15.1125 15.6188 15.2062 15.675 15.2625 15.75ZM7.96873 14.5875C7.89373 14.6063 7.79998 14.5875 7.72498 14.5125C7.63123 14.4375 7.61248 14.325 7.57498 14.2125C7.55623 14.1188 7.53748 14.025 7.55623 13.95C7.57498 13.875 7.64998 13.7813 7.74373 13.7813C7.78123 13.7813 7.83748 13.8 7.87498 13.8188C8.09998 13.9313 8.41873 14.175 8.21248 14.4375C8.13748 14.5125 8.06248 14.5688 7.96873 14.5875ZM8.84998 7.57502C8.99998 7.55627 9.18748 7.57502 9.29998 7.66877C9.44998 7.80002 9.44998 8.06252 9.31873 8.23127C9.20623 8.40002 8.99998 8.49376 8.81248 8.55001C8.69998 8.58751 8.56873 8.62501 8.45623 8.58751C8.28748 8.55001 8.15623 8.41876 8.08123 8.26876C7.79998 7.68751 8.34373 7.61252 8.84998 7.57502Z" fill="#709921"/>
<path d="M11.2687 13.35C11.2875 13.35 11.3062 13.3688 11.325 13.3688H12.6562C12.675 13.3688 12.6937 13.3688 12.7125 13.35C12.825 13.2938 12.9 13.1813 12.8437 13.05C12.7875 12.9188 12.525 12.5438 12 12.5438C11.475 12.5438 11.2125 12.9188 11.1562 13.05C11.1 13.1625 11.1562 13.2938 11.2687 13.35Z" fill="#597718"/>
<path d="M13.9688 15.5625C13.9688 16.1625 13.0875 16.275 12 16.275C10.9125 16.275 10.0312 16.1625 10.0312 15.5625C10.0312 14.9625 10.9125 14.1 12 14.1C13.0875 14.1 13.9688 14.9625 13.9688 15.5625Z" fill="#333333"/>
<path d="M12 16.275C12.6562 16.275 13.2562 16.2375 13.6125 16.0687C13.575 15.525 12.8625 15.0938 12 15.0938C11.1375 15.0938 10.425 15.525 10.3875 16.0687C10.7437 16.2375 11.3437 16.275 12 16.275Z" fill="#F05455"/>
<path d="M8.7938 12.9563C7.87505 12.9563 7.1438 12.1125 7.1438 11.0625C7.1438 10.0125 7.8938 9.16876 8.7938 9.16876C9.71255 9.16876 10.4438 10.0125 10.4438 11.0625C10.4438 12.1125 9.71255 12.9563 8.7938 12.9563Z" fill="#4E6B17"/>
<path d="M8.79373 9.43124C9.58123 9.43124 10.3537 10.1981 10.3537 11.1169C10.3537 12.0356 9.7856 12.8437 8.8181 12.8437C7.8506 12.8437 7.24873 11.9756 7.24873 11.0569C7.24873 10.1381 8.02498 9.43124 8.79373 9.43124ZM8.79373 8.92499C7.74373 8.92499 6.88123 9.88124 6.88123 11.0625C6.88123 12.2437 7.72498 13.2 8.79373 13.2C9.84373 13.2 10.7062 12.2437 10.7062 11.0625C10.7062 9.88124 9.84373 8.92499 8.79373 8.92499Z" fill="#709921"/>
<path d="M8.83123 12.1875C9.6493 12.1875 10.3125 11.4991 10.3125 10.65C10.3125 9.80085 9.6493 9.11249 8.83123 9.11249C8.01315 9.11249 7.34998 9.80085 7.34998 10.65C7.34998 11.4991 8.01315 12.1875 8.83123 12.1875Z" fill="white"/>
<path d="M8.8313 9.31875C9.52505 9.31875 10.1063 9.91875 10.1063 10.65C10.1063 11.3812 9.5438 11.9813 8.8313 11.9813C8.1188 11.9813 7.5563 11.3812 7.5563 10.65C7.5563 9.91875 8.13755 9.31875 8.8313 9.31875ZM8.8313 8.90625C7.8938 8.90625 7.1438 9.69375 7.1438 10.65C7.1438 11.6062 7.8938 12.3937 8.8313 12.3937C9.7688 12.3937 10.5188 11.6062 10.5188 10.65C10.5188 9.69375 9.7688 8.90625 8.8313 8.90625Z" fill="#709921"/>
<path d="M15.1312 12.9563C14.2125 12.9563 13.4812 12.1125 13.4812 11.0625C13.4812 10.0125 14.2312 9.16876 15.1312 9.16876C16.05 9.16876 16.7812 10.0125 16.7812 11.0625C16.7812 12.1125 16.05 12.9563 15.1312 12.9563Z" fill="#4E6B17"/>
<path d="M15.1312 9.43124C15.9187 9.43124 16.6912 10.1981 16.6912 11.1169C16.6912 12.0356 16.1231 12.8437 15.1556 12.8437C14.19 12.8437 13.5862 11.9756 13.5862 11.0569C13.5862 10.1381 14.3625 9.43124 15.1312 9.43124ZM15.1312 8.92499C14.0812 8.92499 13.2188 9.88124 13.2188 11.0625C13.2188 12.2437 14.0625 13.2 15.1312 13.2C16.1812 13.2 17.0438 12.2437 17.0438 11.0625C17.0438 9.88124 16.1812 8.92499 15.1312 8.92499Z" fill="#709921"/>
<path d="M15.1688 12.1875C15.9868 12.1875 16.65 11.4991 16.65 10.65C16.65 9.80085 15.9868 9.11249 15.1688 9.11249C14.3507 9.11249 13.6875 9.80085 13.6875 10.65C13.6875 11.4991 14.3507 12.1875 15.1688 12.1875Z" fill="white"/>
<path d="M15.1687 9.31875C15.8625 9.31875 16.4437 9.91875 16.4437 10.65C16.4437 11.3812 15.8812 11.9813 15.1687 11.9813C14.4562 11.9813 13.8937 11.3812 13.8937 10.65C13.8937 9.91875 14.475 9.31875 15.1687 9.31875ZM15.1687 8.90625C14.2312 8.90625 13.4812 9.69375 13.4812 10.65C13.4812 11.6062 14.2312 12.3937 15.1687 12.3937C16.1062 12.3937 16.8562 11.6062 16.8562 10.65C16.8562 9.69375 16.1062 8.90625 15.1687 8.90625Z" fill="#709921"/>
<path d="M7.61619 19.5488C7.50369 19.4175 7.37057 19.3782 7.24119 19.3613C7.04432 19.335 6.87557 19.3819 6.77994 19.5244C6.61307 19.7738 6.55494 20.2538 6.08432 20.3063C5.77682 20.34 5.72244 19.2788 5.71869 18.8681C5.70557 17.4132 5.79369 16.755 5.82932 16.6294C5.86682 16.5019 5.89494 16.275 5.97557 16.1438C6.27182 16.1382 6.48557 15.8963 6.50994 15.6C6.53432 15.2794 5.96057 14.7563 5.32494 15.2082C5.00619 15.435 4.63119 16.0894 4.59369 17.9644C4.59369 17.9644 4.52244 18.2475 4.38369 17.8988C4.24494 17.55 4.01057 16.905 4.30682 16.155C4.49994 16.1588 4.70619 15.9825 4.71557 15.6807C4.72869 15.3019 4.38557 15.135 4.13807 15.1613C3.89057 15.1875 3.39932 15.3038 3.22307 16.005C3.12182 16.4063 3.13494 16.8188 3.13494 16.8188C3.13494 16.8188 2.67369 16.9257 2.62494 16.9669C2.49744 17.0775 2.17119 17.2819 2.21057 18.0375C2.22744 18.3731 2.34557 18.7913 2.34557 18.7913C2.34557 18.7913 2.08494 18.9263 1.98369 19.05C1.83182 19.2338 1.70807 19.44 1.64807 19.6688C1.54307 20.0794 1.58244 20.4975 1.70619 20.8988C1.78307 21.15 1.88994 21.3938 2.01182 21.6281C2.09244 21.7838 2.21057 21.9282 2.25932 22.1007C2.28182 22.1813 2.27807 22.2525 2.26307 22.3257C2.24807 22.4044 2.10557 23.0532 2.05869 23.2894H4.69869C4.71744 23.2088 4.74932 23.1113 4.76994 23.0307C4.81307 22.8675 5.15807 22.7757 5.29494 22.7007C6.15744 22.2338 7.06307 21.5119 7.56932 20.5838C7.73994 20.2725 7.84119 19.8113 7.61619 19.5488ZM3.31307 18.6825L3.16682 17.8913L3.36557 17.8182C3.36557 17.8182 3.46494 18.0769 3.52494 18.435C3.58494 18.7932 3.31307 18.6825 3.31307 18.6825Z" fill="#82CC2B"/>
<path d="M4.13059 22.0106C4.10434 22.0162 4.29559 21.465 3.85121 20.9475C3.46871 20.5031 2.91559 20.685 2.91559 20.685C2.91559 20.685 3.36371 20.7637 3.69371 21.1312C4.02371 21.5006 4.13059 22.0106 4.13059 22.0106ZM2.90621 18.96C3.04309 19.0706 3.15184 19.2394 3.12934 19.4137C3.10309 19.62 2.89684 19.7662 2.68871 19.7887C2.48059 19.8112 2.27809 19.74 2.08496 19.6594C2.22746 19.9369 2.50684 19.9387 2.50684 19.9387C2.50684 19.9387 2.66809 20.6194 2.75246 20.6512L2.76934 19.98C2.76934 19.98 3.16309 20.0419 3.32434 19.515C3.42559 19.1812 3.25309 18.9244 3.01121 18.8137C2.76934 18.7031 2.42621 18.8044 2.42621 18.8044C2.42621 18.8044 2.76746 18.8475 2.90621 18.96ZM3.23809 16.9669C3.38809 17.0212 3.52496 17.1112 3.53996 17.2875C3.55871 17.4937 3.38809 17.6812 3.19121 17.7487C2.99434 17.8162 2.77871 17.79 2.57434 17.7525C2.74871 17.9494 2.98121 17.9287 3.00371 17.9756C3.03371 18.0394 3.01684 18.3862 3.14621 18.5831C3.21184 18.6825 3.38059 18.6994 3.38059 18.6994C3.38059 18.6994 3.18934 18.4012 3.22496 17.9644C3.22496 17.9644 3.38246 17.9212 3.49496 17.85C3.66746 17.7412 3.73871 17.5369 3.75371 17.3437C3.77996 16.995 3.45184 16.8487 3.21371 16.8244C2.85746 16.7869 2.62496 16.9687 2.62496 16.9687C2.62496 16.9687 3.06934 16.905 3.23809 16.9669ZM2.26309 22.3312C2.53496 22.5094 2.95309 22.5806 3.24184 22.5506C2.87996 22.4625 2.38496 22.1231 2.14121 21.8419C2.18996 21.9244 2.23684 22.0069 2.26121 22.0987C2.28371 22.1794 2.27996 22.2506 2.26496 22.3237C2.26496 22.3256 2.26309 22.3294 2.26309 22.3312ZM3.85121 22.8469C4.02934 23.0044 4.43621 23.0962 4.75871 23.0681L4.76996 23.0287C4.79809 22.9219 4.95371 22.8469 5.09809 22.785C4.78121 22.8937 4.18309 22.8956 3.85121 22.8469ZM3.74809 16.0106C3.74434 16.0162 3.74434 16.0237 3.74621 16.0294C3.76309 16.1625 3.83809 16.2881 3.94684 16.3669C4.02559 16.4231 4.11934 16.4531 4.21496 16.4569C4.23559 16.3575 4.26371 16.2581 4.30496 16.1531C4.12309 16.1587 3.94121 16.11 3.78934 16.0106C3.77809 16.005 3.75746 15.9975 3.74809 16.0106ZM5.41309 15.8812C5.41121 16.0575 5.50684 16.2225 5.63621 16.3425C5.70184 16.4044 5.78059 16.4569 5.86684 16.4887C5.89309 16.3725 5.92309 16.2394 5.97746 16.1456C5.89309 16.1437 5.80871 16.1231 5.73184 16.0894C5.61371 16.0387 5.51246 15.96 5.41309 15.8812ZM6.68246 19.7081C6.56996 19.9575 6.45559 20.2631 6.08434 20.3044C6.04309 20.3081 6.00746 20.2931 5.97371 20.2631C5.99621 20.5631 6.03559 20.925 5.97934 21.2025C6.36934 20.805 6.66746 20.3381 6.68246 19.7081Z" fill="#709921"/>
<path d="M16.4925 20.5819C16.9988 21.51 17.9044 22.2319 18.7669 22.6988C18.9038 22.7738 19.2507 22.8656 19.2919 23.0288C19.3125 23.1094 19.3444 23.2069 19.3632 23.2875H22.0032C21.9544 23.0513 21.8138 22.4025 21.7988 22.3238C21.7857 22.2525 21.7819 22.1794 21.8025 22.0988C21.8494 21.9263 21.9675 21.7838 22.05 21.6263C22.1719 21.3919 22.2788 21.15 22.3557 20.8969C22.4794 20.4956 22.5188 20.0756 22.4138 19.6669C22.3538 19.4363 22.23 19.23 22.0782 19.0481C21.9769 18.9263 21.7163 18.7894 21.7163 18.7894C21.7163 18.7894 21.8344 18.3713 21.8513 18.0356C21.8907 17.28 21.5644 17.0756 21.4369 16.965C21.3882 16.9219 20.9269 16.8169 20.9269 16.8169C20.9269 16.8169 20.94 16.4044 20.8388 16.0031C20.6625 15.3019 20.1713 15.1856 19.9238 15.1594C19.6763 15.1331 19.3332 15.3 19.3463 15.6788C19.3575 15.9788 19.5619 16.1569 19.755 16.1531C20.0513 16.9031 19.8188 17.55 19.6782 17.8969C19.5394 18.2438 19.4682 17.9625 19.4682 17.9625C19.4307 16.0875 19.0557 15.4331 18.7369 15.2063C18.1013 14.7544 17.5275 15.2775 17.5519 15.5981C17.5744 15.8944 17.79 16.1363 18.0863 16.1419C18.1688 16.2731 18.1969 16.5 18.2325 16.6275C18.2682 16.7513 18.3563 17.4113 18.3432 18.8663C18.3394 19.2769 18.285 20.34 17.9775 20.3044C17.5069 20.2519 17.4507 19.7719 17.2819 19.5225C17.1863 19.38 17.0175 19.335 16.8207 19.3594C16.6913 19.3763 16.5582 19.4156 16.4457 19.5469C16.2225 19.8113 16.3219 20.2725 16.4925 20.5819ZM20.5388 18.435C20.5988 18.0769 20.6982 17.8181 20.6982 17.8181L20.8969 17.8913L20.7507 18.6825C20.7507 18.6825 20.4769 18.7913 20.5388 18.435Z" fill="#82CC2B"/>
<path d="M19.9313 22.0106C19.9575 22.0162 19.7663 21.465 20.2106 20.9475C20.5931 20.5031 21.1463 20.685 21.1463 20.685C21.1463 20.685 20.6981 20.7637 20.3681 21.1312C20.04 21.5006 19.9313 22.0106 19.9313 22.0106ZM21.1556 18.96C21.0188 19.0706 20.91 19.2394 20.9325 19.4137C20.9588 19.62 21.165 19.7662 21.3731 19.7887C21.5794 19.8131 21.7838 19.74 21.9769 19.6594C21.8344 19.9369 21.555 19.9387 21.555 19.9387C21.555 19.9387 21.3938 20.6194 21.3094 20.6512L21.2925 19.98C21.2925 19.98 20.8988 20.0419 20.7375 19.515C20.6363 19.1812 20.8088 18.9244 21.0506 18.8137C21.2925 18.7031 21.6356 18.8044 21.6356 18.8044C21.6356 18.8044 21.2963 18.8475 21.1556 18.96ZM20.8238 16.9669C20.6738 17.0212 20.5369 17.1112 20.5219 17.2875C20.5031 17.4937 20.6738 17.6812 20.8706 17.7487C21.0675 17.8162 21.2831 17.79 21.4875 17.7525C21.3131 17.9494 21.0806 17.9287 21.0581 17.9756C21.0281 18.0394 21.045 18.3862 20.9156 18.5831C20.85 18.6825 20.6813 18.6994 20.6813 18.6994C20.6813 18.6994 20.8725 18.4012 20.8369 17.9644C20.8369 17.9644 20.6794 17.9212 20.5669 17.85C20.3944 17.7412 20.3231 17.5369 20.3081 17.3437C20.2819 16.995 20.61 16.8487 20.8481 16.8244C21.2044 16.7869 21.4369 16.9687 21.4369 16.9687C21.4369 16.9687 20.9925 16.905 20.8238 16.9669ZM21.8006 22.3312C21.5288 22.5094 21.1106 22.5806 20.8219 22.5506C21.1838 22.4625 21.6788 22.1231 21.9225 21.8419C21.8738 21.9244 21.8269 22.0069 21.8025 22.0987C21.78 22.1794 21.7838 22.2506 21.7988 22.3237C21.7988 22.3256 21.7988 22.3294 21.8006 22.3312ZM20.2106 22.8469C20.0325 23.0044 19.6256 23.0962 19.3031 23.0681L19.2919 23.0287C19.2638 22.9219 19.1081 22.8469 18.9638 22.785C19.2806 22.8937 19.8788 22.8956 20.2106 22.8469ZM20.3138 16.0106C20.3175 16.0162 20.3175 16.0237 20.3156 16.0294C20.2988 16.1625 20.2238 16.2881 20.115 16.3669C20.0363 16.4231 19.9425 16.4531 19.8469 16.4569C19.8263 16.3575 19.7981 16.2581 19.7569 16.1531C19.9388 16.1587 20.1206 16.11 20.2725 16.0106C20.2856 16.005 20.3063 15.9975 20.3138 16.0106ZM18.6506 15.8812C18.6525 16.0575 18.5569 16.2225 18.4275 16.3425C18.3619 16.4044 18.2831 16.4569 18.1969 16.4887C18.1706 16.3725 18.1406 16.2394 18.0863 16.1456C18.1706 16.1437 18.255 16.1231 18.3319 16.0894C18.4481 16.0387 18.5513 15.96 18.6506 15.8812ZM17.3794 19.7081C17.4919 19.9575 17.6063 20.2631 17.9775 20.3044C18.0188 20.3081 18.0544 20.2931 18.0881 20.2631C18.0656 20.5631 18.0263 20.925 18.0825 21.2025C17.6944 20.805 17.3944 20.3381 17.3794 19.7081Z" fill="#709921"/>
<defs>
<linearGradient id="paint0_linear_20_1934" x1="12" y1="18" x2="12" y2="24.5364" gradientUnits="userSpaceOnUse">
<stop offset="0.004" stop-color="#00BFA5"/>
<stop offset="1" stop-color="#009E89"/>
</linearGradient>
<radialGradient id="paint1_radial_20_1934" cx="0" cy="0" r="1" gradientUnits="userSpaceOnUse" gradientTransform="translate(12.1798 8.34676) scale(7.51219 7.51219)">
<stop offset="0.594" stop-color="#802828"/>
<stop offset="1" stop-color="#BD5151"/>
</radialGradient>
</defs>
</svg>
