<svg width="24" height="24" viewBox="0 0 24 24" fill="none" xmlns="http://www.w3.org/2000/svg">
<path d="M4.49817 3.61881C4.49817 3.61881 4.68004 2.38319 4.91629 1.88819C5.15254 1.39319 5.52379 0.871935 6.23629 0.733185C7.08567 0.568185 16.9332 0.654435 17.6157 0.69756C18.3038 0.74256 18.7557 0.958185 19.0144 1.38194C19.2113 1.70631 19.2807 2.10194 19.3725 2.68881C19.4213 2.99819 19.5225 3.84569 19.5225 3.84569L4.49817 3.61881Z" fill="#FFA828"/>
<path d="M9.49313 6.9656L4.21313 6.0881C4.21313 6.0881 4.32376 3.90373 4.55251 3.33185C4.78126 2.75998 5.06439 2.41873 5.89501 2.27623C6.72564 2.13373 8.80689 2.19185 11.9288 2.16373C15.0506 2.1356 17.7994 2.32498 18.2869 2.3531C18.7744 2.38123 19.2319 2.62123 19.3744 3.07873C19.5169 3.53623 19.5863 4.15498 19.6894 5.2556C19.7269 5.65498 19.6931 6.4106 19.6931 6.4106L13.6425 6.8231L9.49313 6.9656Z" fill="#F1EDEC"/>
<path d="M4.16812 6.66C4.20375 6.08812 4.215 5.46937 4.65 5.1C5.02312 4.785 5.65312 4.84312 6.3975 4.81312C7.08562 4.78687 8.83125 4.80187 12.1256 4.80187C15.42 4.80187 18.1931 4.85062 18.7087 4.85062C19.2244 4.85062 19.6631 5.25375 19.7194 5.62687C19.7775 6 19.5187 21.78 19.4906 22.1231C19.4625 22.4663 19.3481 23.1544 18.6019 23.2106C17.8575 23.2688 6.14437 23.2688 5.65687 23.2106C5.16937 23.1525 4.74 22.7231 4.65375 21.9225C4.5675 21.1219 4.13812 7.1175 4.16812 6.66Z" fill="#D8CDC9"/>
<path d="M5.55193 9.34872C5.98318 9.40497 6.34131 7.54685 6.90381 7.11372C7.46631 6.68247 8.51818 6.4556 8.51818 6.02435C8.51818 5.80872 7.83568 5.8106 7.20381 5.8181C6.57193 5.8256 6.02818 5.7731 5.72068 6.09935C5.38318 6.4556 5.34943 7.02747 5.32693 7.60122C5.28756 8.52185 5.28568 9.3131 5.55193 9.34872ZM14.8763 22.0293C14.8763 22.3443 15.1069 22.4475 16.3538 22.4043C17.4076 22.3687 17.9288 22.2356 18.2419 21.8587C18.5551 21.4837 18.6413 20.6962 18.6544 19.7512C18.6619 19.0968 18.6451 18.4668 18.3151 18.4668C17.8426 18.4668 17.8444 19.545 17.4676 20.1506C16.7288 21.3393 14.8763 21.6093 14.8763 22.0293Z" fill="#F1EDEC"/>
<path d="M11.25 9.3412C11.25 9.3412 11.1112 8.92683 10.9219 8.68683C10.7325 8.44683 10.5769 8.3587 10.5937 8.22183C10.6106 8.08495 11.0081 7.63495 11.3175 7.61808C11.6269 7.6012 12.5062 7.99683 12.8175 8.25558C13.1287 8.51433 13.1625 8.8762 13.1456 9.08245C13.1287 9.2887 12.99 9.49683 12.99 9.49683C12.99 9.49683 12.8869 19.0275 12.8869 19.4587C12.8869 19.89 12.7837 20.6831 12.2325 20.6831C11.6794 20.6831 11.6081 19.9912 11.5612 19.6312C11.4731 18.975 11.25 9.3412 11.25 9.3412ZM7.21687 10.8243C7.19062 11.1787 8.33625 15.84 8.4225 15.9768C8.50875 16.1137 8.8875 16.5975 9.19875 16.4775C9.50812 16.3575 9.2025 12.8212 9.14625 12.2212C9.07687 11.4806 8.78437 10.8243 8.18062 10.5675C7.57875 10.3068 7.23375 10.5825 7.21687 10.8243Z" fill="#DF0B26"/>
<path d="M8.53308 11.1881C8.53308 11.1881 11.2837 11.0643 12.4218 10.9781C13.3031 10.9106 14.5593 10.8056 14.9381 10.7362C15.3168 10.6668 15.8343 10.4268 15.9731 10.4437C16.1118 10.4606 17.205 11.0043 17.205 11.0737C17.205 11.1431 17.2387 11.4525 17.1881 11.5218C17.1375 11.5912 16.7625 11.97 16.6256 12.3318C16.4868 12.6937 15.8887 15.1143 15.7837 15.27C15.6937 15.4068 14.7487 15.0468 14.7487 15.0468C14.7487 15.0468 15.1443 12.72 15.18 12.5643C15.2156 12.4087 15.0243 12.1856 15.0243 12.1856L8.81058 12.3093L8.53308 11.1881Z" fill="#DF0B26"/>
<path d="M9.02625 14.7713C9.02625 14.7713 13.8862 14.6681 14.265 14.6681C14.6437 14.6681 15.4031 14.5294 15.6431 14.5988C15.8831 14.6681 16.3669 14.9944 16.4362 15.2888C16.5056 15.5831 16.47 15.84 16.1944 15.8756C15.9187 15.9113 9.07687 15.8925 9.07687 15.8925L9.02625 14.7713Z" fill="#DF0B26"/>
</svg>
