<svg width="24" height="24" viewBox="0 0 24 24" fill="none" xmlns="http://www.w3.org/2000/svg">
<g clip-path="url(#clip0_20_1724)">
<path d="M21.75 0.75H2.25C1.42125 0.75 0.75 1.42125 0.75 2.25V21.75C0.75 22.5788 1.42125 23.25 2.25 23.25H21.75C22.5788 23.25 23.25 22.5788 23.25 21.75V2.25C23.25 1.42125 22.5788 0.75 21.75 0.75Z" fill="#BDBDBD"/>
<path d="M20.5688 0.75H2.15625C1.78413 0.752699 1.42801 0.901724 1.16487 1.16486C0.901728 1.428 0.752704 1.78412 0.750004 2.15625V20.5125C0.748129 21.2887 1.37625 21.9169 2.1525 21.9188H20.55C21.3263 21.9206 21.9544 21.2925 21.9563 20.5163V2.15625C21.9731 1.39687 21.3694 0.766875 20.61 0.75H20.5688Z" fill="#E0E0E0"/>
<path d="M7.44372 2.4187C7.44372 1.98745 7.14372 1.8562 5.41872 1.91245C3.97497 1.9687 3.26247 2.13745 2.83122 2.66245C2.47497 3.0937 2.39997 3.71245 2.34372 4.23745C2.30622 4.64995 1.93122 7.0312 2.99997 6.33745C3.12747 6.25307 3.2306 6.13682 3.29997 5.99995C3.52497 5.6062 3.65622 5.3437 3.91872 4.94995C4.91247 3.33745 7.44372 2.9812 7.44372 2.4187Z" fill="white"/>
<path d="M6.75567 18.4838C5.98692 17.9213 5.40192 16.9256 5.40192 15.9019C5.40192 14.1994 6.78755 12.8138 8.49005 12.8138C9.66942 12.8138 10.4325 13.2225 11.0269 14.0794C11.2575 14.4113 11.5519 14.3494 11.5519 13.9875H11.5538L11.5257 13.0294C11.5257 11.3813 10.2919 10.635 7.98005 10.635H6.55317C4.55817 10.635 3.30005 11.5181 3.30005 13.2469V17.9588C3.30005 18.6769 3.88317 19.26 4.6013 19.26H5.8613C5.86505 19.2563 5.86692 19.2525 5.87067 19.2488C6.09567 18.96 6.75567 18.4838 6.75567 18.4838Z" fill="black"/>
<path d="M7.41564 9.95628C8.99172 9.95628 10.2694 8.67861 10.2694 7.10253C10.2694 5.52645 8.99172 4.24878 7.41564 4.24878C5.83956 4.24878 4.56189 5.52645 4.56189 7.10253C4.56189 8.67861 5.83956 9.95628 7.41564 9.95628Z" fill="black"/>
<path d="M17.3607 10.635H15.9338C13.6219 10.635 12.3882 11.3813 12.3882 13.0294L12.3582 14.0869C12.3638 14.2294 12.3975 14.3344 12.54 14.3663C12.6975 14.4019 12.7613 14.2538 12.8457 14.1225C13.4044 13.2413 14.2463 12.8138 15.4257 12.8138C17.1282 12.8138 18.5138 14.1994 18.5138 15.9019C18.5138 16.9256 18.0113 17.8331 17.2407 18.3938C17.2407 18.3938 17.8819 18.8888 18.1894 19.2413C18.195 19.2469 18.1988 19.2525 18.2044 19.2581H19.3107C20.0288 19.2581 20.6119 18.675 20.6119 17.9569V13.2469C20.6138 11.5181 19.3538 10.635 17.3607 10.635Z" fill="black"/>
<path d="M16.5 9.95628C18.0761 9.95628 19.3537 8.67861 19.3537 7.10253C19.3537 5.52645 18.0761 4.24878 16.5 4.24878C14.9239 4.24878 13.6462 5.52645 13.6462 7.10253C13.6462 8.67861 14.9239 9.95628 16.5 9.95628Z" fill="black"/>
<path d="M15.3938 18.2024C16.6644 18.2024 17.6944 17.1724 17.6944 15.9018C17.6944 14.6312 16.6644 13.6012 15.3938 13.6012C14.1232 13.6012 13.0931 14.6312 13.0931 15.9018C13.0931 17.1724 14.1232 18.2024 15.3938 18.2024Z" fill="black"/>
<path d="M13.1081 20.7694C12.9206 20.7694 12.78 20.5913 12.8287 20.4113C13.0837 19.4794 14.1318 18.7219 15.3881 18.7219C16.65 18.7219 17.7 19.4588 17.9512 20.4132C17.9981 20.5932 17.8593 20.7713 17.6718 20.7713C17.6718 20.7694 13.1081 20.7694 13.1081 20.7694Z" fill="black"/>
<path d="M8.53122 18.2024C9.80182 18.2024 10.8318 17.1724 10.8318 15.9018C10.8318 14.6312 9.80182 13.6012 8.53122 13.6012C7.26062 13.6012 6.23059 14.6312 6.23059 15.9018C6.23059 17.1724 7.26062 18.2024 8.53122 18.2024Z" fill="black"/>
<path d="M6.24566 20.7693C6.05816 20.7693 5.91753 20.5912 5.96628 20.4112C6.22128 19.4793 7.26941 18.7218 8.52566 18.7218C9.78753 18.7218 10.8375 19.4587 11.0888 20.4131C11.1357 20.5931 10.9969 20.7712 10.8094 20.7712C10.8094 20.7693 6.24566 20.7693 6.24566 20.7693ZM13.0463 17.7825C12.8888 17.6043 12.5025 17.5162 12.2119 17.7506C12.1032 17.8387 11.9588 18.0262 11.9588 18.0262C11.9588 18.0262 11.8144 17.8387 11.7057 17.7506C11.415 17.5162 11.0288 17.6043 10.8713 17.7825C10.6219 18.0656 10.6613 18.4368 10.9744 18.8212C11.4038 19.3481 11.9588 19.8506 11.9588 19.8525C11.9588 19.8525 12.5138 19.35 12.9432 18.8212C13.2563 18.4368 13.2957 18.0656 13.0463 17.7825Z" fill="black"/>
</g>
<defs>
<clipPath id="clip0_20_1724">
<rect width="24" height="24" fill="white"/>
</clipPath>
</defs>
</svg>
