<svg width="24" height="24" viewBox="0 0 24 24" fill="none" xmlns="http://www.w3.org/2000/svg">
<g clip-path="url(#clip0_20_1736)">
<path d="M20.925 19.4137C22.8487 17.1394 24.4912 13.0537 22.7944 8.36248C21.9675 6.07873 21.0337 4.80373 19.9462 3.99373C19.2844 3.50061 16.6406 2.25936 13.14 2.80123C10.5806 3.19873 7.1625 4.81311 4.94062 7.43998C2.78625 9.99186 1.12312 12.0075 1.04625 13.965C0.946873 16.4831 2.84437 18.6469 3.075 18.9975C3.48562 19.62 6.28687 23.1787 11.55 23.3606C16.1962 23.52 19.2225 21.4275 20.925 19.4137Z" fill="#403D3E"/>
<path d="M5.33057 2.60619C2.90619 4.33681 0.181819 7.87681 0.671194 12.8418C0.909319 15.2587 1.50369 16.7249 2.35682 17.7768C2.87619 18.4181 5.12994 20.3249 8.66057 20.6062C12.2193 20.8893 14.9249 20.0924 17.7506 18.1274C23.4937 14.1318 22.6481 8.09056 22.4024 7.38744C22.1568 6.68431 20.3174 2.54431 15.2606 1.07244C10.7981 -0.225061 7.47557 1.07244 5.33057 2.60619Z" fill="#5E6367"/>
<path d="M9.59064 2.94188C6.92626 2.84626 4.38001 4.93313 4.13439 7.50938C3.88876 10.0838 5.48251 12.045 7.96501 12.4444C10.4475 12.8419 13.3181 11.3344 13.8956 8.17688C14.4919 4.92376 12.135 3.03376 9.59064 2.94188Z" fill="white"/>
<path d="M10.4137 7.35189C10.4137 7.35189 11.055 7.21877 11.1825 6.27377C11.3081 5.34377 10.8468 4.55064 9.77059 4.26564C8.60059 3.95627 7.80746 4.59939 7.60121 5.27627C7.31434 6.21752 7.73809 6.66564 7.73809 6.66564C7.73809 6.66564 6.59059 6.94127 6.49871 8.29502C6.41246 9.57189 7.28434 10.2581 8.15996 10.4681C9.24184 10.7288 10.4681 10.4325 10.7681 9.05252C11.0175 7.91627 10.4137 7.35189 10.4137 7.35189Z" fill="#303030"/>
<path d="M8.60998 5.63057C8.50685 6.0187 8.71311 6.3937 9.11811 6.49682C9.55498 6.60745 9.95248 6.46307 10.0594 6.01682C10.1531 5.6212 9.9656 5.27245 9.50435 5.15995C9.1256 5.0662 8.72248 5.20682 8.60998 5.63057ZM8.93998 7.55995C8.44873 7.40807 7.79998 7.59745 7.69685 8.25745C7.59373 8.91745 7.98935 9.25495 8.50685 9.3487C9.02435 9.44245 9.51373 9.17057 9.60936 8.64182C9.7031 8.11495 9.42936 7.70995 8.93998 7.55995Z" fill="white"/>
</g>
<defs>
<clipPath id="clip0_20_1736">
<rect width="24" height="24" fill="white"/>
</clipPath>
</defs>
</svg>
