<svg width="24" height="24" viewBox="0 0 24 24" fill="none" xmlns="http://www.w3.org/2000/svg">
<path d="M6.13873 11.2125C6.05998 11.1338 1.26561 10.0782 1.26561 10.0782C1.26561 10.0782 0.98623 10.5263 1.06686 10.7907C1.11186 10.9388 2.15811 12.1557 3.23436 13.275C4.08373 14.16 5.04936 15.06 5.18998 15.5738C5.40561 16.365 5.42811 17.6344 5.42811 17.6344L2.30248 19.5432C2.30248 19.5432 2.68498 21.4894 5.16373 21.4125C7.47936 21.3413 7.59936 18.8888 8.33436 18.8757C8.45811 18.8738 8.62873 18.8307 8.93436 19.1588C9.69186 19.9725 11.1094 21.5438 11.5837 22.02C12.2175 22.6538 12.6675 23.2875 12.9056 23.2613C13.1437 23.235 15.1519 21.4388 15.7331 20.8838C16.3144 20.3288 16.8431 19.6688 16.8431 19.1138C16.8431 18.5588 16.0237 18.1369 16.0237 18.1369L11.505 18.6657L6.13873 11.2125ZM19.4287 4.05378C19.5075 4.05378 21.5156 3.05066 21.5156 3.05066C21.5156 3.05066 22.5469 5.13753 21.225 6.32628C19.9031 7.51503 19.6125 6.84191 18.9787 7.54128C18.495 8.07566 18.7406 9.18003 18.7406 9.18003L22.6687 12.9563C22.6687 12.9563 22.8881 13.3557 22.7306 13.6463C22.6181 13.8525 21.2962 15.3319 20.2725 16.395C19.8112 16.8732 19.1681 17.0344 18.8194 16.95C17.9475 16.7382 17.8162 16.0519 17.6569 14.8369C17.4975 13.6219 16.4512 13.6407 16.0706 13.7007C15.2681 13.8282 14.745 14.2969 14.745 14.2969C14.745 14.2969 10.02 8.60253 10.0725 8.44316C10.125 8.28378 10.3106 7.09503 9.75561 6.59441C9.20061 6.09191 8.09248 5.83691 7.66873 5.54628C7.24686 5.25566 7.19061 4.70253 7.26748 4.16628C7.34436 3.63003 10.7606 3.63566 10.7606 3.63566C10.7606 3.63566 16.6519 6.88503 16.68 6.75378C16.7062 6.61503 19.4287 4.05378 19.4287 4.05378Z" fill="#B0B0AF"/>
<path d="M16.5225 4.68568C16.665 4.16443 16.5019 2.8838 17.4975 2.0363C18.4931 1.1888 20.0419 1.2938 20.9738 2.18443C21.9056 3.07505 22.0556 4.74943 20.9531 5.85193C19.8506 6.95443 19.3425 6.33943 18.7275 6.9338C18.1125 7.52818 18.2194 8.01568 18.6 8.37568C18.9825 8.73568 22.7775 12.7013 22.6706 12.9544C22.5638 13.2076 19.9781 16.1344 19.5544 16.3463C19.1306 16.5582 18.3881 16.5376 18.24 15.8382C18.0919 15.1388 18.3469 13.7401 17.2856 13.3782C16.2263 13.0182 15.7594 13.3144 14.7206 14.4169C13.6819 15.5194 13.215 16.7269 14.0625 17.3419C14.91 17.9569 15.9713 17.7019 16.395 18.4238C16.8188 19.1457 16.1831 19.8019 15.06 20.8407C13.9369 21.8794 13.0669 22.7269 12.9188 22.6219C12.7706 22.5151 9.54751 19.1026 9.23064 18.7426C8.91189 18.3826 8.29689 18.0638 7.70439 18.6151C7.11001 19.1663 7.00501 20.9682 4.50376 20.9682C2.00251 20.9682 1.70251 18.2551 2.59314 17.1319C3.48376 16.0088 5.45439 15.9019 5.49751 15.1388C5.51626 14.7882 4.43439 13.8432 3.46314 12.8288C2.32126 11.6344 1.26001 10.3688 1.21501 10.2207C1.13064 9.94505 3.58876 7.52818 4.05564 7.1888C4.52251 6.84943 5.05126 7.0613 5.30626 7.33693C5.56126 7.61255 5.62501 8.46005 5.83689 8.94755C6.04876 9.43505 7.04439 11.5557 9.44064 9.1388C11.8144 6.74255 9.56814 5.7038 8.80501 5.49193C8.04189 5.28005 7.49251 5.21068 7.27876 4.43255C7.11001 3.81755 8.04189 3.09755 9.01689 2.1638C9.99189 1.23005 10.5638 0.742554 10.8188 0.742554C11.0738 0.742554 14.4863 4.41005 14.9325 4.8338C15.3788 5.25755 15.6525 5.36443 15.9713 5.27818C16.2881 5.19568 16.4588 4.92005 16.5225 4.68568Z" fill="url(#paint0_radial_20_1742)"/>
<defs>
<radialGradient id="paint0_radial_20_1742" cx="0" cy="0" r="1" gradientUnits="userSpaceOnUse" gradientTransform="translate(11.6573 -5.3062) scale(22.3547 22.3547)">
<stop offset="0.508" stop-color="#B7D118"/>
<stop offset="0.572" stop-color="#B2D019"/>
<stop offset="0.643" stop-color="#A5CD1D"/>
<stop offset="0.717" stop-color="#8FC922"/>
<stop offset="0.793" stop-color="#70C22A"/>
<stop offset="0.871" stop-color="#48BA34"/>
<stop offset="0.949" stop-color="#18B040"/>
<stop offset="0.981" stop-color="#02AB46"/>
</radialGradient>
</defs>
</svg>
