<svg width="24" height="24" viewBox="0 0 24 24" fill="none" xmlns="http://www.w3.org/2000/svg">
<path d="M11.82 1.41938C6.88503 1.30688 1.44191 5.4 1.54691 12.03C1.63878 17.8594 6.01878 22.2712 11.6944 22.3631C17.37 22.455 22.3988 18.7031 22.4288 12C22.4607 5.24438 17.2482 1.54313 11.82 1.41938Z" fill="#FF2A23"/>
<path d="M11.835 3.78566C7.91998 3.91879 3.96936 6.84004 3.87748 11.9907C3.78561 17.1413 8.28748 20.01 11.835 20.01C16.3387 20.01 20.1019 16.4625 20.0081 11.7432C19.9162 7.02566 16.3687 3.63191 11.835 3.78566Z" fill="#FFFDFE"/>
<path d="M11.9269 5.79193C8.37942 5.7113 5.75817 8.8463 5.7263 11.8369C5.6963 14.8913 7.60692 18.0057 11.865 18.1594C16.1232 18.3132 18.1257 14.9213 18.1875 12.0526C18.2513 9.1838 15.9675 5.8838 11.9269 5.79193Z" fill="#FF2A23"/>
<path d="M7.8712 11.9494C7.8412 14.6325 9.75182 16.1757 12.0656 16.1757C14.1674 16.1757 16.2299 14.85 16.2299 12.0432C16.2299 9.51378 14.3174 8.00253 12.1893 7.91066C10.0612 7.81691 7.9012 9.36003 7.8712 11.9494Z" fill="white"/>
<path d="M9.76875 11.9287C9.65438 13.5281 10.9556 14.2931 12.1275 14.2931C13.2375 14.2931 14.3325 13.5637 14.3644 12.0825C14.3925 10.6912 13.3013 9.84185 12.1275 9.8006C10.9163 9.75935 9.86063 10.6294 9.76875 11.9287Z" fill="#FB2B22"/>
<path d="M12.5137 12.0543L11.8856 12.4031L13.0837 14.1074C13.0837 14.1074 14.01 14.1787 14.2237 13.9368C14.4375 13.6949 14.1956 12.9824 14.1956 12.9824L12.5137 12.0543Z" fill="#CC1935"/>
<path d="M16.3913 10.2018C16.2225 9.85307 16.05 9.5737 15.5925 9.65995C15.1369 9.7462 14.295 10.2299 14.1375 10.4587C13.9932 10.6687 13.8525 10.9293 13.8525 10.9293C13.8525 10.9293 12.24 11.8106 11.985 11.9549C11.5857 12.1837 11.8613 12.6487 12.1425 12.5962C12.5269 12.5249 14.2444 11.8256 14.2444 11.8256C14.2444 11.8256 14.6082 11.9118 14.8219 11.9118C15.0357 11.9118 16.2544 11.3099 16.4194 11.1993C16.6913 11.0137 16.5619 10.5581 16.3913 10.2018Z" fill="#ACB1B5"/>
<path d="M14.19 12.9788C14.19 12.9788 14.1 13.2975 13.7718 13.6275C13.4306 13.9688 13.08 14.1038 13.08 14.1038L14.1618 15.69C14.1618 15.69 14.9662 15.7481 15.5512 15.1781C16.1362 14.6081 15.8812 13.8619 15.8812 13.8619L14.19 12.9788Z" fill="#C8C8C8"/>
<path d="M15.2625 17.3569L14.16 15.6881C14.16 15.6881 14.3438 15.5906 14.5857 15.4256C15.03 15.1219 15.2775 14.88 15.5944 14.385C15.7669 14.1187 15.8775 13.86 15.8775 13.86L17.5819 14.7019C17.5819 14.7019 17.5444 16.0181 16.9875 16.6594C16.4307 17.3006 15.2625 17.3569 15.2625 17.3569Z" fill="#CC1935"/>
<path d="M15.2625 17.3568L16.2093 18.7762C16.2093 18.7762 17.445 18.8981 18.4575 17.685C19.47 16.4718 19.2 15.4743 19.2 15.4743L17.5818 14.7C17.5818 14.7 17.2668 15.4575 16.6406 16.185C16.0143 16.9125 15.2625 17.3568 15.2625 17.3568Z" fill="#C8C8C8"/>
<path d="M17.6119 20.8744L16.2113 18.7781C16.2113 18.7781 17.2669 18.1613 18.0169 17.2744C18.7951 16.3538 19.2019 15.4781 19.2019 15.4781L21.4688 16.605C21.4688 16.605 20.9588 17.9231 19.8282 19.1138C18.7219 20.2744 17.6119 20.8744 17.6119 20.8744Z" fill="#CC1935"/>
<path d="M15.3019 10.7569C15.5138 11.1526 15.8644 11.1563 16.2357 10.9988C16.6069 10.8413 18.36 9.60193 18.36 9.60193C18.36 9.60193 20.7413 10.8001 22.2807 10.2001C23.82 9.60193 23.7769 7.9763 23.7769 7.9763L22.8657 7.3988C22.8657 7.3988 23.5294 7.0538 23.7432 6.9263C23.8482 6.86255 24.0038 6.6263 23.9175 6.41443C23.85 6.24943 23.5913 6.19318 23.3775 6.27943C23.1638 6.36568 22.5469 6.5588 22.5469 6.5588C22.5469 6.5588 22.7925 5.53693 22.7494 5.48068C22.7063 5.42443 22.2638 5.19568 22.2638 5.19568C22.2638 5.19568 20.8238 5.19568 20.6382 5.26693C20.4525 5.33818 19.0275 6.75005 19.0275 6.75005L18.3432 8.14693L18.0507 8.76943C18.0507 8.76943 16.0538 9.6638 15.7538 9.7913C15.4557 9.92068 15.0413 10.2751 15.3019 10.7569Z" fill="#006CA9"/>
<path d="M18.4762 8.59682C18.4762 8.59682 19.3162 7.98932 19.9144 7.68932C20.5125 7.38932 21.6225 7.02369 21.9506 6.98432C22.2787 6.94494 22.4137 7.03307 22.4719 7.18682C22.53 7.34057 22.3369 7.53369 22.1719 7.62182C22.0087 7.70807 21.1387 8.10369 20.175 8.61557C19.2112 9.12744 18.7537 9.50244 18.3637 9.59057C18.1669 9.63557 17.9137 9.45932 17.8987 9.16494C17.8875 8.93619 17.9325 8.74494 18.0825 8.30619C18.2662 7.76619 18.6694 6.95432 19.0087 6.42557C19.5112 5.64369 20.235 5.11307 21.0356 4.96869C21.8362 4.82432 22.4925 5.02682 22.6575 5.16182C22.8206 5.29682 22.8112 5.43557 22.7531 5.48244C22.695 5.52932 22.6087 5.56682 22.1737 5.41307C21.8719 5.30619 20.91 5.30619 20.235 5.80869C19.5525 6.31494 19.3856 6.62807 19.0875 7.17932C18.7894 7.73057 18.4762 8.59682 18.4762 8.59682Z" fill="#1F87FD"/>
</svg>
