<svg width="24" height="24" viewBox="0 0 24 24" fill="none" xmlns="http://www.w3.org/2000/svg">
<g clip-path="url(#clip0_20_1963)">
<path d="M11.9906 0.761272C5.33058 0.667522 0.384328 6.37127 0.716203 12.4706C1.10808 19.6538 6.2437 23.2631 12.2512 23.2219C18.5625 23.1788 23.3512 18.705 23.22 11.9475C23.0906 5.20127 18.1293 0.849397 11.9906 0.761272Z" fill="#C8C8C8"/>
<path d="M6.72374 2.85183C2.06249 5.5237 -0.896256 13.0968 4.06874 18.8268C4.67624 19.5281 5.64187 20.0175 6.37499 20.3512C11.3812 22.6143 17.4394 19.1343 19.7831 16.4812C21.6431 14.3756 22.3275 12.9787 22.1062 10.1043C21.9356 7.86933 20.9794 5.7112 18.9975 4.11558C14.5162 0.500577 9.68437 1.15308 6.72374 2.85183Z" fill="white"/>
<path d="M11.4187 7.46068C11.4019 7.4513 9.66749 6.45568 8.32124 5.95693C6.91874 5.43755 5.88374 5.15818 5.87249 5.1563L6.06562 4.43255C6.10874 4.4438 7.14374 4.7213 8.58187 5.25568C9.98812 5.77693 11.7206 6.77068 11.7937 6.8138L11.4187 7.46068ZM14.4688 5.50393L15.4894 1.8623L16.2116 2.06462L15.1912 5.70624L14.4688 5.50393ZM22.05 10.2226C22.0406 10.2188 21.0431 9.84005 19.9294 9.53818C19.0912 9.3113 18.0112 9.08068 18 9.0788L18.1556 8.34568C18.2006 8.35505 19.2656 8.58193 20.1244 8.81443C21.2775 9.12568 22.275 9.5063 22.3181 9.5213L22.05 10.2226ZM16.1494 17.5801C16.1494 17.5688 16.0556 16.4251 15.8306 15.2551C15.6075 14.1001 15.1819 13.0126 15.1781 13.0032L15.8756 12.7276C15.8944 12.7744 16.3312 13.8882 16.5675 15.1144C16.8 16.3276 16.8937 17.4732 16.8975 17.5219L16.1494 17.5801ZM19.8787 18.6226L19.3837 18.0582C19.3912 18.0526 20.1112 17.4151 21 16.2151C21.8212 15.1051 22.2 14.1338 22.2037 14.1226L22.9031 14.3907C22.8862 14.4338 22.4831 15.4688 21.6019 16.6594C20.6625 17.9307 19.9106 18.5944 19.8787 18.6226ZM6.1588 14.7901L10.4981 10.9169L10.9976 11.4764L6.65812 15.3496L6.1588 14.7901ZM2.42062 13.7532C2.40937 13.6801 2.16187 11.9457 2.16187 10.3594C2.16187 8.77693 2.34187 7.31255 2.35124 7.25068L3.09562 7.34443C3.09374 7.35943 2.91374 8.82568 2.91374 10.3594C2.91374 11.8894 3.16312 13.6294 3.16499 13.6463L2.42062 13.7532ZM13.3687 21.3094C13.3219 21.3038 12.1781 21.1594 10.2 20.5782C8.93999 20.2069 7.49999 19.4457 7.43812 19.4138L7.79062 18.7519C7.80562 18.7594 9.22499 19.5113 10.4119 19.8601C12.3244 20.4226 13.4494 20.5651 13.4606 20.5669L13.3687 21.3094Z" fill="#171717"/>
<path d="M10.0069 6.13504C9.94881 6.28129 10.0257 11.5032 10.1438 11.6588C10.2619 11.8144 15.5119 13.5975 15.7463 13.5394C15.9807 13.4813 18.7819 9.07316 18.7819 8.89691C18.7819 8.72066 15.3357 4.47004 15.1594 4.43066C14.9832 4.39129 10.0857 5.93816 10.0069 6.13504ZM22.0051 6.77629C22.0051 6.77629 21.2326 9.34691 21.2326 9.54379C21.2326 9.73879 21.7032 10.8169 21.9188 12.1482C22.1344 13.4794 21.8213 15.4782 21.9582 15.5569C22.0951 15.6357 22.7738 15.5963 22.7738 15.5963C22.7738 15.5963 23.4282 13.5394 23.1526 10.8957C22.8769 8.25004 22.0051 6.77629 22.0051 6.77629ZM16.4326 17.0063C16.2751 17.0213 12.1426 20.5707 12.1613 20.67C12.1801 20.7675 13.7794 23.1244 13.7794 23.1244C13.7794 23.1244 15.7894 22.965 17.6307 21.9675C19.4719 20.97 20.1713 20.0832 20.1713 20.0832C20.1713 20.0832 20.4263 17.7132 20.3288 17.6944C20.2332 17.6719 16.6294 16.9875 16.4326 17.0063ZM2.64193 12.5794C2.53506 12.6675 1.91631 14.0288 1.74006 14.7938C1.56381 15.5569 1.46631 16.2825 1.46631 16.2825C1.46631 16.2825 1.93693 17.6438 2.64193 18.6525C3.51568 19.9013 4.65193 20.7825 4.65193 20.7825C4.65193 20.7825 8.36068 19.6519 8.38131 19.4944C8.40193 19.3369 7.95006 17.9663 7.63693 16.83C7.32381 15.6938 7.26568 14.4207 7.14756 14.3419C7.02943 14.2632 5.83506 13.8919 4.89568 13.5188C3.95631 13.1457 2.76006 12.4819 2.64193 12.5794ZM1.47943 7.85254C1.47943 7.85254 2.50506 8.73941 2.66256 8.73941C2.82006 8.73941 3.81381 7.42316 4.81693 6.62441C6.16881 5.54629 6.83443 5.19379 6.85506 5.05691C6.87381 4.92004 7.46256 1.64816 7.46256 1.64816C7.46256 1.64816 5.28756 2.47129 3.70131 4.29191C2.11506 6.11254 1.47943 7.85254 1.47943 7.85254ZM12.5719 0.774414C12.5719 0.774414 13.8226 1.41754 14.2782 1.73441C14.7338 2.05129 15.4051 2.72254 15.6038 2.74316C15.8007 2.76379 18.5213 2.76566 18.5213 2.76566C18.5213 2.76566 17.2876 1.92191 15.9207 1.43816C14.2763 0.855039 12.5719 0.774414 12.5719 0.774414Z" fill="#474C4F"/>
</g>
<defs>
<clipPath id="clip0_20_1963">
<rect width="24" height="24" fill="white"/>
</clipPath>
</defs>
</svg>
