<svg width="24" height="24" viewBox="0 0 24 24" fill="none" xmlns="http://www.w3.org/2000/svg">
<g clip-path="url(#clip0_20_1968)">
<path d="M14.7881 13.5488L4.06494 23.0194C4.06494 23.0194 7.28619 24.0769 12.5118 22.2075C17.8724 20.2894 22.4287 15.2513 22.9556 8.90628C23.4131 3.39565 22.4043 2.76003 22.0912 2.35315C21.7856 1.95565 21.2699 1.90503 21.2699 1.90503L14.7881 13.5488Z" fill="#6D2A19"/>
<path d="M5.21818 6.13121C0.721931 11.0531 0.903806 16.8862 1.00318 19.0781C1.06881 20.5406 1.32193 21.2831 2.03256 22.065C2.69631 22.7943 4.08193 23.4468 6.90381 22.8487C9.84193 22.2262 14.3138 20.1712 18.3638 15.5587C22.6594 10.665 23.0119 2.94559 21.8494 2.11496C20.6869 1.28434 18.3301 0.654338 16.0407 0.787463C13.7513 0.920588 9.43506 1.51684 5.21818 6.13121Z" fill="#9C3C25"/>
<path d="M2.00063 22.0368C1.94626 22.0725 1.50938 21.7893 1.49063 21.2718C1.45688 20.3981 2.04751 17.8875 2.88376 15.9693C3.66938 14.1637 4.23188 13.3556 4.23188 13.3556C4.23188 13.3556 3.70126 12.8381 3.72001 11.8743C3.73876 10.9106 4.07251 9.06935 7.74188 5.52372C11.6269 1.76435 12.9375 2.15622 13.56 2.17122C14.0719 2.18435 14.8725 2.4881 14.9325 2.50497C14.9325 2.50497 16.1644 1.7006 17.4319 1.43435C18.6994 1.1681 19.9744 1.31622 20.1825 1.33685C20.3925 1.35747 20.7525 1.4756 21.0394 1.61247C21.3131 1.74185 21.6375 1.9706 21.6375 1.9706C21.6375 1.9706 19.3875 1.69122 17.9231 2.06622C16.4588 2.44122 15.54 2.98872 15.54 2.98872C15.54 2.98872 15.9525 3.71622 15.915 4.2206C15.8606 4.93497 15.3975 5.52372 14.0756 6.88122C12.9225 8.06622 8.78438 12.7312 8.27251 13.2543C7.61251 13.9331 6.79126 14.2537 6.05813 14.1825C5.32688 14.1112 4.88063 13.8262 4.88063 13.8262C4.88063 13.8262 4.07626 15.2006 3.48751 16.6481C2.89876 18.0956 2.50501 19.5768 2.16563 21.255C2.08126 21.6787 2.10188 21.9693 2.00063 22.0368Z" fill="#6D291A"/>
<path d="M4.99318 13.1512C5.4713 13.4343 6.75193 13.5825 7.47943 12.9956C8.20693 12.4106 9.16693 11.0475 11.3438 8.63433C12.9938 6.80808 14.8894 5.25745 14.9794 4.37058C15.0976 3.19683 14.0401 2.77495 12.9038 2.86308C11.7694 2.9512 9.62255 4.51308 7.8488 6.35808C6.07506 8.20308 4.69131 9.95808 4.40818 11.1993C4.23381 11.9625 4.41381 12.8062 4.99318 13.1512Z" fill="#9C3C25"/>
<path d="M12.7482 1.31065C12.7482 1.31065 14.1826 1.5694 15.6544 2.5444C17.1263 3.5194 18.7313 4.79065 19.7138 5.86877C20.2707 6.48002 21.8232 8.4694 21.9132 8.4694C22.0032 8.4694 22.1813 7.28065 22.2357 6.83815C22.2882 6.39565 22.3782 5.96815 22.3238 5.80877C22.2713 5.6494 21.2344 4.26377 19.5563 2.77502C17.6494 1.08377 15.8794 0.783772 15.8794 0.783772C15.8794 0.783772 15.4201 0.766897 14.2632 0.916897C13.4251 1.02752 12.7482 1.31065 12.7482 1.31065ZM1.54318 12.9394C1.54318 12.9394 2.4938 13.1681 4.12505 14.3025C5.96255 15.5813 7.10443 16.59 8.48818 18.0094C9.80256 19.3575 11.2144 21.15 11.2144 21.2569C11.2144 21.3638 10.6557 21.5869 9.8363 21.9469C9.43505 22.1231 8.67193 22.4531 8.54631 22.3988C8.42255 22.3463 7.41568 20.8181 5.84443 19.3031C4.85068 18.345 3.7688 17.3175 2.38505 16.4644C1.50005 15.9206 1.05005 15.8156 1.05005 15.8156C1.05005 15.8156 1.0463 15.1706 1.23193 14.1938C1.3988 13.3294 1.54318 12.9394 1.54318 12.9394Z" fill="#F2F0EE"/>
<path d="M9.96373 6.25504C7.60497 8.49004 4.92935 12.03 4.78122 12.2457C4.52435 12.6169 4.51873 12.9113 4.8506 13.1175C5.18248 13.3238 5.42248 12.9938 5.63248 12.7238C5.86498 12.4257 7.97622 9.37129 10.1812 7.24879C12.7312 4.79816 14.4825 3.64316 14.6962 3.43129C14.8537 3.27379 15.2643 3.09379 14.9269 2.77504C14.67 2.53129 14.1637 2.84629 13.9519 3.00566C13.7381 3.16504 12.4594 3.89066 9.96373 6.25504Z" fill="#FDFFFF"/>
<path d="M12.4088 2.55184C12.0731 2.81246 12.105 3.28871 12.5063 3.60371C12.8119 3.84371 13.4644 4.35934 13.7756 4.64434C14.1544 4.99121 14.5163 5.05684 14.7956 4.83934C15.0881 4.61246 15.24 4.04809 14.7206 3.52684C14.205 3.01121 13.9069 2.70184 13.365 2.48621C13.0125 2.34559 12.6488 2.36809 12.4088 2.55184ZM11.9775 3.83621C11.6681 3.71621 11.1469 3.48184 10.7381 3.85309C10.3294 4.22434 10.545 4.70246 10.9125 4.96871C11.28 5.23496 11.8088 5.75996 12.3338 6.13309C12.6338 6.34496 13.1513 6.51934 13.5188 6.11434C13.8225 5.77871 13.5638 5.22371 13.335 4.94434C13.0688 4.61621 12.5213 4.04621 11.9775 3.83621ZM10.5431 5.37184C10.1419 5.14496 9.46877 4.92746 9.01314 5.39434C8.51439 5.90621 8.79564 6.28309 9.28502 6.58684C9.69564 6.84184 10.5319 7.56184 10.8038 7.74746C11.2481 8.05121 11.8144 7.91809 12.03 7.58434C12.3881 7.03121 11.8988 6.38809 11.5313 6.08809C11.1731 5.79559 10.7063 5.46559 10.5431 5.37184ZM7.44189 6.93371C7.14002 7.28434 7.09502 7.66121 7.56189 8.17121C8.02877 8.68121 8.84627 9.27934 9.31877 9.44059C9.86064 9.62434 10.1213 9.41809 10.3163 9.11434C10.5113 8.81059 10.3575 8.12621 9.85877 7.68184C9.54377 7.40059 8.98127 6.90184 8.28752 6.74996C7.91064 6.66746 7.63689 6.70684 7.44189 6.93371ZM6.69377 8.44309C6.43314 8.36996 6.09752 8.47496 5.90252 8.71496C5.70752 8.95309 5.61377 9.42559 5.84814 9.69184C6.08627 9.96371 6.23064 10.0631 6.63002 10.4081C7.03127 10.755 7.43252 11.1787 7.91064 11.2331C8.24627 11.2706 8.55002 11.1037 8.69252 10.8862C8.83314 10.6687 8.81814 10.185 8.43189 9.76871C8.15814 9.47246 7.46252 8.65871 6.69377 8.44309ZM4.51689 10.4812C4.12127 10.9968 4.33877 11.6962 5.31564 12.3131C6.11627 12.8212 6.82127 13.1775 7.30127 12.5943C7.75127 12.0468 7.31252 11.4881 6.30377 10.7943C5.35877 10.1456 4.87502 10.0162 4.51689 10.4812Z" fill="#FDFFFF"/>
</g>
<defs>
<clipPath id="clip0_20_1968">
<rect width="24" height="24" fill="white"/>
</clipPath>
</defs>
</svg>
