<svg width="24" height="24" viewBox="0 0 24 24" fill="none" xmlns="http://www.w3.org/2000/svg">
<g clip-path="url(#clip0_20_1977)">
<path d="M21.75 0.75H2.25C1.42125 0.75 0.75 1.42125 0.75 2.25V21.75C0.75 22.5788 1.42125 23.25 2.25 23.25H21.75C22.5788 23.25 23.25 22.5788 23.25 21.75V2.25C23.25 1.42125 22.5788 0.75 21.75 0.75Z" fill="#194FA5"/>
<path d="M20.5688 0.75H2.15625C1.78413 0.752699 1.42801 0.901724 1.16487 1.16486C0.901728 1.428 0.752704 1.78412 0.750004 2.15625V20.5125C0.748129 21.2887 1.37625 21.9169 2.1525 21.9188H20.55C21.3263 21.9206 21.9544 21.2925 21.9563 20.5163V2.15625C21.9731 1.39687 21.3694 0.766875 20.61 0.75H20.5688Z" fill="#2262DD"/>
<path opacity="0.3" d="M7.44372 2.4187C7.44372 1.98745 7.14372 1.8562 5.41872 1.91245C3.97497 1.9687 3.26247 2.13745 2.83122 2.66245C2.47497 3.0937 2.39997 3.71245 2.34372 4.23745C2.30622 4.64995 1.93122 7.0312 2.99997 6.33745C3.12747 6.25307 3.2306 6.13682 3.29997 5.99995C3.52497 5.6062 3.65622 5.3437 3.91872 4.94995C4.91247 3.33745 7.44372 2.9812 7.44372 2.4187Z" fill="#68ABE6"/>
<path opacity="0.65" d="M7.44372 2.4187C7.44372 1.98745 7.14372 1.8562 5.41872 1.91245C3.97497 1.9687 3.26247 2.13745 2.83122 2.66245C2.47497 3.0937 2.39997 3.71245 2.34372 4.23745C2.30622 4.64995 1.93122 7.0312 2.99997 6.33745C3.12747 6.25307 3.2306 6.13682 3.29997 5.99995C3.52497 5.6062 3.65622 5.3437 3.91872 4.94995C4.91247 3.33745 7.44372 2.9812 7.44372 2.4187Z" fill="#68ABE6"/>
<path d="M11.6531 6.52871C12.6214 6.52871 13.4063 5.74381 13.4063 4.77559C13.4063 3.80736 12.6214 3.02246 11.6531 3.02246C10.6849 3.02246 9.90002 3.80736 9.90002 4.77559C9.90002 5.74381 10.6849 6.52871 11.6531 6.52871Z" fill="white"/>
<path d="M15.2849 13.5656C15.5999 13.4512 15.7649 13.0931 15.6562 12.765L14.0306 8.0306C13.8187 7.37623 12.8306 6.88123 11.6418 6.88123C10.4568 6.88123 9.47057 7.37435 9.25307 8.02498L7.64807 12.7668C7.53745 13.095 7.70432 13.4531 8.01932 13.5675C8.33432 13.6819 8.67932 13.5094 8.78807 13.1812L9.7537 10.0931C9.77057 10.0406 9.84745 10.0519 9.84745 10.1081V19.0687C9.84745 19.5019 10.1849 19.8544 10.6031 19.8544C11.0212 19.8544 11.3587 19.5019 11.3587 19.0687V13.4587C11.3587 13.2844 11.4937 13.1456 11.6606 13.1456C11.8274 13.1456 11.9624 13.2862 11.9624 13.4587V19.0669C11.9624 19.5 12.2999 19.8525 12.7181 19.8525C13.1362 19.8525 13.4737 19.5 13.4737 19.0669V10.1119C13.4737 10.0556 13.5487 10.0444 13.5674 10.0969L14.5181 13.1812C14.6249 13.5075 14.9718 13.68 15.2849 13.5656Z" fill="white"/>
</g>
<defs>
<clipPath id="clip0_20_1977">
<rect width="24" height="24" fill="white"/>
</clipPath>
</defs>
</svg>
