<svg width="24" height="24" viewBox="0 0 24 24" fill="none" xmlns="http://www.w3.org/2000/svg">
<path d="M8.33997 5.78064H15.585V15.2119H8.33997V5.78064Z" fill="#ACA299"/>
<path d="M12.0956 1.16996C11.5293 1.17746 11.2931 1.95746 9.99559 3.68058C8.98872 5.01933 8.40934 5.51058 8.34747 5.72996C8.31559 5.84621 8.33247 5.90996 8.33247 5.90996H15.5887C15.5887 5.90996 15.6075 5.76183 15.5381 5.65308C15.4912 5.58183 14.6456 4.49621 14.1187 3.76871C12.72 1.84121 12.6225 1.16433 12.0956 1.16996Z" fill="#A62714"/>
<path d="M10.8544 7.67816V9.74628C10.8544 9.93566 10.7813 10.0819 11.0644 10.0613C11.2332 10.0482 13.1007 10.0613 13.1007 10.0613C13.1007 10.0613 13.1007 7.94066 13.0894 7.69879C13.0782 7.45691 12.8063 6.72191 11.9663 6.73316C11.1263 6.74441 10.8638 7.35191 10.8544 7.67816Z" fill="#2F2F2F"/>
<path d="M8.33815 9.97314L15.585 9.98064V10.77L14.6007 11.1844L13.6557 11.94L12.4594 11.1525C12.4594 11.1525 11.61 11.1525 11.5669 11.1844C11.5257 11.2163 10.6219 12.0038 10.6219 12.0038L9.61503 11.175L8.34003 10.8788C8.34003 10.8769 8.33253 9.98064 8.33815 9.97314Z" fill="#D9D1C6"/>
<path d="M8.33813 11.3888C8.33813 11.3888 9.13688 11.2856 9.57376 11.4675C10.0781 11.6775 10.5806 12.4331 10.6556 12.4331C10.815 12.4313 11.1431 11.4581 12.1144 11.3831C13.08 11.3081 13.4681 12.5269 13.6781 12.5381C13.8375 12.5456 14.2069 11.6644 14.6438 11.4263C15.0975 11.1788 15.585 11.1731 15.585 11.1731V10.7663C15.585 10.7663 14.9869 10.7081 14.4975 10.9331C13.9463 11.1881 13.7513 11.7 13.6594 11.7056C13.5938 11.7094 13.1119 10.8788 12.0731 10.9125C11.0963 10.9444 10.7344 11.6531 10.6538 11.655C10.6181 11.6569 10.2281 11.19 9.74251 10.9969C9.16501 10.7663 8.34001 10.8731 8.34001 10.8731L8.33813 11.3888Z" fill="#6F6B67"/>
<path d="M6.98256 15.4688L2.13943 15.8719C2.13943 15.8719 2.09818 22.7119 2.07943 22.9125C2.06068 23.1131 2.13943 23.3156 2.38131 23.3156C2.62318 23.3156 21.5682 23.235 21.7707 23.235C21.9732 23.235 22.1138 22.9519 22.1138 22.71V16.2938L18.9469 15.4875L6.98256 15.4688Z" fill="#ACA299"/>
<path d="M5.61755 15.8944H18.4332L17.8969 13.9182C17.8969 13.9182 15.3169 13.8994 15.1838 13.8994C15.0732 13.8994 15.0019 13.9913 15.0038 14.1282C15.0057 14.2275 15.0019 14.8875 15.0019 14.8875L13.2826 14.8838V14.1657C13.2826 13.9932 13.1776 13.905 12.9863 13.9107C12.8382 13.9144 11.3213 13.905 11.2051 13.9107C11.0344 13.9182 11.0157 14.0194 11.0157 14.1788C11.0157 14.3382 11.0101 14.8538 11.0101 14.8538L9.1538 14.8519C9.1538 14.8519 9.14818 14.2407 9.14818 14.1544C9.14818 14.07 9.10505 13.9632 8.89505 13.9538C8.68318 13.9425 6.21943 13.9538 6.21943 13.9538L5.61755 15.8944Z" fill="#E5DDD2"/>
<path d="M20.4394 10.3838L17.4132 11.4732C17.4132 11.4732 17.4413 12.045 17.55 13.0032C17.6213 13.635 17.7807 14.3925 17.7807 14.3925L20.6588 15.135L22.8788 13.9294C22.8788 13.9294 23.0288 13.245 23.1 12.4219C23.1488 11.865 23.1863 11.4169 23.1525 11.3888C22.8019 11.1038 20.4394 10.3838 20.4394 10.3838ZM0.935669 11.685C0.935669 11.685 1.00317 12.4332 1.06129 12.9469C1.11942 13.4607 1.23004 14.0569 1.23004 14.0569L4.03129 14.7038L6.35067 14.025C6.35067 14.025 6.44254 13.3725 6.47629 12.7332C6.50817 12.1257 6.49504 11.6944 6.47817 11.6813C6.42754 11.64 3.80817 10.4738 3.80817 10.4738L0.935669 11.685Z" fill="#ACA299"/>
<path d="M1.22815 14.0532L6.35252 14.0232C6.35252 14.0232 6.23627 14.8182 6.16877 15.1594C6.10127 15.4988 5.94565 15.8963 5.94565 15.8963L5.94377 23.3025L5.40565 23.3044V16.5507H2.13377C2.13377 16.5507 1.65002 16.1344 1.45877 15.3C1.29377 14.5875 1.22815 14.0532 1.22815 14.0532ZM17.6813 13.8994L22.8769 13.9313C22.8769 13.9313 22.7606 14.5388 22.5431 15.2513C22.4007 15.72 22.1194 16.545 22.1194 16.545H18.6863L18.6244 23.2482L18.1688 23.25L18.2025 16.1588C18.2025 16.1588 18.0319 15.4294 17.895 14.9138C17.7844 14.4882 17.6813 13.8994 17.6813 13.8994Z" fill="#89847E"/>
<path d="M18.5457 11.025V11.8763C18.5457 12.3638 18.5494 12.6975 18.5588 12.9657C18.5644 13.1775 18.6844 13.2994 18.8719 13.2919C19.0838 13.2825 19.11 13.1044 19.11 12.9788C19.11 12.8532 19.0857 11.0138 19.0857 11.0138L18.5457 11.025ZM20.1113 11.0157C20.1113 11.0157 20.115 12.8438 20.1113 12.9807C20.1075 13.1682 20.2125 13.3182 20.3832 13.3182C20.5538 13.3182 20.655 13.155 20.6438 13.005C20.6325 12.855 20.6663 10.9519 20.6663 10.9519L20.1113 11.0157ZM21.7557 11.1113C21.7557 11.1113 21.7425 12.915 21.7425 13.0144C21.7425 13.1138 21.7669 13.3313 22.005 13.3144C22.2169 13.2994 22.2432 13.0763 22.2432 12.9263C22.2432 12.7763 22.2544 11.1244 22.2544 11.1244L21.7557 11.1113Z" fill="#2E2E2F"/>
<path d="M20.0719 7.17375C20.0719 7.17375 20.0551 4.66125 20.0551 4.56C20.0551 4.46063 20.1788 4.33125 20.3438 4.3725C20.7601 4.4775 21.2307 4.76063 21.8888 4.8675C22.5469 4.97438 23.3532 4.84313 23.4788 4.84313C23.6044 4.84313 23.7413 5.0175 23.5032 5.14313C23.2651 5.26875 22.8732 5.68875 22.0332 5.92688C21.2982 6.135 21.0001 6.16875 20.7038 6.315C20.5801 6.37688 20.6419 7.12313 20.6419 7.12313L20.0719 7.17375Z" fill="#FE2A22"/>
<path d="M17.4131 11.4731C17.4131 11.4731 18.345 11.2143 20.3475 11.2406C22.35 11.2668 23.1506 11.3906 23.1506 11.3906C23.1506 11.3906 23.0887 11.1787 22.9012 11.0025C22.7137 10.8262 21.675 9.73871 21.1237 8.28559C20.8219 7.49246 20.8406 6.81934 20.2969 6.83246C19.8206 6.84559 19.7962 7.29559 19.4587 8.25934C19.1212 9.22309 18.9187 9.47996 18.5569 9.99371C18.1931 10.5075 17.8406 10.7925 17.6494 11.0137C17.4056 11.3006 17.4131 11.4731 17.4131 11.4731Z" fill="#A62714"/>
<path d="M1.78308 11.355C1.78308 11.355 1.82246 13.0125 1.82996 13.1475C1.83746 13.2656 1.89371 13.4493 2.10746 13.4418C2.32121 13.4343 2.33808 13.2037 2.33808 13.14C2.33808 13.0762 2.29121 11.2668 2.29121 11.2668L1.78308 11.355ZM3.53808 11.3662C3.53808 11.3662 3.54933 13.0162 3.55496 13.1193C3.56246 13.2693 3.62058 13.4437 3.83058 13.4437C4.04058 13.4437 4.09871 13.245 4.09121 13.1193C4.08558 13.0237 4.08371 11.3587 4.08371 11.3587L3.53808 11.3662ZM5.22371 11.3793C5.22371 11.3793 5.23308 13.0106 5.23308 13.1212C5.23308 13.2712 5.29683 13.44 5.48246 13.44C5.67558 13.44 5.73558 13.3218 5.74308 13.1381C5.75058 12.9543 5.75058 11.4093 5.75058 11.4093L5.22371 11.3793Z" fill="#2E2E2F"/>
<path d="M3.39752 7.43624C3.39752 7.43624 3.38814 4.84124 3.39002 4.74562C3.39564 4.34812 3.93189 4.64812 3.96939 4.65749C4.37252 4.76062 4.88252 4.91999 5.34189 4.99874C5.80127 5.07749 6.84189 5.16562 6.93752 5.17312C7.03314 5.18062 7.11189 5.31562 6.95252 5.39437C6.79314 5.47312 5.55564 5.99812 5.07939 6.18749C4.60314 6.37687 3.92814 6.49687 3.92814 6.49687L3.92064 7.52812L3.39752 7.43624Z" fill="#FF2A23"/>
<path d="M3.66565 7.09682C3.13315 7.10244 2.81815 8.66244 2.3194 9.58307C1.82065 10.5037 1.29565 11.1131 1.14565 11.2518C0.883152 11.4956 0.937527 11.6849 0.937527 11.6849C0.937527 11.6849 2.1319 11.5368 3.74065 11.5256C5.3494 11.5143 6.4894 11.7018 6.4894 11.7018C6.4894 11.7018 6.4594 11.4487 6.25878 11.2256C6.1219 11.0737 5.53315 10.4456 5.06065 9.53244C4.5394 8.52369 4.21315 7.09119 3.66565 7.09682Z" fill="#A62714"/>
<path d="M9.03189 23.2894C9.03189 23.2894 8.96064 20.3625 9.36752 19.3594C9.80064 18.2925 10.4119 17.7169 10.8206 17.2725C11.2313 16.8262 11.9231 16.2169 12.1463 16.1944C12.3731 16.17 13.0969 16.8619 13.6594 17.4487C14.1938 18.0056 14.8669 18.5981 15.1481 19.5937C15.3581 20.3362 15.2925 23.2631 15.2925 23.2631L9.03189 23.2894Z" fill="#6F6A67"/>
<path d="M12.1481 16.8975C12.0412 16.8975 10.2244 18.3937 9.88873 19.7437C9.6206 20.8275 9.6731 23.2875 9.6731 23.2875L14.73 23.265C14.73 23.265 14.8706 20.4262 14.5125 19.5562C13.9519 18.1931 12.255 16.8975 12.1481 16.8975Z" fill="#89847E"/>
<path d="M10.4418 23.2856C10.4418 23.2856 10.4118 20.4675 10.425 20.0944C10.4381 19.7194 10.9593 18.5981 12.1893 18.6244C13.4193 18.6506 13.9537 19.68 13.9668 20.0944C13.98 20.5087 13.9668 23.2687 13.9668 23.2687L10.4418 23.2856Z" fill="#6E4D42"/>
<path d="M10.9181 23.2837L11.3325 23.2818V18.8193C11.3325 18.8193 11.1638 18.9168 11.0794 18.9881C10.9988 19.0556 10.9163 19.1381 10.9163 19.1381L10.9181 23.2837ZM12.0488 23.2781L12.0469 18.6262C12.0469 18.6262 12.1744 18.6206 12.2325 18.6225C12.3113 18.6262 12.4144 18.6412 12.4144 18.6412L12.4444 23.2762L12.0488 23.2781ZM13.2169 18.9412C13.2169 18.9412 13.335 19.0218 13.4231 19.1025C13.5 19.1737 13.5788 19.2675 13.5788 19.2675L13.5806 23.2706L13.1906 23.2725L13.2169 18.9412Z" fill="#8F6D61"/>
<path d="M15.8494 20.1094V19.4307C15.8494 19.4307 17.0644 19.4232 17.0794 19.4419C17.0944 19.4607 17.0907 20.1132 17.0907 20.1132L15.8494 20.1094ZM19.2019 20.8388C19.17 20.8838 19.1588 21.5232 19.1982 21.5344C19.2375 21.5457 20.3569 21.5344 20.3569 21.5344V20.8107C20.3569 20.8088 19.2413 20.7844 19.2019 20.8388ZM9.2794 17.7413V18.4201C9.2794 18.4201 8.06253 18.4501 8.03253 18.4126C8.00253 18.3751 8.00628 17.7657 8.02878 17.7507C8.05128 17.7357 9.2794 17.7413 9.2794 17.7413ZM7.2769 18.9901C7.2769 18.9901 8.47878 18.9826 8.50128 18.9976C8.52378 19.0126 8.52003 19.6744 8.52003 19.6744C8.52003 19.6744 7.31065 19.6932 7.28815 19.6707C7.26565 19.6482 7.2769 18.9901 7.2769 18.9901ZM3.64315 17.3082C3.64315 17.3082 3.61503 17.9419 3.6544 17.9682C3.6919 17.9963 4.90503 18.0001 4.93128 17.9794C4.95753 17.9588 4.95378 17.3251 4.93128 17.3082C4.91065 17.2932 3.64315 17.3082 3.64315 17.3082Z" fill="#D8D0C5"/>
</svg>
