<svg width="24" height="24" viewBox="0 0 24 24" fill="none" xmlns="http://www.w3.org/2000/svg">
<g clip-path="url(#clip0_428_1630)">
<path d="M21.75 0.75H2.25C1.42125 0.75 0.75 1.42125 0.75 2.25V21.75C0.75 22.5788 1.42125 23.25 2.25 23.25H21.75C22.5788 23.25 23.25 22.5788 23.25 21.75V2.25C23.25 1.42125 22.5788 0.75 21.75 0.75Z" fill="#BDBDBD"/>
<path d="M20.5688 0.75H2.15625C1.78413 0.752699 1.42801 0.901724 1.16487 1.16486C0.901728 1.428 0.752704 1.78412 0.750004 2.15625V20.5125C0.748129 21.2887 1.37625 21.9169 2.1525 21.9188H20.55C21.3263 21.9206 21.9544 21.2925 21.9563 20.5163V2.15625C21.9731 1.39687 21.3694 0.766875 20.61 0.75H20.5688Z" fill="#E0E0E0"/>
<path d="M7.44372 2.41876C7.44372 1.98751 7.14372 1.85626 5.41872 1.91251C3.97497 1.96876 3.26247 2.13751 2.83122 2.66251C2.47497 3.09376 2.39997 3.71251 2.34372 4.23751C2.30622 4.65001 1.93122 7.03126 2.99997 6.33751C3.12747 6.25313 3.2306 6.13688 3.29997 6.00001C3.52497 5.60626 3.65622 5.34376 3.91872 4.95001C4.91247 3.33751 7.44372 2.98126 7.44372 2.41876Z" fill="white"/>
<path d="M10.0725 18.3881C9.32059 17.8162 8.83121 16.9162 8.83121 15.9C8.83121 14.325 10.0031 13.0237 11.5181 12.8081C11.4112 11.3137 10.1906 10.6331 7.98371 10.6331H6.55684C4.56184 10.6331 3.30371 11.5162 3.30371 13.245V17.9569C3.30371 18.675 3.88684 19.2581 4.60496 19.2581H8.77121C9.75184 19.26 10.0725 18.3881 10.0725 18.3881Z" fill="black"/>
<path d="M7.41564 9.95625C8.99172 9.95625 10.2694 8.67858 10.2694 7.1025C10.2694 5.52642 8.99172 4.24875 7.41564 4.24875C5.83956 4.24875 4.56189 5.52642 4.56189 7.1025C4.56189 8.67858 5.83956 9.95625 7.41564 9.95625Z" fill="black"/>
<path d="M17.355 10.635H15.9282C13.7213 10.635 12.5007 11.3175 12.3938 12.81C13.9107 13.0238 15.0844 14.3269 15.0844 15.9019C15.0844 16.9163 14.595 17.8181 13.8432 18.39C13.8432 18.39 14.1619 19.26 15.1444 19.26H19.3088C20.0269 19.26 20.61 18.6769 20.61 17.9588V13.2469C20.6082 11.5181 19.3482 10.635 17.355 10.635Z" fill="black"/>
<path d="M16.4944 9.95625C18.0705 9.95625 19.3481 8.67858 19.3481 7.1025C19.3481 5.52642 18.0705 4.24875 16.4944 4.24875C14.9183 4.24875 13.6406 5.52642 13.6406 7.1025C13.6406 8.67858 14.9183 9.95625 16.4944 9.95625Z" fill="black"/>
<path d="M11.9607 18.2025C13.2313 18.2025 14.2613 17.1725 14.2613 15.9019C14.2613 14.6313 13.2313 13.6013 11.9607 13.6013C10.6901 13.6013 9.66003 14.6313 9.66003 15.9019C9.66003 17.1725 10.6901 18.2025 11.9607 18.2025Z" fill="black"/>
<path d="M9.67498 20.7694C9.48748 20.7694 9.34685 20.5912 9.3956 20.4112C9.6506 19.4794 10.6987 18.7219 11.955 18.7219C13.2169 18.7219 14.2669 19.4587 14.5181 20.4131C14.565 20.5931 14.4262 20.7712 14.2387 20.7712C14.2387 20.7694 9.67498 20.7694 9.67498 20.7694Z" fill="black"/>
</g>
<defs>
<clipPath id="clip0_428_1630">
<rect width="24" height="24" fill="white"/>
</clipPath>
</defs>
</svg>
