<svg width="24" height="24" viewBox="0 0 24 24" fill="none" xmlns="http://www.w3.org/2000/svg">
<g clip-path="url(#clip0_20_1666)">
<path d="M13.4925 9.93751C13.4925 9.93751 12.8306 12.1744 12.555 12.8119L11.7318 14.8781C11.6006 15.1688 11.7168 15.5494 11.9925 15.7088C12.3093 15.8906 12.7687 15.7538 12.9206 15.4219L15.2718 10.47L15.0825 9.82126L13.4925 9.93751Z" fill="url(#paint0_linear_20_1666)"/>
<path d="M12.4443 13.0931L12.1106 13.9294L12.3806 14.4469L13.1137 15.0225L13.8018 13.5713L12.4443 13.0931Z" fill="url(#paint1_linear_20_1666)"/>
<path d="M19.7925 13.9894V23.0044H18.7332L17.2575 15.84C17.25 15.795 17.2125 15.7631 17.1713 15.7631C17.13 15.7631 17.0925 15.795 17.085 15.84L15.6094 23.0044H14.55V13.9894H19.7925Z" fill="#7C7C7C"/>
<path d="M19.2394 23.25H20.0738C20.2275 23.2463 20.3381 23.07 20.2931 22.9163C20.1544 22.4475 19.7325 22.1063 19.2394 22.1063C18.7369 22.1063 18.3094 22.4625 18.1781 22.9425C18.1369 23.0963 18.2513 23.2481 18.405 23.2481C18.405 23.25 19.2394 23.25 19.2394 23.25ZM15.105 23.25H14.2706C14.1169 23.2463 14.0063 23.07 14.0513 22.9163C14.19 22.4475 14.6119 22.1063 15.105 22.1063C15.6075 22.1063 16.035 22.4625 16.1663 22.9425C16.2075 23.0963 16.0931 23.2481 15.9394 23.2481C15.9394 23.25 15.105 23.25 15.105 23.25Z" fill="#424242"/>
<path d="M18.7688 10.1437L20.5875 10.0312C20.5875 10.0312 21.4313 11.9063 21.7125 12.5306C21.7125 12.5306 22.5075 13.7156 22.8694 14.25C23.2219 14.61 23.3119 14.7413 23.4394 15.2231C23.58 15.7538 23.5144 16.0444 23.4469 16.1719C23.3813 16.3012 23.025 16.6331 22.8057 16.4306C22.5732 16.215 22.59 15.4519 22.3725 15.5044C22.26 15.5325 22.4025 15.7594 22.4157 15.9844C22.4288 16.2094 22.2563 16.2488 22.1344 16.1869C22.0725 16.155 21.7875 15.6788 21.7875 15.6788L21.6657 14.8894L18.8288 10.9088L18.7688 10.1437Z" fill="url(#paint2_linear_20_1666)"/>
<path d="M15.1763 8.41314C15.63 8.29314 16.4231 8.21439 17.1731 8.21439C17.9231 8.21251 18.7088 8.29314 19.1625 8.41314C20.5781 8.79001 20.9288 9.45564 21.3506 10.5975L19.7981 11.1975V14.625H14.5481V11.1975L12.9788 10.5975C13.4006 9.45564 13.7606 8.79001 15.1763 8.41314Z" fill="url(#paint3_linear_20_1666)"/>
<path d="M19.9913 6.93937C19.89 6.75562 20.0194 6.56812 20.2388 6.33562C20.5875 5.96812 20.9682 5.115 20.6157 4.24687C20.6175 4.24125 20.5463 4.095 20.5482 4.09125L20.4019 4.08375C20.355 4.07625 18.7594 4.07437 17.1619 4.07437C15.5644 4.07437 13.9688 4.07812 13.9219 4.08375C13.9219 4.08375 13.7063 4.24125 13.7082 4.24687C13.3557 5.11312 13.7344 5.96625 14.085 6.33562C14.3044 6.56812 14.4338 6.75562 14.3325 6.93937C14.235 7.1175 13.9425 7.14375 13.9425 7.14375C13.9425 7.14375 14.01 7.3275 14.1713 7.425C14.3213 7.51687 14.5069 7.5375 14.6344 7.54125C14.6344 7.54125 15.1332 8.23125 16.4363 8.23125H17.8875C19.1907 8.23125 19.6894 7.54125 19.6894 7.54125C19.8169 7.5375 20.0007 7.51687 20.1525 7.425C20.3157 7.32562 20.3813 7.14375 20.3813 7.14375C20.3813 7.14375 20.0888 7.1175 19.9913 6.93937Z" fill="#543930"/>
<path d="M17.1619 8.23125V7.46625L19.4775 7.2825L19.6875 7.54125C19.6875 7.54125 19.1887 8.23125 17.8856 8.23125H17.1619Z" fill="url(#paint4_radial_20_1666)"/>
<path d="M19.6838 7.20751C19.3369 6.68064 20.1056 6.48376 20.1056 6.48376C19.9725 6.65064 19.9106 6.79501 19.9894 6.93751C20.0869 7.11564 20.3794 7.14189 20.3794 7.14189C20.3794 7.14189 19.9819 7.49814 19.6838 7.20751Z" fill="url(#paint5_radial_20_1666)"/>
<path d="M20.6175 4.24686C20.9625 5.08686 20.5988 5.94936 20.2594 6.31499C20.2125 6.36561 20.0156 6.55874 19.9706 6.71436C19.9706 6.71436 19.1981 5.63624 18.9656 5.00249C18.9188 4.87499 18.8775 4.74186 18.8719 4.60686C18.8681 4.50561 18.8831 4.38374 18.9431 4.29749C19.0144 4.19061 20.5781 4.16061 20.5781 4.16061C20.5763 4.15874 20.6175 4.24686 20.6175 4.24686Z" fill="url(#paint6_radial_20_1666)"/>
<path d="M13.71 4.24688C13.365 5.08688 13.7288 5.94938 14.0682 6.315C14.115 6.36563 14.3119 6.55875 14.3569 6.71438C14.3569 6.71438 15.1294 5.63625 15.3619 5.0025C15.4088 4.875 15.45 4.74188 15.4557 4.60688C15.4594 4.50563 15.4444 4.38375 15.3844 4.2975C15.3132 4.19063 15.2288 4.21875 15.105 4.21875C14.8707 4.21875 13.8507 4.15875 13.77 4.15875C13.7719 4.15875 13.71 4.24688 13.71 4.24688Z" fill="url(#paint7_radial_20_1666)"/>
<path d="M17.1656 8.23125V7.46625L14.85 7.2825L14.64 7.54125C14.64 7.54125 15.1388 8.23125 16.4419 8.23125H17.1656Z" fill="url(#paint8_radial_20_1666)"/>
<path d="M14.6437 7.20751C14.9906 6.68064 14.2219 6.48376 14.2219 6.48376C14.355 6.65064 14.4169 6.79501 14.3381 6.93751C14.2406 7.11564 13.9481 7.14189 13.9481 7.14189C13.9481 7.14189 14.3437 7.49814 14.6437 7.20751Z" fill="url(#paint9_radial_20_1666)"/>
<path d="M17.1638 7.635H16.2263V8.62875C16.2263 9.07875 16.6088 9.4425 17.0775 9.4425H17.25C17.7207 9.4425 18.1013 9.07875 18.1013 8.62875V7.635H17.1638ZM19.41 4.56375H14.9194C14.4357 4.56375 14.04 4.98563 14.04 5.50125C14.04 6.01688 14.4357 6.43875 14.9194 6.43875H19.41C19.8938 6.43875 20.2894 6.01688 20.2894 5.50125C20.2894 4.98563 19.8938 4.56375 19.41 4.56375Z" fill="#99674F"/>
<path d="M17.1638 1.24875C15.735 1.24875 14.4094 2.77687 14.4094 4.97812C14.4094 7.16625 15.7744 8.24812 17.1638 8.24812C18.5532 8.24812 19.9182 7.16625 19.9182 4.97812C19.9163 2.77687 18.5925 1.24875 17.1638 1.24875Z" fill="#BA8D68"/>
<path d="M20.4112 2.50126C20.2125 2.20126 19.77 1.80001 19.3725 1.77376C19.3087 1.39126 18.9 1.06688 18.5025 0.941258C17.43 0.601883 16.7325 0.982508 16.3575 1.18688C16.2787 1.23001 15.7762 1.50938 15.4237 1.30876C15.2025 1.18313 15.2062 0.843758 15.2062 0.843758C15.2062 0.843758 14.5143 1.10626 14.7506 1.84126C14.5143 1.85063 14.2012 1.95188 14.0362 2.28376C13.8393 2.68126 13.9087 3.01313 13.9668 3.17251C13.7625 3.34501 13.5056 3.71438 13.6818 4.19438C13.815 4.55438 14.3437 4.72126 14.3437 4.72126C14.3062 5.37001 14.4281 5.76938 14.4918 5.93251C14.5031 5.96063 14.5425 5.95876 14.55 5.92876C14.6306 5.60813 14.9043 4.48688 14.8762 4.29001C14.8762 4.29001 15.795 4.10813 16.6725 3.46126C16.8506 3.33001 17.0437 3.21751 17.25 3.13501C18.3525 2.69626 18.5831 3.44438 18.5831 3.44438C18.5831 3.44438 19.3462 3.29813 19.5768 4.35751C19.6631 4.75501 19.7231 5.39063 19.7718 5.83688C19.7756 5.86876 19.8187 5.87438 19.83 5.84626C19.9068 5.67001 20.0606 5.31938 20.0981 4.96126C20.1112 4.83563 20.4506 4.66876 20.595 4.12876C20.7937 3.41063 20.5537 2.71876 20.4112 2.50126Z" fill="#543930"/>
<path d="M20.0981 4.965C20.1112 4.83937 20.4506 4.6725 20.595 4.1325C20.61 4.07437 20.6231 4.01625 20.6362 3.95812C20.7543 3.30187 20.5425 2.7 20.4093 2.50125C20.2256 2.22375 19.8337 1.86187 19.4606 1.78687C19.4287 1.78312 19.3968 1.77937 19.3668 1.7775C19.3668 1.7775 19.3931 1.95187 19.3237 2.09062C19.2318 2.27062 19.0481 2.31375 19.0481 2.31375C20.0193 3.285 19.95 4.09687 20.0981 4.965Z" fill="url(#paint10_radial_20_1666)"/>
<path d="M16.5919 1.06499C16.5037 1.10811 16.425 1.15124 16.3575 1.18686C16.2787 1.22999 15.7762 1.50936 15.4237 1.30874C15.2062 1.18686 15.2062 0.856862 15.2062 0.845612C15.1069 0.973112 14.805 1.88249 15.6862 1.94249C16.0669 1.96874 16.3012 1.63686 16.44 1.35561C16.4906 1.25436 16.5694 1.10624 16.5919 1.06499Z" fill="url(#paint11_radial_20_1666)"/>
<path d="M18.3919 0.909371C18.9862 1.07062 19.275 1.3725 19.3706 1.77562C19.3987 1.89375 19.4325 2.99812 17.325 1.74375C16.5412 1.27687 16.755 0.984371 16.8469 0.952496C17.205 0.821246 17.7262 0.729371 18.3919 0.909371Z" fill="url(#paint12_radial_20_1666)"/>
<path d="M15.2044 0.845625C15.2026 0.845625 15.2026 0.8475 15.1988 0.8475C15.1238 0.879375 14.5313 1.15312 14.7526 1.84125L15.3826 1.9425C14.8238 1.37625 15.2063 0.84375 15.2063 0.84375L15.2044 0.845625Z" fill="url(#paint13_radial_20_1666)"/>
<path d="M15.1425 1.90314L14.7525 1.83939C14.7375 1.83939 14.685 1.84314 14.6569 1.84876C14.4375 1.87876 14.1787 1.99314 14.0381 2.28376C13.8881 2.59689 13.8919 2.86501 13.9331 3.04501C13.9444 3.10501 13.9687 3.17251 13.9687 3.17251C13.9687 3.17251 14.1619 2.98876 14.6212 2.97751L15.1425 1.90314Z" fill="url(#paint14_radial_20_1666)"/>
<path d="M13.95 3.18749C13.7587 3.35812 13.5 3.73874 13.6894 4.20937C13.8337 4.56562 14.3456 4.71937 14.3456 4.71937C14.3456 4.72124 14.4487 4.75124 14.5012 4.75124L14.6212 2.97562C14.3756 2.97562 14.1394 3.04874 13.9875 3.15562C13.9894 3.15937 13.95 3.18562 13.95 3.18749Z" fill="url(#paint15_radial_20_1666)"/>
<path d="M17.8556 6.74812C17.5931 6.90374 16.7362 6.90374 16.4737 6.74812C16.3237 6.65812 16.1699 6.79499 16.2318 6.93187C16.2937 7.06687 16.7606 7.37812 17.1656 7.37812C17.5706 7.37812 18.0318 7.06687 18.0937 6.93187C18.1556 6.79499 18.0056 6.65812 17.8556 6.74812Z" fill="#5D4037"/>
<path d="M17.4807 6.07501C17.4721 6.07187 17.4633 6.06936 17.4544 6.0675H16.8732C16.8638 6.06938 16.8544 6.07126 16.8469 6.07501C16.7944 6.09563 16.7644 6.15 16.7907 6.21C16.815 6.26813 16.9313 6.43125 17.1638 6.43125C17.3963 6.43125 17.5125 6.26813 17.5369 6.21C17.5613 6.15188 17.5332 6.09751 17.4807 6.07501Z" fill="#99674F"/>
<path d="M15.8137 5.73188C16.0374 5.73188 16.2187 5.54384 16.2187 5.31188C16.2187 5.07992 16.0374 4.89188 15.8137 4.89188C15.59 4.89188 15.4087 5.07992 15.4087 5.31188C15.4087 5.54384 15.59 5.73188 15.8137 5.73188Z" fill="#49362E"/>
<path d="M18.5136 5.73188C18.7373 5.73188 18.9186 5.54384 18.9186 5.31188C18.9186 5.07992 18.7373 4.89188 18.5136 4.89188C18.29 4.89188 18.1086 5.07992 18.1086 5.31188C18.1086 5.54384 18.29 5.73188 18.5136 5.73188Z" fill="#49362E"/>
<path d="M17.9138 4.56C17.9907 4.45875 18.1688 4.30875 18.5157 4.30875C18.8625 4.30875 19.0407 4.45687 19.1175 4.56C19.1513 4.605 19.1438 4.6575 19.1194 4.68937C19.0969 4.71937 19.0332 4.74562 18.9619 4.72125C18.8907 4.69687 18.75 4.62562 18.5175 4.62375C18.2832 4.62562 18.1444 4.69687 18.0732 4.72125C18.0019 4.74562 17.9363 4.71937 17.9157 4.68937C17.8999 4.67158 17.8911 4.64876 17.8908 4.62503C17.8904 4.6013 17.8986 4.57823 17.9138 4.56ZM15.21 4.56C15.2869 4.45875 15.465 4.30875 15.8119 4.30875C16.1588 4.30875 16.3369 4.45687 16.4138 4.56C16.4475 4.605 16.44 4.6575 16.4157 4.68937C16.3932 4.71937 16.3294 4.74562 16.2582 4.72125C16.1869 4.69687 16.0463 4.62562 15.8138 4.62375C15.5794 4.62562 15.4407 4.69687 15.3694 4.72125C15.2982 4.74562 15.2325 4.71937 15.2119 4.68937C15.197 4.6712 15.1887 4.64851 15.1884 4.62501C15.188 4.60151 15.1957 4.57859 15.21 4.56Z" fill="#613E31"/>
<path d="M4.22437 13.9894V23.0044H5.28374L6.75937 15.84C6.76687 15.795 6.80436 15.7631 6.84561 15.7631C6.88686 15.7631 6.92437 15.795 6.93187 15.84L8.40749 23.0044H9.46687V13.9894H4.22437Z" fill="#7C7C7C"/>
<path d="M4.7775 23.25H3.94313C3.78938 23.2463 3.67875 23.07 3.72375 22.9163C3.8625 22.4475 4.28438 22.1063 4.7775 22.1063C5.28 22.1063 5.7075 22.4625 5.83875 22.9425C5.88 23.0963 5.76563 23.2481 5.61188 23.2481C5.61188 23.25 4.7775 23.25 4.7775 23.25ZM8.91188 23.25H9.74625C9.9 23.2463 10.0106 23.07 9.96563 22.9163C9.82688 22.4475 9.405 22.1063 8.91188 22.1063C8.40938 22.1063 7.98188 22.4625 7.85063 22.9425C7.80938 23.0963 7.92375 23.2481 8.0775 23.2481C8.0775 23.25 8.91188 23.25 8.91188 23.25Z" fill="#424242"/>
<path d="M5.24814 10.1437L3.42939 10.0312C3.42939 10.0312 2.58564 11.9063 2.30439 12.5306C2.30439 12.5306 1.50939 13.7156 1.14752 14.25C0.795018 14.61 0.705018 14.7413 0.577518 15.2231C0.436893 15.7538 0.502518 16.0444 0.570018 16.1719C0.637518 16.2994 0.991893 16.6331 1.21127 16.4306C1.44377 16.215 1.42689 15.4519 1.64439 15.5044C1.75689 15.5325 1.61439 15.7594 1.60127 15.9844C1.58814 16.2094 1.76064 16.2488 1.88252 16.1869C1.94439 16.155 2.22939 15.6788 2.22939 15.6788L2.35127 14.8894L5.18814 10.9069L5.24814 10.1437Z" fill="url(#paint16_linear_20_1666)"/>
<path d="M8.79932 10.7775L11.4524 15.1856C11.4524 15.1856 11.1656 15.6769 11.3793 16.1063C11.6793 16.3219 11.8143 15.6806 11.9306 15.6638C12.1537 15.63 12.5081 16.5188 12.7443 16.5188C13.1962 16.7138 13.4062 16.11 13.4137 15.7538C13.5843 15.1331 12.4068 14.4806 12.4068 14.4806C12.0918 13.9181 11.5312 12.6431 11.5312 12.6431C11.3043 11.9963 10.6274 10.0556 10.6274 10.0556L8.80682 10.0088L8.79932 10.7775Z" fill="url(#paint17_linear_20_1666)"/>
<path d="M8.82745 8.41314C8.3737 8.29314 7.58058 8.21439 6.83058 8.21439C6.08058 8.21251 5.29495 8.29314 4.8412 8.41314C3.42558 8.79001 3.07495 9.45564 2.65308 10.5975L4.20558 11.1975V14.625H9.45558V11.1975L11.025 10.5975C10.6012 9.45564 10.2412 8.79001 8.82745 8.41314Z" fill="url(#paint18_linear_20_1666)"/>
<path d="M9.66566 6.93937C9.56441 6.75562 9.69378 6.56812 9.91316 6.33562C10.2619 5.96812 10.6425 5.115 10.29 4.24687C10.2919 4.24125 10.2207 4.095 10.2225 4.09125L10.0763 4.08375C10.0294 4.07625 8.43378 4.07437 6.83628 4.07437C5.23878 4.07437 3.64316 4.07812 3.59628 4.08375C3.59628 4.08375 3.38066 4.24125 3.38253 4.24687C3.03003 5.11312 3.41066 5.96625 3.75941 6.33562C3.97878 6.56812 4.10816 6.75562 4.00691 6.93937C3.90941 7.1175 3.61691 7.14375 3.61691 7.14375C3.61691 7.14375 3.68441 7.3275 3.84753 7.425C3.99753 7.51687 4.18128 7.5375 4.31066 7.54125C4.31066 7.54125 4.80941 8.23125 6.11253 8.23125H7.56378C8.86691 8.23125 9.36566 7.54125 9.36566 7.54125C9.49316 7.5375 9.67691 7.51687 9.82878 7.425C9.99191 7.32562 10.0575 7.14375 10.0575 7.14375C10.0575 7.14375 9.76316 7.1175 9.66566 6.93937Z" fill="#312D2D"/>
<path d="M6.83435 8.23125V7.46625L9.14998 7.2825L9.35998 7.54125C9.35998 7.54125 8.86123 8.23125 7.5581 8.23125H6.83435Z" fill="url(#paint19_radial_20_1666)"/>
<path d="M9.35626 7.20751C9.00938 6.68064 9.77813 6.48376 9.77813 6.48376C9.64501 6.65064 9.58313 6.79501 9.66188 6.93751C9.75938 7.11564 10.0519 7.14189 10.0519 7.14189C10.0519 7.14189 9.65626 7.49814 9.35626 7.20751Z" fill="url(#paint20_radial_20_1666)"/>
<path d="M10.29 4.24686C10.635 5.08686 10.2713 5.94936 9.93191 6.31499C9.88503 6.36561 9.68816 6.55874 9.64316 6.71436C9.64316 6.71436 8.87066 5.63624 8.63816 5.00249C8.59128 4.87499 8.55003 4.74186 8.54253 4.60686C8.53878 4.50561 8.55378 4.38374 8.61378 4.29749C8.68503 4.19061 10.2488 4.16061 10.2488 4.16061C10.2488 4.15874 10.29 4.24686 10.29 4.24686Z" fill="url(#paint21_radial_20_1666)"/>
<path d="M3.38253 4.24688C3.03753 5.08688 3.40128 5.94938 3.74065 6.315C3.78753 6.36563 3.9844 6.55875 4.0294 6.71438C4.0294 6.71438 4.8019 5.63625 5.0344 5.0025C5.08128 4.875 5.1244 4.74188 5.12815 4.60688C5.1319 4.50563 5.1169 4.38375 5.0569 4.2975C4.98565 4.19063 4.90128 4.21875 4.77753 4.21875C4.54315 4.21875 3.52315 4.15875 3.44253 4.15875C3.44628 4.15875 3.38253 4.24688 3.38253 4.24688Z" fill="url(#paint22_radial_20_1666)"/>
<path d="M6.83813 8.23125V7.46625L4.5225 7.2825L4.3125 7.54125C4.3125 7.54125 4.81125 8.23125 6.11438 8.23125H6.83813Z" fill="url(#paint23_radial_20_1666)"/>
<path d="M4.31623 7.20751C4.66311 6.68064 3.89436 6.48376 3.89436 6.48376C4.02748 6.65064 4.08936 6.79501 4.01061 6.93751C3.91311 7.11564 3.62061 7.14189 3.62061 7.14189C3.62061 7.14189 4.01811 7.49814 4.31623 7.20751Z" fill="url(#paint24_radial_20_1666)"/>
<path d="M6.83815 7.635H7.77565V8.62875C7.77565 9.07875 7.39502 9.4425 6.92252 9.4425H6.7519C6.28127 9.4425 5.89877 9.07875 5.89877 8.62875V7.635H6.83815ZM9.08252 4.56375H4.5919C4.10815 4.56375 3.71252 4.98563 3.71252 5.50125C3.71252 6.01688 4.10815 6.43875 4.5919 6.43875H9.08252C9.56627 6.43875 9.9619 6.01688 9.9619 5.50125C9.9619 4.98563 9.56627 4.56375 9.08252 4.56375Z" fill="#EDC391"/>
<path d="M6.83628 1.24875C5.40753 1.24875 4.08191 2.77687 4.08191 4.97812C4.08191 7.16625 5.44691 8.24812 6.83628 8.24812C8.22566 8.24812 9.59066 7.16625 9.59066 4.97812C9.59066 2.77687 8.26503 1.24875 6.83628 1.24875Z" fill="#F9DDBD"/>
<path d="M7.52818 6.74812C7.26568 6.90374 6.4088 6.90374 6.1463 6.74812C5.9963 6.65812 5.84255 6.79499 5.90443 6.93187C5.9663 7.06687 6.43318 7.37812 6.83818 7.37812C7.24318 7.37812 7.70443 7.06687 7.7663 6.93187C7.83005 6.79499 7.67818 6.65812 7.52818 6.74812Z" fill="#444444"/>
<path d="M10.0838 2.50124C9.88504 2.20124 9.44254 1.79999 9.04504 1.77374C8.98129 1.39124 8.57254 1.06874 8.17504 0.94312C7.10254 0.603745 6.40504 0.98437 6.03004 1.18874C5.95129 1.23187 5.44879 1.51124 5.09629 1.31062C4.87504 1.18499 4.87879 0.84562 4.87879 0.84562C4.87879 0.84562 4.18691 1.10812 4.42504 1.84312C4.18879 1.85249 3.87566 1.95374 3.71066 2.28562C3.51379 2.68312 3.58504 3.01499 3.64129 3.17437C3.43691 3.34687 3.18004 3.71624 3.35629 4.19624C3.48941 4.55625 4.01816 4.72312 4.01816 4.72312C3.98066 5.37187 4.10254 5.77125 4.16629 5.93437C4.17754 5.9625 4.21691 5.96062 4.22441 5.93062C4.30504 5.60999 4.57879 4.48874 4.55066 4.29187C4.55066 4.29187 5.47129 4.10999 6.34691 3.46312C6.52504 3.33187 6.71816 3.21937 6.92441 3.13687C8.02691 2.69812 8.25566 3.44624 8.25566 3.44624C8.25566 3.44624 9.01879 3.29999 9.24941 4.35937C9.33566 4.75687 9.39566 5.3925 9.44441 5.83875C9.44816 5.87062 9.49129 5.87625 9.50254 5.84812C9.57941 5.67187 9.73316 5.32125 9.77066 4.96312C9.78379 4.83749 10.1232 4.67062 10.2675 4.13062C10.4663 3.41062 10.2282 2.71874 10.0838 2.50124Z" fill="#312D2D"/>
<path d="M9.77253 4.965C9.78566 4.83937 10.125 4.6725 10.2694 4.1325C10.2844 4.07437 10.2975 4.01625 10.3107 3.95812C10.4288 3.30187 10.2169 2.7 10.0838 2.50125C9.90003 2.22375 9.50816 1.86187 9.13503 1.78687C9.10316 1.78312 9.07128 1.77937 9.04128 1.7775C9.04128 1.7775 9.06753 1.95187 8.99816 2.09062C8.90628 2.27062 8.72253 2.31375 8.72253 2.31375C9.69191 3.285 9.62253 4.09687 9.77253 4.965Z" fill="url(#paint25_radial_20_1666)"/>
<path d="M6.26434 1.06499C6.17621 1.10811 6.09746 1.15124 6.02996 1.18686C5.95121 1.22999 5.44871 1.50936 5.09621 1.30874C4.87871 1.18499 4.87871 0.856862 4.87871 0.845612C4.77934 0.973112 4.47746 1.88249 5.35871 1.94249C5.73934 1.96874 5.97371 1.63686 6.11246 1.35561C6.16496 1.25436 6.24371 1.10624 6.26434 1.06499Z" fill="url(#paint26_radial_20_1666)"/>
<path d="M8.06435 0.909371C8.65872 1.07062 8.94747 1.3725 9.0431 1.77562C9.07122 1.89375 9.10497 2.99812 6.99747 1.74375C6.21372 1.27687 6.42747 0.984371 6.51935 0.952496C6.87935 0.821246 7.4006 0.729371 8.06435 0.909371Z" fill="url(#paint27_radial_20_1666)"/>
<path d="M4.87692 0.845625C4.87504 0.845625 4.87504 0.8475 4.87129 0.8475C4.79629 0.879375 4.20379 1.15312 4.42504 1.84125L5.05504 1.9425C4.49629 1.37625 4.87879 0.84375 4.87879 0.84375C4.87879 0.84375 4.87879 0.845625 4.87692 0.845625Z" fill="url(#paint28_radial_20_1666)"/>
<path d="M4.81498 1.90312L4.42498 1.84125C4.40998 1.84125 4.35748 1.845 4.32936 1.85062C4.10998 1.88062 3.85123 1.995 3.71061 2.28562C3.56061 2.59875 3.56436 2.86687 3.60561 3.04687C3.61686 3.10687 3.64123 3.17437 3.64123 3.17437C3.64123 3.17437 3.83436 2.99062 4.29373 2.97937L4.81498 1.90312Z" fill="url(#paint29_radial_20_1666)"/>
<path d="M3.62443 3.18749C3.43318 3.35812 3.17443 3.73874 3.36381 4.20937C3.50818 4.56562 4.02006 4.71937 4.02006 4.71937C4.02006 4.72124 4.12318 4.75124 4.17568 4.75124L4.29568 2.97562C4.05006 2.97562 3.81381 3.04874 3.66193 3.15562C3.66193 3.15937 3.62256 3.18562 3.62443 3.18749Z" fill="url(#paint30_radial_20_1666)"/>
<path d="M7.15316 6.07501C7.1446 6.07187 7.13583 6.06936 7.12691 6.0675H6.54566C6.53628 6.06938 6.52691 6.07126 6.51941 6.07501C6.46691 6.09563 6.43691 6.15 6.46316 6.21C6.48941 6.27 6.60378 6.43125 6.83628 6.43125C7.06878 6.43125 7.18503 6.26813 7.20941 6.21C7.23378 6.15188 7.20566 6.09751 7.15316 6.07501Z" fill="#DBA689"/>
<path d="M5.4863 5.73188C5.70997 5.73188 5.8913 5.54384 5.8913 5.31188C5.8913 5.07992 5.70997 4.89188 5.4863 4.89188C5.26262 4.89188 5.0813 5.07992 5.0813 5.31188C5.0813 5.54384 5.26262 5.73188 5.4863 5.73188Z" fill="#312D2D"/>
<path d="M8.18625 5.73188C8.40993 5.73188 8.59125 5.54384 8.59125 5.31188C8.59125 5.07992 8.40993 4.89188 8.18625 4.89188C7.96257 4.89188 7.78125 5.07992 7.78125 5.31188C7.78125 5.54384 7.96257 5.73188 8.18625 5.73188Z" fill="#312D2D"/>
<path d="M7.58622 4.56C7.66309 4.45875 7.84122 4.30875 8.18809 4.30875C8.53497 4.30875 8.71309 4.45687 8.78997 4.56C8.82372 4.605 8.81622 4.6575 8.79184 4.68937C8.76934 4.71937 8.70559 4.74562 8.63434 4.72125C8.56309 4.69687 8.42247 4.62562 8.18997 4.62375C7.95559 4.62562 7.81684 4.69687 7.74559 4.72125C7.67434 4.74562 7.60872 4.71937 7.58809 4.68937C7.57273 4.67141 7.56413 4.64865 7.56379 4.62502C7.56345 4.60139 7.57138 4.57839 7.58622 4.56ZM4.88434 4.56C4.96122 4.45875 5.13934 4.30875 5.48622 4.30875C5.83122 4.30875 6.01122 4.45687 6.08809 4.56C6.12184 4.605 6.11434 4.6575 6.08997 4.68937C6.06747 4.71937 6.00372 4.74562 5.93247 4.72125C5.86122 4.69687 5.72059 4.62562 5.48809 4.62375C5.25372 4.62562 5.11497 4.69687 5.04372 4.72125C4.97247 4.74562 4.90684 4.71937 4.88622 4.68937C4.87051 4.67158 4.86168 4.64876 4.86134 4.62503C4.86099 4.6013 4.86915 4.57823 4.88434 4.56Z" fill="#454140"/>
<path d="M12.6262 16.2C12.5962 16.1869 12.5662 16.1794 12.5325 16.1794C12.525 16.1794 12.5193 16.1813 12.5118 16.1831L12.5212 16.1644C12.5737 16.0481 12.5287 15.9094 12.4181 15.8531C12.3881 15.8381 12.3562 15.8306 12.3225 15.8306C12.3093 15.8306 12.2962 15.8344 12.2831 15.8363C12.33 15.7238 12.2887 15.5906 12.1837 15.5344C12.1518 15.5175 12.1181 15.5081 12.0825 15.5081C12.0337 15.5081 11.9868 15.5269 11.9493 15.5569C11.9362 15.4875 11.895 15.4219 11.8256 15.3863C11.7937 15.3694 11.76 15.3619 11.7262 15.3619C11.64 15.3619 11.5631 15.4125 11.5256 15.4931L11.3531 15.8606C11.2987 15.9769 11.3437 16.1213 11.4618 16.1813C11.4937 16.1981 11.5275 16.2056 11.5631 16.2056C11.5987 16.2056 11.6306 16.1944 11.6606 16.1794C11.6625 16.1981 11.6606 16.2169 11.6662 16.2338C11.685 16.2938 11.7225 16.3425 11.775 16.3706C11.8068 16.3875 11.8406 16.3969 11.8762 16.3969C11.9156 16.3969 11.9512 16.3856 11.9831 16.3669C11.9943 16.44 12.0337 16.5094 12.1012 16.5431C12.1312 16.5581 12.1631 16.5656 12.1968 16.5656C12.2268 16.5656 12.255 16.5581 12.2793 16.545C12.2943 16.6163 12.3356 16.68 12.4012 16.7119C12.4312 16.725 12.4612 16.7325 12.495 16.7325C12.5831 16.7325 12.6637 16.6781 12.6993 16.5938L12.7331 16.515C12.7893 16.3969 12.7387 16.2544 12.6262 16.2Z" fill="#BA8D68"/>
<path d="M12.6675 16.185C12.7688 15.8513 12.3938 15.7706 12.3938 15.7706C12.4463 15.5813 12.1463 15.3638 11.9607 15.4725C11.6832 15.195 11.4882 15.4481 11.4619 15.6244C11.4619 15.6244 11.6007 15.4125 11.745 15.48C11.8425 15.525 11.8407 15.6188 11.8107 15.7088C11.7638 15.8494 11.7244 15.9919 11.7244 15.9919C11.7244 15.9919 11.8294 15.8138 11.9194 15.6994C11.9494 15.66 12.045 15.5813 12.1463 15.6375C12.2475 15.6919 12.2494 15.8175 12.2344 15.8625C12.1857 16.0163 12.06 16.2225 12.06 16.2225C12.06 16.2225 12.1538 16.1269 12.2325 16.0369C12.2944 15.9656 12.3469 15.9206 12.4407 15.9638C12.5419 16.0106 12.5363 16.125 12.5063 16.1831C12.4444 16.3069 12.3638 16.455 12.3638 16.455C12.3638 16.455 12.51 16.2319 12.6619 16.3575C12.7575 16.4381 12.6732 16.635 12.6844 16.6238C12.9544 16.35 12.6675 16.185 12.6675 16.185Z" fill="#91674D"/>
</g>
<defs>
<linearGradient id="paint0_linear_20_1666" x1="14.4328" y1="10.3867" x2="11.9956" y2="14.9563" gradientUnits="userSpaceOnUse">
<stop stop-color="#A47B62"/>
<stop offset="0.405" stop-color="#BA8D68"/>
</linearGradient>
<linearGradient id="paint1_linear_20_1666" x1="12.5372" y1="14.452" x2="13.1793" y2="13.4025" gradientUnits="userSpaceOnUse">
<stop stop-color="#A47B62"/>
<stop offset="1" stop-color="#BA8D68" stop-opacity="0"/>
</linearGradient>
<linearGradient id="paint2_linear_20_1666" x1="19.449" y1="10.0297" x2="23.0976" y2="16.2362" gradientUnits="userSpaceOnUse">
<stop stop-color="#A47B62"/>
<stop offset="0.401" stop-color="#BA8D68"/>
</linearGradient>
<linearGradient id="paint3_linear_20_1666" x1="17.1649" y1="8.21514" x2="17.1649" y2="14.625" gradientUnits="userSpaceOnUse">
<stop offset="0.366" stop-color="#F78C1F"/>
<stop offset="0.672" stop-color="#F47F12"/>
<stop offset="1" stop-color="#EF6C00"/>
</linearGradient>
<radialGradient id="paint4_radial_20_1666" cx="0" cy="0" r="1" gradientUnits="userSpaceOnUse" gradientTransform="translate(18.3444 7.12555) scale(1.89844 0.932513)">
<stop offset="0.728" stop-color="#6D4C41" stop-opacity="0"/>
<stop offset="1" stop-color="#6D4C41"/>
</radialGradient>
<radialGradient id="paint5_radial_20_1666" cx="0" cy="0" r="1" gradientUnits="userSpaceOnUse" gradientTransform="translate(20.2149 6.84282) rotate(154.924) scale(0.560971 0.416161)">
<stop offset="0.663" stop-color="#6D4C41"/>
<stop offset="1" stop-color="#6D4C41" stop-opacity="0"/>
</radialGradient>
<radialGradient id="paint6_radial_20_1666" cx="0" cy="0" r="1" gradientUnits="userSpaceOnUse" gradientTransform="translate(18.7606 5.25646) rotate(-94.2783) scale(2.46409 2.05366)">
<stop offset="0.725" stop-color="#6D4C41" stop-opacity="0"/>
<stop offset="1" stop-color="#6D4C41"/>
</radialGradient>
<radialGradient id="paint7_radial_20_1666" cx="0" cy="0" r="1" gradientUnits="userSpaceOnUse" gradientTransform="translate(15.5658 5.2564) rotate(-85.7217) scale(2.46409 2.05366)">
<stop offset="0.725" stop-color="#6D4C41" stop-opacity="0"/>
<stop offset="1" stop-color="#6D4C41"/>
</radialGradient>
<radialGradient id="paint8_radial_20_1666" cx="0" cy="0" r="1" gradientUnits="userSpaceOnUse" gradientTransform="translate(15.9821 7.12555) rotate(180) scale(1.89844 0.932513)">
<stop offset="0.728" stop-color="#6D4C41" stop-opacity="0"/>
<stop offset="1" stop-color="#6D4C41"/>
</radialGradient>
<radialGradient id="paint9_radial_20_1666" cx="0" cy="0" r="1" gradientUnits="userSpaceOnUse" gradientTransform="translate(14.1118 6.84284) rotate(25.0761) scale(0.560971 0.416161)">
<stop offset="0.663" stop-color="#6D4C41"/>
<stop offset="1" stop-color="#6D4C41" stop-opacity="0"/>
</radialGradient>
<radialGradient id="paint10_radial_20_1666" cx="0" cy="0" r="1" gradientUnits="userSpaceOnUse" gradientTransform="translate(18.6229 3.95603) rotate(72.0851) scale(2.88839 2.14312)">
<stop offset="0.699" stop-color="#6D4C41" stop-opacity="0"/>
<stop offset="1" stop-color="#6D4C41"/>
</radialGradient>
<radialGradient id="paint11_radial_20_1666" cx="0" cy="0" r="1" gradientUnits="userSpaceOnUse" gradientTransform="translate(15.8072 0.807119) rotate(28.2026) scale(0.757328 0.89797)">
<stop offset="0.58" stop-color="#6D4C41"/>
<stop offset="1" stop-color="#6D4C41" stop-opacity="0"/>
</radialGradient>
<radialGradient id="paint12_radial_20_1666" cx="0" cy="0" r="1" gradientUnits="userSpaceOnUse" gradientTransform="translate(17.4998 2.1821) rotate(-157.19) scale(2.3686 1.33116)">
<stop offset="0.699" stop-color="#6D4C41" stop-opacity="0"/>
<stop offset="1" stop-color="#6D4C41"/>
</radialGradient>
<radialGradient id="paint13_radial_20_1666" cx="0" cy="0" r="1" gradientUnits="userSpaceOnUse" gradientTransform="translate(15.5029 1.4977) scale(0.695063 0.85027)">
<stop offset="0.702" stop-color="#6D4C41" stop-opacity="0"/>
<stop offset="1" stop-color="#6D4C41"/>
</radialGradient>
<radialGradient id="paint14_radial_20_1666" cx="0" cy="0" r="1" gradientUnits="userSpaceOnUse" gradientTransform="translate(15.4066 2.72516) rotate(-164.942) scale(1.30374 1.22006)">
<stop offset="0.66" stop-color="#6D4C41" stop-opacity="0"/>
<stop offset="1" stop-color="#6D4C41"/>
</radialGradient>
<radialGradient id="paint15_radial_20_1666" cx="0" cy="0" r="1" gradientUnits="userSpaceOnUse" gradientTransform="translate(15.0985 3.98359) rotate(7.83354) scale(1.36879 1.92338)">
<stop offset="0.598" stop-color="#6D4C41" stop-opacity="0"/>
<stop offset="1" stop-color="#6D4C41"/>
</radialGradient>
<linearGradient id="paint16_linear_20_1666" x1="4.56827" y1="10.0298" x2="0.919707" y2="16.2364" gradientUnits="userSpaceOnUse">
<stop stop-color="#FFD29C"/>
<stop offset="0.401" stop-color="#F9DDBD"/>
</linearGradient>
<linearGradient id="paint17_linear_20_1666" x1="9.58054" y1="9.91477" x2="12.697" y2="16.4627" gradientUnits="userSpaceOnUse">
<stop stop-color="#FFD29C"/>
<stop offset="0.401" stop-color="#F9DDBD"/>
</linearGradient>
<linearGradient id="paint18_linear_20_1666" x1="2.65158" y1="11.4201" x2="11.0231" y2="11.4201" gradientUnits="userSpaceOnUse">
<stop offset="0.172" stop-color="#4FC3F7"/>
<stop offset="0.369" stop-color="#42BFF6"/>
<stop offset="0.732" stop-color="#20B3F5"/>
<stop offset="0.994" stop-color="#03A9F4"/>
</linearGradient>
<radialGradient id="paint19_radial_20_1666" cx="0" cy="0" r="1" gradientUnits="userSpaceOnUse" gradientTransform="translate(8.01804 7.12555) scale(1.89844 0.932513)">
<stop offset="0.728" stop-color="#454140" stop-opacity="0"/>
<stop offset="1" stop-color="#454140"/>
</radialGradient>
<radialGradient id="paint20_radial_20_1666" cx="0" cy="0" r="1" gradientUnits="userSpaceOnUse" gradientTransform="translate(9.88894 6.84251) rotate(154.924) scale(0.560971 0.416161)">
<stop offset="0.663" stop-color="#454140"/>
<stop offset="1" stop-color="#454140" stop-opacity="0"/>
</radialGradient>
<radialGradient id="paint21_radial_20_1666" cx="0" cy="0" r="1" gradientUnits="userSpaceOnUse" gradientTransform="translate(8.43453 5.2565) rotate(-94.2783) scale(2.46409 2.05366)">
<stop offset="0.725" stop-color="#454140" stop-opacity="0"/>
<stop offset="1" stop-color="#454140"/>
</radialGradient>
<radialGradient id="paint22_radial_20_1666" cx="0" cy="0" r="1" gradientUnits="userSpaceOnUse" gradientTransform="translate(5.23972 5.25617) rotate(-85.7217) scale(2.46409 2.05366)">
<stop offset="0.725" stop-color="#454140" stop-opacity="0"/>
<stop offset="1" stop-color="#454140"/>
</radialGradient>
<radialGradient id="paint23_radial_20_1666" cx="0" cy="0" r="1" gradientUnits="userSpaceOnUse" gradientTransform="translate(5.65575 7.12555) rotate(180) scale(1.89844 0.932513)">
<stop offset="0.728" stop-color="#454140" stop-opacity="0"/>
<stop offset="1" stop-color="#454140"/>
</radialGradient>
<radialGradient id="paint24_radial_20_1666" cx="0" cy="0" r="1" gradientUnits="userSpaceOnUse" gradientTransform="translate(3.78584 6.84296) rotate(25.0761) scale(0.560972 0.416161)">
<stop offset="0.663" stop-color="#454140"/>
<stop offset="1" stop-color="#454140" stop-opacity="0"/>
</radialGradient>
<radialGradient id="paint25_radial_20_1666" cx="0" cy="0" r="1" gradientUnits="userSpaceOnUse" gradientTransform="translate(8.29655 3.95606) rotate(72.0851) scale(2.88839 2.14312)">
<stop offset="0.699" stop-color="#454140" stop-opacity="0"/>
<stop offset="1" stop-color="#454140"/>
</radialGradient>
<radialGradient id="paint26_radial_20_1666" cx="0" cy="0" r="1" gradientUnits="userSpaceOnUse" gradientTransform="translate(5.48067 0.806936) rotate(28.2026) scale(0.757328 0.89797)">
<stop offset="0.58" stop-color="#454140"/>
<stop offset="1" stop-color="#454140" stop-opacity="0"/>
</radialGradient>
<radialGradient id="paint27_radial_20_1666" cx="0" cy="0" r="1" gradientUnits="userSpaceOnUse" gradientTransform="translate(7.17377 2.18142) rotate(-157.19) scale(2.3686 1.33116)">
<stop offset="0.699" stop-color="#454140" stop-opacity="0"/>
<stop offset="1" stop-color="#454140"/>
</radialGradient>
<radialGradient id="paint28_radial_20_1666" cx="0" cy="0" r="1" gradientUnits="userSpaceOnUse" gradientTransform="translate(5.17654 1.4977) scale(0.695062 0.85027)">
<stop offset="0.702" stop-color="#454140" stop-opacity="0"/>
<stop offset="1" stop-color="#454140"/>
</radialGradient>
<radialGradient id="paint29_radial_20_1666" cx="0" cy="0" r="1" gradientUnits="userSpaceOnUse" gradientTransform="translate(5.08079 2.72482) rotate(-164.942) scale(1.30373 1.22006)">
<stop offset="0.66" stop-color="#454140" stop-opacity="0"/>
<stop offset="1" stop-color="#454140"/>
</radialGradient>
<radialGradient id="paint30_radial_20_1666" cx="0" cy="0" r="1" gradientUnits="userSpaceOnUse" gradientTransform="translate(4.77188 3.98345) rotate(7.83355) scale(1.36879 1.92338)">
<stop offset="0.598" stop-color="#454140" stop-opacity="0"/>
<stop offset="1" stop-color="#454140"/>
</radialGradient>
<clipPath id="clip0_20_1666">
<rect width="24" height="24" fill="white"/>
</clipPath>
</defs>
</svg>
