<svg width="24" height="24" viewBox="0 0 24 24" fill="none" xmlns="http://www.w3.org/2000/svg">
<path d="M6.20439 3.10317C6.20439 3.10317 4.04814 3.9938 3.54189 4.35942C2.92502 4.80567 2.17502 5.3738 1.77752 6.13317C1.39689 6.8588 1.24502 7.4138 1.21689 8.3438C1.18877 9.2738 2.18252 16.9969 2.18252 16.9969C2.18252 16.9969 7.56752 22.0707 8.41689 22.455C9.26627 22.8394 10.5188 23.31 12.0225 23.2819C13.5263 23.2538 14.5144 22.7907 15.09 22.5169C15.6638 22.2432 22.4775 12.1557 22.5338 11.3344C22.59 10.5132 22.6444 8.94755 22.6106 8.28567C22.575 7.60692 22.4363 7.06505 22.08 6.38067C21.7238 5.6963 21.1388 5.0288 20.7844 4.72692C20.4281 4.42692 15.9563 2.4188 14.6025 2.11505C10.6913 1.24317 6.20439 3.10317 6.20439 3.10317Z" fill="#CECECE"/>
<path d="M2.89505 5.45626C2.9213 6.37314 3.66005 6.79689 5.16567 7.56189C6.6713 8.32689 10.5 10.5713 12.0863 10.6256C13.6725 10.68 19.5525 7.10626 20.4019 6.55689C21.2419 6.01314 21.3825 5.14501 20.5932 4.55251C19.4982 3.73314 14.6025 1.46251 13.5638 1.08001C13.0332 0.885014 11.6813 0.581264 10.6088 0.997514C9.7613 1.32564 4.38567 3.81376 3.8663 4.14189C3.34692 4.47001 2.88192 4.94439 2.89505 5.45626Z" fill="#EAEAEA"/>
<path d="M6.43874 3.58501C6.10499 3.20813 3.75562 4.43813 3.75562 5.48626C3.75562 6.50251 5.88749 7.79626 6.42187 7.31626C6.80624 6.97126 5.44499 5.89501 5.62312 5.27251C5.79937 4.65001 6.72374 3.90376 6.43874 3.58501ZM8.76374 9.01501C8.39437 9.54938 10.755 10.6988 12.195 10.6988C13.5506 10.6988 15.765 9.37501 15.48 8.99063C15.0187 8.36813 13.8994 8.95313 12.1575 8.99063C11.1975 9.01126 9.14812 8.45813 8.76374 9.01501ZM17.3269 7.32001C17.7881 7.62188 20.4187 6.28876 20.4712 5.49001C20.5237 4.69126 18.8362 3.73126 18.3562 4.06876C17.8762 4.40626 18.4987 4.65563 18.3394 5.24063C18.18 5.82563 16.7737 6.95813 17.3269 7.32001Z" fill="white"/>
<path d="M1.21499 8.4544C1.18686 9.42378 1.24499 15.3413 1.25811 16.1438C1.27124 17.0288 1.48874 18.0132 2.07749 18.5175C2.66624 19.0219 7.43436 22.0463 8.50686 22.5094C10.0087 23.1582 11.4694 22.4456 11.5744 20.8294C11.6794 19.2113 11.6156 14.2744 11.6156 13.6032C11.6156 12.9319 11.2781 11.9419 10.5431 11.4375C9.80811 10.9332 3.99561 7.5994 3.39936 7.25628C2.55936 6.7744 1.25811 7.00503 1.21499 8.4544Z" fill="#DFDFDF"/>
<path d="M13.2525 11.5013C12.6225 12.0001 12.3694 12.7201 12.3694 13.4963C12.3694 14.2726 12.3282 20.2613 12.3488 20.8707C12.3694 21.4801 13.2319 23.0982 14.5763 22.6988C15.9657 22.2863 17.7282 21.0394 18.9882 20.2819C20.2482 19.5263 21.2307 18.8851 21.6694 18.5251C22.2319 18.0657 22.6125 16.9538 22.6332 16.0088C22.6538 15.0844 22.6275 9.29818 22.6107 8.84443C22.5694 7.77943 22.1382 6.90005 20.9832 7.1513C19.8282 7.40255 14.1563 10.7869 13.2525 11.5013Z" fill="#B8B8B8"/>
<path d="M12.0543 7.34997C13.4844 7.34997 14.6437 6.51638 14.6437 5.4881C14.6437 4.45981 13.4844 3.62622 12.0543 3.62622C10.6243 3.62622 9.46497 4.45981 9.46497 5.4881C9.46497 6.51638 10.6243 7.34997 12.0543 7.34997Z" fill="#FE4E27"/>
<path d="M4.96689 10.4156C5.30439 11.3569 5.20314 12.3319 4.48127 12.5906C3.75939 12.8494 2.89502 12.2062 2.56314 11.2856C2.22377 10.3444 2.30814 9.36749 3.04877 9.11062C3.77439 8.86124 4.62939 9.47437 4.96689 10.4156ZM9.71627 18.675C10.1175 19.59 10.095 20.6737 9.39377 20.9812C8.69252 21.2887 7.74189 20.6494 7.34627 19.7531C6.94314 18.8381 7.00314 17.835 7.70439 17.5275C8.40752 17.22 9.31502 17.76 9.71627 18.675ZM19.1175 12.555C19.7306 12.9037 20.7169 12.4706 21.225 11.5819C21.7331 10.6912 21.6469 9.68812 21.0356 9.33749C20.4225 8.98874 19.4531 9.42 18.945 10.3106C18.4369 11.1994 18.5044 12.2062 19.1175 12.555ZM16.695 16.6312C17.3175 16.995 18.33 16.5619 18.8588 15.6562C19.3875 14.7525 19.3125 13.7231 18.69 13.3594C18.0675 12.9956 17.0344 13.3987 16.5056 14.3025C15.9769 15.21 16.0744 16.2675 16.695 16.6312ZM14.2894 20.7975C14.8913 21.165 15.8906 20.76 16.425 19.8862C16.9594 19.0125 16.9031 18.0056 16.3013 17.6381C15.6994 17.2706 14.7675 17.5294 14.1525 18.5025C13.605 19.3669 13.6875 20.43 14.2894 20.7975Z" fill="#2F2F2F"/>
</svg>
