<svg width="20" height="20" viewBox="0 0 20 20" fill="none" xmlns="http://www.w3.org/2000/svg">
<path d="M2.08337 9.43841C2.08337 8.21422 2.64395 7.05744 3.6048 6.29888L7.52146 3.20677C8.9747 2.05948 11.0254 2.05948 12.4786 3.20677L16.3953 6.29888C17.3561 7.05744 17.9167 8.21422 17.9167 9.43841V13.9167C17.9167 16.1258 16.1258 17.9167 13.9167 17.9167H13.5C12.9478 17.9167 12.5 17.469 12.5 16.9167V14.9167C12.5 13.8121 11.6046 12.9167 10.5 12.9167H9.50004C8.39547 12.9167 7.50004 13.8121 7.50004 14.9167V16.9167C7.50004 17.469 7.05233 17.9167 6.50004 17.9167H6.08337C3.87423 17.9167 2.08337 16.1258 2.08337 13.9167L2.08337 9.43841Z" stroke="#6D49FF" stroke-width="2"/>
</svg>
